<?xml version="1.0" encoding="UTF-8"?>
<svg id="Layer_2" xmlns="http://www.w3.org/2000/svg" viewBox="0 0 1968.66 1227.84">
  <defs>
    <style>
      .cls-1 {
        fill: #fff;
      }

      .cls-2 {
        fill: #f4e8e2;
      }
    </style>
  </defs>
  <g id="logo">
    <g>
      <path class="cls-2" d="M0,879.3c5.29-.47,10.08,1.68,14.96,3.05,7.54,2.12,15.03,2.56,22.44.12,3.04-1,4.46,1.4,7.05,2.44.16-3.35,2.26-5.17,4.24-7.1,4.45-4.35,8.08-9.44,12.67-13.68,2.85-2.63,4.04-5.83,1.95-9.6-.3-.54-.37-1.19-.65-1.74-2.75-5.35-2.13-10.48.88-15.51,1.19-1.98,1.13-4.1.63-6.32-1.16-5.13-2.33-10.26-3.23-15.43-.59-3.38-.38-6.85.8-10.12.95-2.63.91-5.14-.22-7.66-.58-1.3-1.36-2.9-.32-3.97,2.14-2.2,1.06-4.51.37-6.53-2.56-7.44-1.69-15.09-1.59-22.66.03-2.71,1.11-5.46,2.06-8.07.7-1.94.41-3.6-.24-5.41-1.79-4.99-1.2-10.14-.68-15.22.64-6.16,2.32-12.34,1.34-18.47-.78-4.91-.84-9.86-1.47-14.77-1.1-8.55-1.81-17.29.87-25.76.95-3,.78-5.76-.12-8.65-.64-2.07-1.17-4.18-1.62-6.3-.42-1.99-.8-4.1.93-5.7,2.04-1.88,1.81-4.26,1.44-6.53-1.7-10.38-5.77-19.6-13.73-26.8-3.22-2.91-6.29-5.99-9.53-8.9-3.9-3.51-6.68-8.28-8.85-13.01-1.4-3.04-1.16-6.79,2.02-9.79,8.59-8.13,16.38-17,22.59-27.12,4.69-7.64,8.35-15.68,7.61-24.97-.33-4.15-1.01-8.28-1.46-12.43-.47-4.3-1.15-8.61-1.24-12.93-.19-9.34-.33-18.7.04-28.03.23-5.84,1.3-11.67,2.22-17.46.52-3.27.65-6.43-.06-9.68-.85-3.93-2.2-7.93-2.03-11.84.27-6.03,1.79-11.95,6.33-16.54.95-.96,2.29-1.68,2.45-3.24-.26-.2-.47-.51-.7-.52-1.33-.09-2.25,2.25-3.71.83-1.84-1.79-4.54-3.1-4.57-6.16-.07-7.16-.01-14.33-.02-21.49,0-1.43.45-2.46,2.08-2.48,2.59-.04,2.7-1.33,1.95-3.39-.47-1.29-.41-2.76-.78-4.09-.89-3.18,3.09-6.3-.13-9.61-2.38-2.44-2.17-6.04-3.14-9.12-1.36-4.33-.93-8.9-1.78-13.32-.35-1.85-1-3.15-2.47-4.22-4.39-3.19-8.83-6.32-13.06-9.71-1.6-1.28-3.16-1.68-5.1-1.74-9.56-.31-18.54,1.73-26.62,6.88-2.48,1.58-4.77,1.85-7.34,1.24-.66-1.54.45-2.18,1.17-2.9,6.7-6.73,13.22-13.68,20.23-20.07,5.72-5.21,11.39-10.53,17.72-15.04,3.82-2.72,8.47-3.77,12.41-6.35,4.67-3.05,9.74-5.49,14.58-8.29,5.23-3.03,11.08-3.97,16.88-4.88,2.58-.4,5.1-1.28,7.82-1.09,2.34.17,4.63-.08,6.41,1.98,1.13,1.31,2.61,1.03,3.66-.21,2.06-2.42,4.03-1.53,6.13-.11,1.54,1.04,3.2,1.91,4.77,2.91.66.42,1.36,1.13,2.09.75,2.92-1.51,5.12.35,7.41,1.5,10.4,5.26,20.88,10.39,30.5,17.04,3.16,2.19,6.53,4.2,8.7,7.56.54.84,1.36,1.17,2.35,1.32,6.69,1,11.4,4.59,13.99,10.88.92,2.23,2.16,4.06,4.58,4.96,1.87.69,2.9,2.13,3.15,4.24.29,2.42,1.32,4.03,4.16,4.68,3.38.78,5.85,3.24,7.96,6.12,5.38,7.32,7.67,15.85,10.07,24.36.61,2.17-.32,4.25-.84,6.88,3.3-1.04,4.64.79,6.04,3.04,4.7,7.59,7.71,15.93,10.79,24.2,3.85,10.33,7.47,20.75,10.76,31.27,5.47,17.45,10.84,34.94,15.53,52.63,4.37,16.49,9.34,32.81,15.96,48.57,1.06,2.52,2.58,4.99.2,7.75-.82.95-.17,2.28.46,3.47,6.14,11.58,10.1,24.02,14,36.45,2.45,7.83,5.04,15.64,7.11,23.6,2.41,9.3,5.26,18.48,7.91,27.72.21.74.29,1.54.6,2.23.16.36.69.74,1.08.77.69.05,1.14-.45,1.13-1.16-.05-2.81.88-5.56.91-8.29.09-9.01,1.46-17.91,2.22-26.85.42-4.89-.05-9.93,1.44-14.76.62-2.02-.72-3.92-1.07-5.89-.49-2.73-1.47-5.34-1.57-8.19-.11-3.1.13-5.9,2.93-7.86,1.67-1.17,1.39-2.6.42-4.04-2.84-4.21-3.05-8.73-1.41-13.36,1.6-4.51-.22-8.88-.46-13.28-.19-3.55-1.36-6.98.93-10.3.76-1.11.31-2.38-.15-3.58-1.1-2.9-2.02-5.88-3.24-8.73-.99-2.31-.86-4.12,1.21-5.75,1.09-.85,1.95-1.99,2.88-2.97-.21-.36-.33-.8-.49-.81-4.78-.38-4.46-.01-4.47-4.95-.03-14.33-.12-28.66.05-42.98.08-6.5.8-13.02,3.13-19.16,1.05-2.77,1.04-5.36.35-8.11-1.09-4.35-2.1-8.72-3.2-13.07-.23-.93-.66-2.07-.06-2.7,2.82-3.02.9-6.26.36-9.27-.45-2.52-.74-4.79.08-7.28,1.71-5.16,1.58-10.4-.12-15.55-.61-1.86-.88-3.62.06-5.41,1.84-3.53,1.31-7.21.77-10.92-1.01-6.95-2.91-13.62-5.84-20.01-4.08-8.92-10.85-14.25-20.67-15.23-3.77-.37-7.34,1.11-10.7,2.7-7.16,3.4-14.27,6.94-20.86,11.39-1.33.9-2.48,2.02-3.97.26-1.46-1.72-1.4-3.33.07-4.99,5.14-5.81,9.82-12.06,15.53-17.32,8.23-7.56,16.7-14.88,26.97-19.69,1.97-.92,4.02-1.67,5.99-2.56,1.63-.74,3.14-1.27,4.21-3.22,1.09-1.98,3.75-2.58,6.21-2.09,1.06.21,2.11.58,3.09,1.03,1.48.67,2.38.43,3.58-.87,2.16-2.34,3.09-6.46,6.69-6.74,5.84-.47,11.78-.75,17.52,1.35,6.42,2.34,11.72,6.26,16.51,11.01,3.1,3.08,3.09,2.99,6.4.28,4.59-3.77,9.7-6.75,15.2-8.97,3.56-1.44,7.39-1.76,10.97-.54,4.81,1.64,9.45.98,14.13-.05,2.85-.63,5.45-.62,8.13.74,9.72,4.94,19.48,9.77,29.24,14.63,1.72.86,3.57,1.54,2.39,4.1-.29.63.03,1.33.76,1.4,3.71.39,5.59,3.4,7.55,5.82,4.6,5.65,10.13,10.49,14.16,16.65,1.46,2.23,2.66,4.56,3.82,6.92.66,1.35.65,2.85-.68,3.8-1.46,1.05-2.99.75-4.21-.54-2.92-3.05-6.07-5.66-9.98-7.51-5.88-2.78-12.11-3.76-18.43-4.37-3.24-.31-6.55.09-9.81-.11-2.83-.17-5.37.65-7.44,2.27-4.06,3.18-7.57,6.79-9.13,12.04-2.14,7.18-3.47,14.42-3.5,21.92,0,2.26.56,4.64-1.43,6.59-.77.75-.59,2.14-.2,3.14,2.14,5.54,1.61,11.32,1.64,17.05.02,4.05-.06,8.1.02,12.15.06,2.95-.77,5.26-3.88,6.09-1.94.51-1.49,1.59-.85,2.8.87,1.65,1.57,3.43,2.66,4.92,1.61,2.19,1.41,3.98-.53,5.73-.23.21-.44.44-.66.66q-4.57,4.76,1.2,7.34c2.18.98,2.92,2.34,1.43,4.3-1.79,2.35-1.51,4.8-.98,7.09,1.3,5.65,1.68,11.32,1.62,17.08-.09,8.72-.1,17.44,0,26.16.09,7.81-.71,15.48-3.25,22.89-.54,1.59-.72,3.01.43,4.37,1.26,1.49.97,2.88-.39,4.09-1.52,1.36-1.32,2.79-.82,4.63.84,3.09,1.83,6.17.52,9.56-.78,2.02.02,4.74,1.45,6.08,3.5,3.27,4.01,7.38,3.78,11.51-.24,4.27.8,6.74,5.09,8.36,7.32,2.76,11.73,8.02,10.96,16.24.67.19,1.04.43,1.22.33,4.85-2.58,4.83-2.57,8.58,1.37,2.36,2.47,4.16,5.4,6.69,7.76,1.85,1.73,1.73,3.96.18,5.89-3,3.75-6.1,7.42-9.22,11.08-9.98,11.71-19.58,23.67-26.5,37.54-1.26,2.52-2.09,5.14-2.73,7.89-.35,1.53-.3,2.54.74,3.77,2.93,3.46,2.98,3.59.52,7.62-1.25,2.06-1.34,3.5,1.11,4.34,1.51.52,1.09,1.38.98,2.54-.38,3.85-1.66,7.59-1.27,11.53.16,1.69.23,3.36.55,5.07.5,2.58,1.98,5.35-.32,7.9-.25.28-.33,1.08-.12,1.34,2.31,2.87.96,5.63,0,8.51-.31.92.04,2.17.36,3.18.7,2.2,1.62,4.15-.11,6.51-1.48,2.01,1.19,3.59,1.52,5.52.36,2.14-2.99,3.55-1.38,5.52,1.98,2.43,1.24,4.71.41,7-1.74,4.82-.72,9.56.4,14.2.52,2.17.14,3.45-1.28,4.95-3.68,3.91-3.93,6.63-.9,11.13,2.5,3.71,3.58,7.43,2.01,11.85-1.27,3.55-1.54,7.2-.27,10.95.9,2.65.84,5.43-.52,8.1-.7,1.36-.83,3.01-1.46,4.42-1.14,2.55-.78,4.7.92,6.93,1.21,1.6,3.25,3.32,1.04,5.69-.48.51-.18,1.12.17,1.69,1.33,2.19,1.36,4.4-.1,6.54-.59.86-.58,1.57-.12,2.55,2.06,4.41,1.84,8.71-1.25,12.59-1.55,1.96-1.59,3.86-.81,6.1.86,2.49,1.57,5.04,2.15,7.6.43,1.88,1.22,3.74-.43,5.69-.98,1.16-.55,3.04-.31,4.55,1.82,11.85,6.15,22.68,13.06,32.51,1.3,1.85,2.8,2.67,5.05,2.63,6.54-.09,13.09-.13,19.63,0,3.16.07,5.23-1.76,7.29-3.61,4.51-4.05,8.9-8.22,13.35-12.33.57-.53,1.12-1.13,1.8-1.46,1.56-.78,3.28.4,3.15,2.12-.05.59-.36,1.18-.61,1.74-6.34,13.98-13.87,27.16-25.58,37.44-6.21,5.45-13.09,9.86-20.91,12.86-10.44,3.99-20.81,8.19-31.01,12.75-3.78,1.69-7.55,2.41-11.31,1.68-6.06-1.17-12.1-.65-18.14-.73-11.65-.15-23.24-.84-34.54-3.84-4.11-1.09-8.67-1.77-10.48-6.7-.21-.58-1.18-.96-1.87-1.28-.84-.39-1.74-.72-2.65-.88-10.12-1.78-16.63-8.4-22.26-16.32-8-11.25-13.68-23.7-18.44-36.52-4.16-11.19-8-22.53-10.87-34.15-.63-2.54-1.4-4.93,2.01-6.1,1.35-.47,1.14-1.7,1.08-2.78-.08-1.46-1.18-1.5-2.29-1.76-6.53-1.51-10.14-7.74-8.28-14.19.26-.9.51-1.8.87-2.66.74-1.8.55-3.46-1.01-4.62-2.52-1.87-2.16-3.73-.34-5.81.6-.69,1.02-1.54,1.79-2.72-3.89-1.32-6.16-4.24-7.09-7.9-.87-3.42-1.71-6.93-1.32-10.43-1.38-1.08-2.26,1.1-3.53.2-1.02-.73-1.08-1.83-1.43-2.84-.72-2.05-1.32-4.15-2.13-6.16-1.18-2.91-1.76-5.64,1.15-7.63.05-1.25-.68-1.63-1.38-1.91-2.25-.9-3.19-2.72-3.95-4.88-.91-2.58-.81-5.58-3.21-7.58-.73-.61-.68-1.85-.4-2.67,1.27-3.73.51-7.7,1.56-11.49,1.01-3.66.33-4.67-3.03-6.46-2.56-1.37-4.3-3.46-5.71-5.96-2.89-5.1-3.89-10.75-5-16.37-.45-2.28-1.23-4.5-.98-6.88.18-1.63-.4-3.12-1.35-4.37-6-7.95-9.25-17.22-12.48-26.43-8.23-23.43-14.67-47.39-20.61-71.48-.77-3.11-2.08-5.83-3.71-8.44-5.02-8.02-7.61-16.91-9.59-26.04-.35-1.61-.93-3.17-1.5-5.08-1.83,1.43-1.21,3.1-1.21,4.5-.05,14.64-.12,29.28.03,43.92.04,3.71-.35,7.15-2.77,10.02-1.96,2.33-1.8,4.62-.82,7.29,1.06,2.9,1.81,5.93,2.42,8.96.33,1.65.34,3.45.05,5.11-.67,3.8-1.47,7.6-2.49,11.32-1.01,3.71-.99,7.26.39,10.86.94,2.46,1.53,5.06,2.49,7.52.84,2.13,1.05,4.39.52,6.42-1.05,4.01-.48,8.05-.81,12.05-.76,9.1-.38,18.28-1.75,27.34-.28,1.83.19,3.34,1.57,4.63,1.39,1.3,1.4,2.75,0,4.05-1.87,1.73-1.95,3.74-1.2,5.98.24.73.47,1.53.42,2.27-.54,7.32,1.21,14.53,1.09,21.85-.07,4.15,1.09,8.27.85,12.5-.26,4.72-1.3,6.24-5.92,7.67.74,2.26,2.28,4.06,3.62,5.9,1.45,1.99,1.91,4.12,1.02,6.14-2.43,5.52-.52,10.98-.1,16.42.44,5.74.99,11.48-.18,17.14-2.38,11.53-.27,22.43,4.19,33.05,3.23,7.69,7.92,14.42,13.96,20.17,3.6,3.43,7.59,6.39,11.79,9.07,1.52.97,2.91,1.69,3.4-.83.38-1.96,1.75-1.86,3.17-1.9,2.78-.08,5.53.11,8.31-.79,3.61-1.17,6.89-2.76,9.86-5.1,2.7-2.12,3.33-1.96,6.07,1.08,2.04,2.27,2.09,2.75-.07,5.05-7.39,7.86-15.77,14.49-25.23,19.7-4.12,2.27-8.67,3.6-13.26,4.18-2.66.34-4.7,1.34-6.74,2.73-7.15,4.85-14.82,8.35-23.42,9.85-9.64,1.68-18.85.64-27.69-3.47-3.09-1.44-6.23-2.83-9.02-4.87-1.72-1.26-3.57-1.5-5.71-.61-5.44,2.27-11.06,4.13-16.43,6.55-4.1,1.85-8.26,1.11-12.4,1.08-2.12-.01-2.98-1.97-3.82-3.68-1.52-3.1-1.69-3.29-4.49-1.14-2.75,2.1-4.96,2.21-7.76.03-5.78-4.49-12.81-6.59-19.74-7.94-8.38-1.63-14.67-6.05-20.62-11.64-4.86-4.56-10.01-8.81-15.08-13.14-1.06-.9-2.32-1.57-3.8-1.6v-3.74ZM296.54,687.87c5.44-2.46,9.71-5.46,14-8.4,3.45-2.36,6.54-5.16,9.29-8.33.63-.72,1.11-1.63.27-2.46-.7-.68-1.43.01-2.09.31-.42.19-.86.4-1.18.72-5.15,4.89-11.1,8.81-16.36,13.55-1.28,1.15-3.53,1.48-3.91,4.6ZM115.92,775.04c.08,3.25,2.1,4.45,4.61,2.68,2.52-1.77,5.11-3.53,7.12-5.95.71-.85,1.59-1.62.67-2.81-.91-1.18-1.87-2.01-3.53-1.09-2.17,1.2-4.41,2.31-6.68,3.32-1.88.84-2.44,2.23-2.19,3.85ZM73.44,423.61c2.56-.39,4.95-1.08,7.07-3.81-3.64-.08-5.49,1.62-7.07,3.81ZM70.46,425.11c.12.22.21.56.38.61.2.05.6-.09.68-.26.2-.43-.01-.8-.5-.8-.18,0-.37.29-.55.45ZM45.96,886.07c-.13.04-.29.05-.39.13-.04.03.06.22.09.34.14-.04.29-.05.39-.13.03-.03-.06-.22-.09-.34Z"/>
      <path class="cls-2" d="M565.55,1227.84c-.1-.81-.32-1.54-1.24-1.75-8.93-1.97-16.09-7.16-22.98-12.76-1.88-1.53-2.98-1.64-4.47.47-2.18,3.09-5.37,5.17-8.42,7.28-5.97,4.14-12.68,3.68-19.31,2.33-6.87-1.4-12.56-5.32-17.87-9.67-7.33-6.02-13.68-13.03-19.49-20.51-.17-.22-.17-.57-.29-.97,1.03-1.4,2.48-.9,3.75-.58,3.61.91,7.22,1.83,10.76,2.98,4.19,1.36,8.3.03,12.4-.26,1.22-.09,2.51-2.18,3.37-3.6,1.85-3.07,3.26-6.36,4.14-9.86.18-.73.84-1.59.15-2.17-2.18-1.82-1.23-4.05-1.39-6.32-.4-5.73-.37-11.36.93-16.96-2.08-6.44.86-13.29-1.61-19.7-.21-.55-.17-1.25-.09-1.85.98-6.63-.35-13.24-.08-19.88.27-6.69.1-13.39.04-20.09-.02-2.22,0-4.45,1.5-6.2,1.63-1.9,1.48-4.07,1.19-6.2-1.12-8.3-1.98-16.62-1.71-25,.09-2.7-.7-4.68-2.64-6.59-4.98-4.91-10.09-9.69-14.46-15.2-1.51-1.91-1.87-3.09-.22-5.17,4.51-5.71,9.33-11.19,13.12-17.46,2.77-4.57,4.59-9.21,5.37-14.66.66-4.63-1.18-9.13.4-13.75.57-1.67-.99-4.11-1.7-6.16-.48-1.39-.94-2.68.46-3.79,1.86-1.48,1.36-3.2.63-5.04-1.31-3.28-1.31-6.63-.53-10.06.81-3.55-.26-7.12-.73-10.54-.75-5.48-.95-10.79.3-16.14.58-2.46.13-4.84.1-7.27-.08-5.88-.48-11.75.53-17.67.75-4.38.45-8.95,1.17-13.4.58-3.61-2.33-5.4-4.54-7.09-6.28-4.79-10.31-5.76-15.69-2.35-3.66,2.33-7.87,3.71-11.48,6.21-.84.58-1.83,1.27-3.18.62-.78-1.26.2-2.33.87-3.2,8.11-10.47,17.57-19.29,30.12-24.24.86-.34,1.86-.41,2.5-1.17,2.28-2.71,5.49-3.02,8.65-3.94,5.36-1.56,9.85,0,14.16,2.66,3.43,2.11,6.74,4.4,9.54,7.41,2.75,2.96,3.24,2.92,6.71.6,8.3-5.55,17.07-10.2,26.33-13.92,3.92-1.57,7.84-2.97,12.16-1.32.96.37,2.18.25,3.25.12,6.45-.8,12.95-1.04,19.42-1.64,10.89-1,21.66-.06,32.08,3.96,12.79,4.94,23.55,12.79,32.23,23.12,9.54,11.36,17.17,23.96,20.49,38.75,1.62,7.22,1.88,14.4.12,21.58-.51,2.09-.62,3.96.45,5.84.81,1.4,1.03,2.92.91,4.51-1.23,15.54-5.34,30.15-13.64,43.49-2.71,4.36-5.71,8.25-9.75,11.65-5.06,4.27-8.97,9.84-12.81,15.29-1.71,2.43-1.62,2.97,1.13,4.17,5.85,2.56,11.41,5.58,16.89,8.86,7.33,4.38,12.91,10.08,15.74,18.27.31.9.85,1.83.48,2.69-.88,2.05,0,2.78,1.75,3.83,1.76,1.06,2.08,3.46,2.04,5.45-.12,5.89.77,11.82-.57,17.66-.22.97.03,1.81.26,2.73.26,1.04.58,2.22.33,3.21-1.23,4.78-.6,9.49,0,14.27.36,2.91.35,5.91-1.35,8.61-.37.59-.56,1.62-.31,2.23,1.76,4.4-.16,8.55-.75,12.78-.48,3.42-.79,6.9-.03,10.2,1.86,8.02,2.66,16.14,3.56,24.29.65,5.84.82,11.73,1.74,17.53.13.79.3,1.52.82,2.14,5.09,6.15,13.24,10.7,21.57,4.48.83-.62,1.6-1.5,2.79-1.56,2.32,5.58-.04,8.52-7.43,9.24.07.13.1.34.2.38,4.03,1.6,4.3,2.32,2.03,5.89-2.79,4.38-6.5,7.94-10.52,11.13-9.97,7.91-21.37,13.13-33.2,17.53-.85.32-1.87.31-2.42,1.23h-4.67c-.93-1.18-1.87-1.2-2.8,0h-1.87c-.08-.8-.31-1.49-1.19-1.78-7.47-2.42-12.49-7.72-16.55-14.13-.86-1.36-2.15-2.12-3.34-3.09-7.08-5.82-13.71-11.98-13.51-22.26.02-1.07,0-2.21-.34-3.2-.79-2.36.78-2.18,2.21-2.25.34.4.57,1.18,1.25.34-.41-.12-.81-.24-1.22-.37-.03-.78,0-1.56-.09-2.33-.27-2.36-3.37-3.07-3.43-5.33-.05-2.25,1.28-4.46.09-6.8-.57-1.13-.49-2.47-.06-3.66,1.18-3.26.4-6.77,1.48-10.09.55-1.69-.03-3.52-.94-5.33-1.49-2.99-1.53-6.47-.04-9.42,1.25-2.47,1.3-4.75.7-7.17-.35-1.4-.66-2.7-.07-4.08.71-1.64.67-3.42.41-5.07-.69-4.3-1.12-8.54,0-12.86.37-1.45.21-3.1-.44-4.59-.45-1.03-.64-2.18-.3-3.2,1.37-4.11.74-8.33.76-12.5.02-3.18,0-6.59-.76-9.48-1.15-4.4-2.02-8.68-2.06-13.22-.05-4.25-2.06-7.38-6.2-8.95-6.14-2.32-12.54-3.54-19.04-3.87-6.68-.33-13.39-.11-20.08-.08-4.09.02-4.14.07-4.15,4.19-.03,12.14,0,24.28-.01,36.42,0,2.96.55,6.06-.16,8.84-2.15,8.45-.05,16.91-.48,25.36-.28,5.42,1.84,10.97-1.15,16.23,1.88,5.71.46,11.48.34,17.22,0,.14.1.29.16.44,1.97,4.88.38,10,.79,15,.18,2.29.1,4.42,1.14,6.56,1.87,3.82,4.52,6.98,7.39,10.09,4.67,5.08,12.59,6.28,18.55,1.73,2.04-1.56,4.13-3.06,6.21-4.59.36.55.64.79.65,1.04.03.45-.01.94-.18,1.35-2.27,5.38-5.33,10.26-10.07,13.75-1.74,1.28-2.76,2.81-3.72,4.59-4.61,8.5-11.18,14.41-21.16,15.71-.4.05-.74.52-1.11.79h-1.87c-.62-.95-1.25-.98-1.87,0h-1.87ZM627.55,974.16c-3.98-2.18-4.03-2.18-4.05-6.14-.04-5.92-.03-11.83,0-17.75.01-2.76-.34-5.52,1.49-8.06.89-1.23.44-3.01.08-4.55-.24-1.05-.55-2.11-.61-3.18-.51-8.23-2.4-16.21-4.58-24.11-1.07-3.88-2.82-7.38-6.13-10.19-2.08-1.76-4.19-3.05-6.62-4.09-6.12-2.62-12.72-2.44-19.12-3.44-3.36,1.81-7.11,1.05-10.66,1.55-3.23.46-3.56.29-3.33,3.6.39,5.7-1.24,11.37-.12,17.07.2,1.02-.04,2.18-.29,3.22-1.14,4.77-.94,9.65-.32,14.37.6,4.53.89,8.86-.08,13.36-.55,2.55-.28,5.24.1,7.89.8,5.52,1.67,11.07-.85,16.44-.57,1.21-.38,2.41.1,3.62.45,1.16,1.22,2.38,1.14,3.52-.4,5.51-.35,11.01-.24,16.53.04,2.06-.47,4.29-.43,6.45.07,3.78,2.37,6.18,6,7.1,4.45,1.12,9.09.13,13.4,1.08,4.89,1.08,8.78-.73,12.92-2.36,1.15-.45,2.24-1.09,3.35-1.65,8.26-4.22,13.25-10.4,13.02-20.24-.1-4.18.81-8.39,5.81-10.05ZM709.94,1191.32c.25-.12.49-.24.74-.36-.23-.14-.46-.38-.7-.39-.24,0-.49.21-.74.33.23.14.46.28.7.42Z"/>
      <path class="cls-2" d="M1968.66,1012.92c-3.96,4.35-7.44,9.14-11.75,13.18-2.45,2.3-4.27,5.08-4.1,8.57.59,12.71-2.86,24.83-5.07,37.16-1.11,6.21-2.64,12.38-2.53,18.83.11,6.88-3.28,12.82-6.33,18.75-.99,1.92-2.33,3.67-3.59,5.44-.64.91-1.17,1.79-1.2,2.96-.19,6.73-3.64,12.06-7.57,17.1-9.61,12.33-22.64,20.6-35.32,29.23-3.34,2.28-7.15,3.86-11.35,1.58-1.57-.85-3.41-.71-5.06-.44-10.5,1.72-19.47-2.34-28.03-7.52-11.68-7.07-20.73-16.7-27.12-28.81-1.74-3.29-3.76-6.43-5.66-9.63-.8-1.35-1.37-2.73-1.45-4.36-.16-2.96-.45-6.14-2.34-8.39-2.61-3.12-3.3-7.03-3.72-10.48-.4-3.29-1.83-5.66-3.23-8.24-1.83-3.38-2.05-7.16-2.65-10.78-.98-5.94-1.4-11.97-2.05-17.96-.1-.92.01-1.95-.37-2.74-2.29-4.76-1.87-9.7-.9-14.58.4-2.01-1.14-3.67-.56-5.46,1.67-5.13-1.54-7.96-4.78-10.88-3.25-2.92-5.38-6.84-8.74-9.67-1.78-1.5-1.62-2.93-.13-4.77,3.79-4.71,7.97-9.09,11.43-14.07,1.08-1.56,2.17-3.05,2.17-5.03,0-16.32,5.03-31.73,8.67-47.38.34-1.46.9-2.91,1.77-4.27,2.78-4.34,4.47-9.16,5.93-14.1,3.65-12.32,10.75-22.19,21.51-29.32.89-.59,1.82-.97,2.35-2.11,3.87-8.25,10.41-13.25,19.21-15.34,1.08-.26,2.04-.54,2.98-1.17,6.22-4.26,13.26-4.17,20.22-3.22,9.22,1.26,17.52,5.01,25.13,10.41,3.09,2.19,5.67,4.82,8.04,7.71,2.16,2.63,4.22,5.36,6.48,7.9,1.05,1.18,1.98,2.99,4.2,2.08.99-.41,1.21.44,1.62,1.13,5.83,9.75,10.94,19.8,14.73,30.57,1.94,5.52,4.77,10.72,6.02,16.53.36,1.68.82,3.31.7,5.04-.11,1.61.44,3.01,1.02,4.49,1.89,4.85,4.18,9.68,1.61,15.06-.42.88.33,1.77.73,2.6.68,1.4,1.57,2.79,1.3,4.41-.85,5.09,1.55,9.31,3.45,13.7.52,1.21.95,2.18,2.37,2.54.68.18,1.48.79,1.78,1.41,2.24,4.64,6.7,7.08,10.18,10.49v1.87ZM1876.35,909.19c-1.83,0-2.92.06-4.01-.01-5.54-.37-9.78,2.12-13.72,5.75-4.36,4.02-4.69,9.38-4.83,14.49-.45,16.15.49,32.34-1.02,48.47-.26,2.77,0,5.53-.48,8.34-.57,3.31.28,6.49,2.29,9.52,3.2,4.82,7.53,8.66,10.85,13.34,2.46,3.46,2.59,3.9-.42,6.91-3.22,3.21-5.67,6.98-8.37,10.57-2.94,3.91-3.95,8.31-3.92,13.11.07,9.13.06,18.26,0,27.39-.03,4.18-.6,8.46-.36,12.52.37,6.22.08,12.42.38,18.62.11,2.21-.53,3.91-1.94,5.88-1.2,1.66,3.01,2.49,2.9,5.08-.24,5.49,2.23,10.24,4.65,14.95,2.87,5.58,7.25,8.76,13.79,8.42,2.02-.1,4.06-.11,6.07,0,3.84.22,6.95-1.28,9.65-3.85,5.75-5.47,8.18-12.72,10.55-19.96.56-1.7,0-3.52-1.32-4.74-1.18-1.09-1.12-2.13-.5-3.3,1.18-2.26.71-4.49.06-6.75-.52-1.78-.57-3.46-.27-5.41.6-3.96.78-8.08-.2-12.05-.68-2.79-.72-5.64-.33-8.35.76-5.17-.15-10.39.77-15.54.24-1.35.01-2.76-.38-4.15-.81-2.89-.76-5.81.04-8.73.77-2.81.42-5.46-.95-8.11-2.46-4.73-5.79-8.81-9.19-12.83-5.51-6.52-5.55-6.86.52-13.2,3.12-3.26,5.56-7.06,8.23-10.67,1.48-2,1.59-4.22,1.07-6.55,3.36-2.56,1.13-5.11.11-7.77-.43-1.11-.19-2.46-.34-3.68-.42-3.46.84-6.74,1.05-10.16.36-5.71-2.19-11.37-.16-17.06.1-.27,0-.62-.07-.92-1.25-5.22-1.26-10.43,0-15.66.26-1.06.06-2.14-.29-3.21-1.96-6.07-4.15-12.03-6.88-17.81-.62-1.31-1.25-1.86-2.69-2.02-3.69-.41-7.33-1.36-10.36-.92Z"/>
      <path class="cls-2" d="M1128.29,0c7.52,4.16,13.2,11.35,14.78,18.89-1.32.16-1.82-.94-2.56-1.54-2.21-1.79-4.54-3.3-7.51-3.33-4.48-.04-6.41,2.21-5.77,6.68,1.46,10.21,2.71,20.44,3.99,30.67,1.23,9.81,2.78,19.61,5.52,29.14,1.55,5.37,4.06,10.24,9.05,13.37.78.49,1.41,1.22,2.08,1.87,3.89,3.74,3.84,3.71.71,7.89-1.49,1.98-2.77,4.13-4.16,6.18-1.31,1.94-1.48,4.13-1.11,6.29,1.68,9.74,3.53,19.46,5.21,29.2,1.74,10.05,3.32,20.13,5.03,30.18.67,3.96,1.34,7.92,1.97,11.89.96,6.01,8.44,8.44,13.13,4.48,1.15-.97,1.9-2.51,3.52-2.78.58.26.81.76.55,1.13-3.44,4.83-7.2,9.36-12.28,12.59-1.44.91-2.96,1.73-4.51,2.43-3.12,1.4-6.11,1.99-9.15-.56-1.75-1.47-3.93-2.98-6.08-3.28-2.26-.31-3.93,2.15-5.94,3.28-8.11,4.57-17.98,2.47-23.53-5.09-1.5-2.04-3.59-3.75-4.2-6.73,3.62.11,6.3,2.28,9.5,2.81,4.71.78,7.09-1.63,6.5-6.48-.41-3.35-.74-6.85-1.41-10.04-.88-4.2,0-8.8-2.95-12.77-2.09-2.81-2.07-6.76-2.49-10.28-.24-2-.36-3.98-.84-5.96-1.02-4.24-.91-4.21-4.95-4.36-6.74-.24-13.53.52-20.18-1.56-2.48-.78-4.64,1.41-7.01,2.06-1.65.45-1.43,2.8-1.74,4.5-1.59,8.51-3.19,17.03-5.55,25.38-1.19,4.19-2.06,8.41-1.88,12.82.21,5.24,2.99,7.19,7.99,5.73,1.52-.44,2.68-1.54,4.46-1.96.61,1.76-.36,2.95-1.33,4.04-3.43,3.85-7.28,7.21-11.72,9.88-1.48.89-2.92.89-4.48.51-3.64-.89-7.25-1.86-9.86-4.85-1.1-1.26-2.23-1.55-3.58-.28-.55.52-1.33.8-1.96,1.26-4.15,3.04-8.55,3.95-13.62,2.42-4.85-1.47-9.26-3.44-12.76-7.22-1.38-1.49-2.16-2.99-1.44-5.13,1.31-.52,2.27.53,3.36.9,7.26,2.5,12.12.43,14.94-6.69.96-2.42,2.05-4.86,2.01-7.61-.03-2.05.81-3.96,1.7-5.77,3.82-7.82,4.41-16.41,5.59-24.79.5-3.58,1.25-7.08,2.38-10.37,2.38-6.93,3.22-14.18,5.05-21.21,1.41-5.38-1.46-9.6-4.53-13.63-.47-.62-1.09-1.11-1.62-1.69-2.35-2.55-2.31-2.52.14-5.2,3.68-4,7.85-7.49,11.3-11.77,2.27-2.82,3.36-6.08,4.03-9.23,2.32-10.91,5.67-21.56,7.96-32.47,1.24-5.9,2.29-11.88,3.07-17.79.86-6.5-2.61-11.34-10.52-8.4-.72.27-1.42.58-2.02.83-.84-.49-.86-1.05-.55-1.66,3.68-7.33,9.59-12.5,17.31-14.49,3.79-.98,8.47-.48,12.5,1.58,3.74,1.91,7.19,4.19,10.5,7.17,4.31-4.51,8.47-8.92,14.32-11.05h5.61ZM1101.68,61.81c-1.13,4.26-1.72,8.72-4.42,12.47-.65.9-.53,2.08-.81,3.11-1.44,5.21-.45,10.79-2.74,15.92-1.56,3.51-2.49,7.32-3.47,11.06-.98,3.73-1.77,7.51-2.49,11.3-.48,2.51,1.41,4.92,3.55,4.6,3.85-.57,7.73.06,11.42.61,2.78.41,4.76-.42,7.05-1.18,1.29-.43,1.67-1.13,1.42-2.43-1.7-8.94-2.71-17.97-3.72-27-.3-2.69-.25-5.36-1.06-8.06-2-6.63-3.93-13.31-4.73-20.38Z"/>
      <path class="cls-2" d="M959.09,0c3.06,1.38,6.57,1.29,9.48,3.3,5.53,3.82,10.01,8.42,13.36,15.55-3.99-1.61-6.78-3.18-10.14-3.01-5.82.3-8.97,4.37-8.31,10.24.74,6.48.62,13.01-1.35,19.37-.54,1.74-.64,3.44-.46,5.4.69,7.31.86,14.67,1.12,22.01.1,2.69-.82,5.14.05,8.13,1.54,5.3,5.04,8.7,8.65,12.29,3.35,3.32,3.24,3.34.22,6.73-2.99,3.35-5.82,6.84-8.03,10.8-1.49,2.68-2.33,5.54-1.65,8.5,1.59,6.95.77,13.96.6,20.91-.1,4.17.62,8.29.18,12.45-.8,7.59.86,15.08,1.09,22.64.17,5.96,3.36,10.26,11.53,10.78,8.48.54,12.71-4.67,16.47-10.78,1.79-2.91,3.38-5.99,4.59-9.18,2.01-5.33,1.65-10.84.56-16.36-1.24-6.32-.48-12.71-.47-19.07,0-2.33,1.83-3.34,4.96-2.52,3.09.81,6.15.75,9.25.78,2.64.03,5.22-.16,7.85-.78,3.12-.74,4.06.1,3.96,3.24-.17,5.57.73,11.18-.77,16.71-.35,1.29-.31,2.89.11,4.15.82,2.45.59,4.92.72,7.39.51,9.55-2.4,17.94-7.96,25.68-2.35,3.27-4.09,6.96-7.19,9.67-5.18,4.51-10.65,8.42-17.89,8.69-.47.02-1.06-.09-1.37.15-5.59,4.17-12.34,2.48-18.5,3.33-5.61.77-11.34-1.18-16.61-3.64-1.97-.92-3.98-1.81-5.84-2.94-2.71-1.65-5.77-1.76-8.34-.73-4.14,1.65-8.02.74-11.87-.17-7.95-1.89-14.91-6.06-21.78-10.32-.55-.34-1.04-.84-.93-1.48.17-.98,1.08-.87,1.83-1.01,2.41-.43,4.58.7,6.88.99,4.9.63,9.35-2.08,10.35-6.82,1.34-6.36,2.12-12.76.36-19.2-.28-1.02-.32-2.19-.14-3.24,1.31-7.72,1.17-15.4.05-23.15-.44-3.02-.6-6.22.33-9.26.34-1.11.3-2.1-.09-3.17-.65-1.81-.78-3.84-.23-5.53,1.4-4.27-.52-7.67-2.62-10.85-1.43-2.16-2.85-4.46-4.95-6.16-1.73-1.4-2.05-2.6-.35-4.59,3.32-3.89,6.26-8.1,8.33-12.86.75-1.73,1.24-3.21.71-5.29-1.02-4.01-1.64-8.04-.54-12.36.77-3.02.7-6.49-.38-9.69-.51-1.51-.48-3.09-.09-4.61,1.06-4.15.93-8.25.08-12.43-.43-2.1-.25-4.33-.33-6.5-.14-3.74-.68-7.41-2.41-10.78-2.88-5.61-7.19-6.88-12.79-4.04-1.22.62-2.12,1.87-3.62,1.93-.85-.71-.43-1.44-.03-2.08,2.97-4.78,6.13-9.32,11.76-11.42,1.57-.58,2.89-1.82,4.41-2.58,7.31-3.65,14.45-3.45,20.97,1.68,1.95,1.53,3.1,1.58,4.61-.22,2.31-2.75,5.88-3.18,8.88-4.69h3.74Z"/>
      <path class="cls-1" d="M662.76,1227.84c.93-1.2,1.87-1.18,2.8,0h-2.8Z"/>
      <path class="cls-1" d="M567.42,1227.84c.62-.98,1.25-.95,1.87,0h-1.87Z"/>
      <path class="cls-2" d="M1610.63,712.96c-2.51.16-3.81-.92-3.73-3.54.06-1.87-.09-3.74.03-5.6.24-3.94-.1-7.52-2.87-10.83-2.43-2.9-2.6-6.95-3.36-10.54-1.21-5.74-2.16-11.56-2.21-17.47-.03-2.96-1.05-5.77-1.12-8.75-.05-2.1-1.54-3.28-3.85-3.07-1.08.1-2.18.04-3.27,0-5.11-.16-10.26.52-15.32-.86-1.02-.28-2.22-.28-3.25-.04-7.72,1.8-14.96-1-22.35-2.29-1.26-.22-2.39-.69-3.5.26-2.37,2.04-5.39,2.37-8.26,2.83-1.96.32-2.39,1.12-2.72,2.94-2.63,14.45-5.29,28.89-8.84,43.15-1.49,6.01-3.39,11.93-4.69,17.97-1.47,6.82-1.75,13.85-1.33,20.84.25,4.11,3.85,7.41,8.05,7.7,4.44.3,8.7-.22,12.38-3.07.71-.55,1.49-1.12,2.75-.75.53,2.67-1.05,4.75-2.42,6.69-2.78,3.93-5.96,7.47-9.98,10.32-3.42,2.43-6.96,4.67-10.38,7.1-3.69,2.63-7.89,2.54-12.11,1.83-6.67-1.12-12.15-4.52-16.95-9.13-3.09-2.97-3.07-2.96-6.48-.55-1.65,1.16-2.99,2.65-4.71,3.79-8.82,5.84-18.18,5.52-27.68,2.49-7.47-2.38-14.57-5.62-19.64-11.94-2.49-3.11-4.91-6.39-4.25-10.98,2.11-.14,3.27,1.35,4.72,2.04,5.29,2.49,10.89,2.53,16.48,2.1,4.13-.32,7.07-3.13,9.52-6.21,3.84-4.83,6.87-10.44,7.35-16.42,1.04-12.84,7.7-23.74,11.11-35.72.48-1.67.97-3.05.42-4.88-1.06-3.57.48-7.03,1.16-10.5.6-3.04,1.57-6,2.22-9.03.51-2.38,1.4-4.65.55-7.3-.46-1.41.41-3.31.85-4.93,3.08-11.21,6.21-22.4,9.32-33.59.17-.6.55-1.21.48-1.78-.82-7.24,2.91-13.73,3.43-20.78.15-1.98.07-3.62-.79-5.33-3.34-6.71-7.68-12.75-12.59-18.37-2.7-3.09-2.74-3.28-.55-6.8.75-1.21,1.63-2.26,2.62-3.26,4.15-4.21,8.76-7.87,13.3-11.63,1.56-1.29,2.98-2.68,4.11-4.42,1.78-2.73,3.74-5.33,5.63-7.99.27-.38.71-.75.75-1.16.61-5.74,4.17-10.54,4.88-16.34.64-5.18,2.31-10.26,3.73-15.33,5-17.74,9.18-35.68,12.54-53.79,1.32-7.13,2.23-14.34,3.61-21.48.77-3.97-.3-8.36-2.48-12.04-1.7-2.88-4.37-4.59-7.66-5.71-2.93-1.01-5.18.13-7.57,1.12-2.56,1.06-4.97,2.52-7.78,2.85-.96-.99-.14-1.8.25-2.51,4.42-7.97,10.33-14.73,17.06-20.81.56-.51,1.31-.83,1.98-1.21,4.15-2.32,8.87-3.27,13.11-5.48,2.32-1.21,5.43-1.84,7.62,1.04.59.77,1.38.92,1.75-.09.71-1.94,1.91-1.27,3.37-1.09,10.45,1.26,19.08,6.15,26.75,13.05.23.21.45.43.7.62,4.04,3.2,4.42,3.05,7.64-1.09,5.33-6.85,11.76-12.46,19.97-15.57,8.76-3.32,16.48-.89,23.29,5.06,6.64,5.8,11.43,13.06,15.85,20.59.08.13.24.25.26.39.3,2.89,2.34,5.39,1.9,8.44-3.38.15-4.32-3.03-6.25-4.75-5.23-4.65-11.34-5.76-17.84-4.56-4.77.87-7.42,6.02-6.48,11.02,1.37,7.29,2.27,14.7,4.13,21.86.84,3.25-.59,4.68-2.46,6.14-2.73,2.13-2.83,1.99-1.65,6.1,1.42-.69.83-2.28,1.55-3.17.53-.65,1.16-1.1,1.99-.95.91.16,1.13.9,1.24,1.73.61,4.59,1.35,9.17,1.85,13.78.71,6.61,1.66,13.17,2.57,19.75.96,6.89,1.89,13.78,3.1,20.63,1.93,10.98,3.93,21.96,7.59,32.52,1.26,3.64,2.76,7.32,6.33,9.55,1.61,1.01,1.81,2.83,2.31,4.44.62,1.98,1.39,3.63,3.54,4.54,4.82,2.04,8.46,5.69,12.12,9.3,1.75,1.73,2.05,3.14.39,5.18-3.82,4.69-7.28,9.66-10.45,14.82-.16.26-.37.5-.57.74-3.91,4.65-3.38,9.93-2.4,15.39,2.21,12.32,4.24,24.66,6.4,36.99,1.73,9.89,3.58,19.76,5.28,29.66,1.73,10.05,3.28,20.13,5.01,30.19,1.7,9.9,3.58,19.76,5.28,29.66.45,2.6.61,5.23,1.64,7.7,4.18,10.05,12.7,11.53,21.06,7.55,3.71-1.76,6.41-4.88,9.23-7.77,1.13-1.16.78-2.06-.03-3.25-1.4-2.04-2.59-4.23-3.83-6.38-.3-.51-.64-1.11.16-1.89,1.7.4,3.09,1.62,4.48,2.73,4.92,3.89,10.37,6.78,16.2,9.03,4.07,1.58,8.31,1.22,12.46.88,2.64-.21,4.08-2.62,5.4-4.75,2.01-3.23,3.14-6.92,3.41-10.56.33-4.48.92-8.94,1.15-13.42.11-2.16,0-4.3.67-6.46.45-1.42.46-3.16.09-4.61-.92-3.55-1.16-7.02.01-10.54.36-1.08-.15-2.12-.41-3.18-.96-3.91-1.75-7.86-2.72-11.76-.31-1.26-.26-2.38-.03-3.64,1.16-6.38,2.15-12.79,3.27-19.18.37-2.11-.97-3.92-.85-5.95.31-5.41-.8-10.88.78-16.24.7-2.37-.49-4.64-.93-6.85-.96-4.8-.73-9.59-.78-14.39-.04-3.27-.02-6.54,0-9.81,0-1.09-.33-2.47.21-3.21,2.91-4.04-.12-6.11-2.5-8.53-4.89-5-9.3-10.41-13.34-16.1-3.12-4.39-2.99-4.97.71-8.69,4.83-4.85,9.28-10.01,13-15.78,1.27-1.97,2.4-3.99,3.01-6.27.12-.45.31-.88.5-1.31.93-2.03-2.88-3.18-.97-5.44,1.56-1.84.87-3.89.02-5.7-1.24-2.63-.21-4.34,1.62-6.16,1.46-1.46,3.52-2.54,4.03-4.86-.47-.16-.82-.42-1.01-.33-4.34,2.03-5.25,1.58-5.27-2.99-.05-14.79-.04-29.59,0-44.38,0-3.26.71-6.49,1.22-9.66.47-2.89.4-5.48-.33-8.19-.45-1.64-1.41-3.34-.85-4.99,1.67-4.88.81-9.98,1.6-14.92.72-4.49-2.96-12.64-6.88-15.03-.4-.24-.82-.56-1.26-.6-7.51-.63-15.27-2.52-21.57,3.68-2.11,2.08-4.87,3.27-6.65,5.77-1.4-1.69-.3-2.76.25-3.69,5.73-9.51,12.46-18.18,21.66-24.64,4.92-3.46,10.46-4.73,16.36-4,3.67.45,7.34,1.19,10.92,2.13,4.99,1.31,9.76,3.24,13.64,6.79,1.32,1.2,2.29,1.18,3.57-.02,1.35-1.27,2.85-2.4,4.4-3.43,3-2.01,6.21-3.57,9.92-3.67,2.03-.06,3.74-.09,5.38-1.94,1.76-1.99,4.87-2.21,7.37-2.43,3.74-.33,6.88-1.77,10.03-3.43,2.9-1.53,5.72-2.7,8.43.33.91,1.02,1.95.52,3,.13,3.05-1.11,6.11-2.07,9.46-1.14.98.27,2.22.09,3.22-.25,5.61-1.92,11.32-1.86,16.94-.47,4.66,1.15,9.47,1.72,13.94,3.58,1.58.66,3.42,1.09,4.59,2.2,1.8,1.71,3.33,3.2,6.01,1.89.36-.18,1.11.37,1.65.63,5.19,2.54,9.9,5.83,14.22,9.62,4.12,3.61,7.57,7.9,9.96,12.8,2.69,5.48,6.22,10.37,9.62,15.37.26.39.4,1.03.74,1.16,4.64,1.7,5.37,6.44,7.54,9.95,2.27,3.68,4.37,7.48,6.15,11.48,3.92,8.83,7.25,17.83,9.31,27.27,1.59,7.26,2.97,14.57,2.68,22.06-.1,2.54.36,4.93,1.15,7.31,2.88,8.71,4.08,17.76,5.45,26.78.52,3.38,1.09,6.73.92,10.16-.09,1.78,1.22,2.78,2.3,3.88,4.37,4.42,8.77,8.8,12.77,13.58,1.55,1.85,1.39,2.75.03,4.65-5.31,7.45-10.55,14.97-15.1,22.92-.76,1.34-1.27,2.83-1.85,4.26-.17.42-.11,1.24-.32,1.3-4.26,1.23-2.34,4.69-2.46,7.2-.19,4.17.02,8.31.69,12.51.88,5.56-1.2,11.02-2.08,16.5-1.9,11.91-4.27,23.74-7.12,35.46-1.46,6.03-2.89,12.13-5.57,17.72-1.93,4.02-3.65,7.74-4.18,12.42-.66,5.92-3.54,11.53-6.63,16.81-5.56,9.53-11.91,18.51-18.78,27.12-2.51,3.15-5.28,6.1-7.99,9.08-3.74,4.11-8.51,6.62-13.56,8.79-11.91,5.1-24.38,8.12-37.05,10.48-1.23.23-2.31.38-3.61.18-4.77-.75-9.57-.89-14.34.17-4.99,1.11-9.56-.84-14.03-2.41-10.85-3.82-21.38-8.47-31.58-13.81-1.9-.99-3.41-1.32-5.52.08-4.07,2.69-8.99,3.27-13.69,4.24-9.47,1.96-18.44-.21-27.17-3.69-6.11-2.44-11.44-6.2-16.5-10.37-2.42-1.99-3.53-5.13-6.41-7.04-3.12,3.66-6.35,7.14-9.25,10.88-6.51,8.41-14.62,14.64-24.36,18.88-3.24,1.41-6.54,1.81-10,1.7-3.19-.11-5.26-2.5-7.93-3.67-2.55-1.11-5.1-2.43-7.28-4.13-2.29-1.79-4.22-1.61-6.27,0-3.07,2.43-6.57,4.17-9.98,5.99-10.45,5.58-20.88,5.03-30.96-1-8.37-5.01-14-12.62-18.89-20.83-.23-.39-.34-.84.14-1.5,3.2.14,6.02,1.95,8.95,3.14,3.49,1.42,7.11,2.27,10.71,3.06,6.59,1.45,12.1-3.99,11-10.65-.88-5.33-1.79-10.69-2.96-15.95-.68-3.05-.17-5.32,1.22-7.76.33-.23,1.38.4.93-.68-.09-.22-.73.25-.94.67ZM1871.27,634.84c-3.36-.43-3.49-2.6-3.62-5.15-.55-10.89,1.23-21.7,1.05-32.58-.1-5.97-1.64-11.3-5.31-16.01-.58-.74-1.33-1.45-1.23-2.43.44-4.5-3.85-5.87-6.05-8.35-1.58-1.78-3.94-3.36-5.81-5.16-2.62-2.53-2.67-2.75-.12-5.14,7.46-6.96,12.92-15.44,18.59-23.78,1.62-2.39,1.97-4.62,1.33-7.42-1.55-6.8-2.51-13.67-2.44-20.7.15-14.48-.06-28.95.08-43.43.07-6.86-.48-13.68-2.07-20.28-2.47-10.22-8.57-17.65-19.19-20.06-6.54-1.48-13.15-3.49-20.04-2.05-.58.12-1.41.15-1.82-.17-2.95-2.36-5.86-.41-8.8-.1-2.5.26-3.23,1.44-3.35,3.94-.22,4.81,2.83,9.76-.52,14.45-.06.09.03.3.07.45,1.04,3.67.3,7.43.52,11.14.19,3.24.2,6.45.65,9.71.66,4.84.54,9.87-2.94,14.07-1.18,1.42-2.71,3.14.19,4.61.3.15.26,1.17.24,1.78-.46,12.57,1.04,25.18-.83,37.71-.14.95.25,1.82.42,2.73.79,4.24,2.26,8.45.85,12.82-.42,1.3.26,2.08,1.05,2.85,6.14,5.95,11.09,12.97,17.12,19.02,5.11,5.14,5.01,6.23.09,11.36-3.22,3.36-7.72,5.71-8.68,10.97-.19,1.05-1.51,1.92-2.37,2.81-1.74,1.79-3.52,3.53-5.28,5.28-.94.93-1.72,1.89-.58,3.19,1.53,1.74,1.24,3.88.85,5.8-1.13,5.56-1.2,11.06.02,16.6.33,1.51.36,3.13-.47,4.55-1.76,3.04-1.23,6.27-1.03,9.54.26,4.38,2.71,8.57,1.5,13-.97,3.55-.71,7.09-.79,10.65-.1,4.74,1.39,9.48.02,14.24-.16.57-.16,1.3.04,1.85,2.27,6.18-.27,12.3-.31,18.45-.03,4.79-2.1,9.57.05,14.38.33.75-.09,1.56-.53,2.2-1.1,1.6-.44,3.19-.31,4.88.31,4.13,2.23,8.06,1.12,12.41-.93,3.66,1.75,6.76,5.75,6.9,3.19.11,6.47.62,9.55.35,5.35-.48,10.8-.98,15.98-2.64,2.34-.75,4.85-1.34,6.75-3,5.48-4.79,9.25-10.64,11.41-17.69,2.45-7.96,3.18-16.37,6.39-24.12.41-1,.17-2.14-.09-3.22-1.04-4.29-1.02-8.6-.05-12.89.32-1.4.26-2.72-.01-4.13-1.57-8.13-.36-15.96,2.96-24.18ZM1571.84,494.4c-.74,1.51-1.16,3.07-1.47,4.76-1.1,6.04-1.49,12.4-6.36,17.06-.7.67-.93,1.54-1.04,2.51-.56,4.6-1.33,9.15-2.5,13.65-.68,2.6-1.54,5.43-.05,8.12.82,1.49-.06,2.65-.51,3.95-2.26,6.6-4.47,13.2-6.5,19.88-3.07,10.08-5,20.43-7.86,30.55-.68,2.43-1.46,4.89,1.06,7.52,2.86,2.99,2.82,3.7,6.68,2.72,1.71-.44,3.36-.7,5.05-.35,6.97,1.44,14.17,1.01,21.14,2.5.56.12,1.37.03,1.78-.31,1.91-1.57,4.3-1.77,6.52-2.26,2.19-.48,2.16-1.37,1.78-3.27-.94-4.68-1.93-9.42-2.17-14.17-.4-8.06-2.5-15.86-3.12-23.88-.54-7-2.81-13.86-1.69-21.01.17-1.06-.08-2.14-.42-3.2-.94-2.95-1.77-5.94-2.64-8.91-3.46-11.72-6.22-23.58-7.67-35.86Z"/>
      <path class="cls-2" d="M1218.96,510.19c-1.89-.02-2.93,1.65-4.52,2.28-1.66.65-2.55.37-3.15-1.42-.55-1.66-1.05-3.36-.7-5.02,1.22-5.82-.04-11.61-.03-17.4,0-2.47.07-4.91.64-7.39.55-2.37.8-5.13.12-7.4-1.68-5.65-.51-11.17.44-16.58.75-4.29.74-8.33-.48-12.37-.62-2.05-.59-3.83,0-5.87.9-3.1,1.9-6.29.52-9.57-.17-.41-.28-.98-.13-1.36,2.07-5.17-.66-9.35-2.78-13.65-1.37-2.79-3.64-4.18-6.72-4.21-3.43-.04-6.85-.06-10.28,0-3.97.07-7.07,2.08-9.86,4.67-1.71,1.59-3.33,3.27-5.04,4.87-.46.43-1.14.68-1.59,0-.22-.33-.25-.89-.16-1.3.1-.43.43-.81.68-1.2,4.77-7.27,9.65-14.47,15.92-20.56,2.45-2.38,5.2-4.38,8.22-6.05,5.29-2.92,10.72-3.12,16.66-2.31,8.36,1.14,15.97,3.74,22.84,8.54,1.15.81,1.81.49,2.85-.12,2.15-1.26,3.81-3.18,6.14-4.21,3.26-1.42,6.26-3.58,10.13-2.92,1.13.19,2.17-.25,2.94-1.11,2.27-2.53,5.49-3.02,8.48-3.35,2.74-.3,5.08-1.22,7.47-2.35,1.82-.86,3.7-1.64,5.62-2.24,1.5-.47,3.26-.64,4.36.73,1.87,2.33,3.88,1.24,5.86.51,1.7-.62,3.24-2.01,5.08-.2.78.76,1.75,0,2.64-.19,1.97-.42,3.95-.79,5.93-1.14,9.61-1.73,25.75,1.77,33.68,7.37.94.66,1.83,1.36,2.95.8,1.52-.77,2.73-.05,3.93.63,10.52,5.87,19.44,13.4,24.81,24.46,2.19,4.5,5.29,8.4,7.9,12.63.24.39.55.82.94,1.03,4.9,2.64,6.32,7.83,8.72,12.2,3.82,6.94,7.33,14.05,9.98,21.56,2.64,7.46,4.52,15.11,5.92,22.89,1.15,6.42.84,12.97,1.92,19.38.51,3.04,1.61,5.98,2.3,8.99,1.98,8.59,3.4,17.28,4.18,26.07.37,4.15,1.72,7.81,4.75,10.79,3.11,3.06,6.49,5.92,9.14,9.34,3.33,4.29,3.51,3.55.38,8.25-5.49,8.24-12.08,15.83-15.52,25.34-.21.57-.56,1.5-.92,1.55-3.33.38-2.5,2.87-2.47,4.83.1,5.09-.51,10.19,1.4,15.22.68,1.79-.2,4.24-.59,6.35-3.08,16.56-5.64,33.23-10.11,49.51-1.81,6.59-3.58,13.19-7.63,18.85-.68.96-.9,1.97-.84,3.07.36,6.84-2.61,12.78-5.61,18.5-6.21,11.86-14.42,22.4-22.77,32.81-7.59,9.46-17.69,14.96-29.17,18.23-8.64,2.47-17.27,4.96-26.13,6.55-.75.14-1.55.57-2.24.43-6.02-1.24-12-1-18.01.15-2.83.54-5.53-.57-8.2-1.34-7.48-2.16-14.58-5.3-21.67-8.48-4.96-2.23-9.87-4.57-14.78-6.91-1.46-.69-2.73-1.22-4.3-.03-4.1,3.13-9.13,3.93-14,4.6-17.3,2.37-31.96-3.29-44.39-15.3-4.62-4.46-8.59-9.39-11.54-15.1-.44-.86-2.03-1.61-.82-2.72,1.02-.93,2,.08,2.8.82,4.06,3.7,8.85,6.25,13.65,8.82,5,2.68,10.28,3.32,15.79,3.03.94-.05,1.88-.08,2.65-.71,2.96-2.4,5.6-5.18,6.28-9,1-5.62,2.41-11.21,2.05-17.02-.23-3.72,1.38-7.31.95-11.09-.26-2.3.17-4.65-.73-6.91-.33-.82-.47-1.97-.16-2.75,2.04-5.09-.26-9.79-1.32-14.54-.77-3.43-.51-6.7-.17-10.12.61-6.31,2.93-12.4,2.35-18.85-.32-3.54-1.27-7.01-.97-10.63.22-2.62.12-5.21.74-7.85,1.01-4.32-.46-8.61-1.2-12.86-.38-2.19-.14-4.29-.16-6.43-.04-3.62,1.36-7.25.04-10.84-.84-2.27,0-4.36.83-6.32.87-2.06.33-3.34-1.01-4.99-4.79-5.89-10.51-11-14.71-17.39-.59-.91-1.13-1.88-1.87-2.66-1.85-1.95-1.13-3.37.43-5.18,5.15-5.98,10.66-11.68,14.92-18.41,1.19-1.88,1.77-3.95,2.72-5.89,1.09-2.23-1.72-3.26-1.38-5.04.33-1.74,2.43-3.15,1.35-5.15-2.88-5.31.48-8.29,4.04-11.17,1.19-.96,2.83-1.46,2.78-3.4.33-.23,1.38.39.92-.68-.09-.22-.73.25-.94.67ZM1275.64,479.42c3.94-.43,4.27,1.26,3.97,3.42-.13.91-.64,1.72-.49,2.72,1.32,9.13.26,18.32.57,27.47.03.76-.03,1.59-.3,2.29-1.55,3.96-.93,7.82.13,11.78.46,1.75,1.78,3.66.93,5.4-1.65,3.41.11,5.84,2.11,7.94,5.89,6.18,11.33,12.76,17.08,19.06,3.08,3.38,3.21,4.37.07,7.76-1.37,1.47-2.9,2.77-4.51,4.01-2.41,1.84-4.52,3.81-5.52,7.15-1.11,3.68-4.14,6.47-7.5,8.63-1.09.7-2.74,1.49-1.71,3.23,2.19,3.67,1.19,7.52.66,11.27-.33,2.35-.49,4.55,0,6.89.74,3.5,1.42,7.29-.33,10.5-2.35,4.3.66,8.49-.49,12.64,2.52,5.2,1.32,10.62.75,15.94-.22,2.02-.82,4.17-.28,5.99,1.78,5.94-.53,11.91.67,17.91.81,4.02.05,8.3-.7,12.47-1.22,6.81-.6,13.77-1.02,20.66-.16,2.74.15,5.66.77,8.09.65,2.52,1.06,4.6.32,7.08-.66,2.18.17,4.09,2.22,5.12,1.94.97,3.84,3.07,6.27.79.46-.44,1.18-.24,1.77.03,3.9,1.81,8.05.98,11.83.22,7.35-1.48,15.74-1.23,20.14-9.29.07-.12.25-.18.38-.27,1.96-1.41,3.12-3.4,4.13-5.54,4.87-10.35,5.9-21.77,9.16-32.57-.8-6.46-.48-12.91-.08-19.38.12-1.96-1.26-3.9-.8-5.94,1.1-4.82.72-9.89,2.57-14.59.62-1.58,1.79-3.46-1.27-4.3-1.56-.43-1.22-2.28-1.35-3.67-.41-4.53.84-8.95.91-13.43.11-7.47-.07-14.95.09-22.41.09-4.08-1.28-7.61-3.19-11.03-1.29-2.31-4.07-4.07-2.62-7.37.09-.19-.16-.77-.32-.8-3.05-.59-3.7-4.16-6.27-5.14-2.81-1.08-4.31-3.49-6.34-5.35-1.25-1.14-1.19-2.57.06-3.67,2.24-1.97,3.7-4.59,5.73-6.72,5.83-6.1,10.11-13.31,14.72-20.29.44-.67.97-1.37.6-2.12-.94-1.89-.61-3.97-.97-5.94-1.27-6.99-2.59-13.96-2.46-21.17.25-13.54.07-27.08.07-40.63,0-5.43.04-10.84-.92-16.23-2.12-11.88-7.78-20.68-21.26-24.11-7.78-1.98-15.87-.23-23.38-3.19-.46-.18-1.17.32-1.77.47-1.5.38-3.01.76-4.52,1.1-3.32.76-3.99,1.4-3.1,4.6.91,3.25,1.29,6.65.56,9.68-1.5,6.3-.33,12.57-.77,18.83-.07,1.08-.09,2.21.16,3.25,1.73,7.32,1.39,14.18-5.19,20.78Z"/>
      <path class="cls-2" d="M558.65,414.91c-.12-.87-.31-1.25-.19-1.45,5.49-9.24,11.4-18.13,20.85-23.92.65-.4,1.39-.69,2.12-.91,2.92-.87,5.73-1.77,8.48-3.32,2.64-1.49,6.38-3.24,8.94,1.01.45.74,1.64.49,1.92-.29.73-2.09,1.96-1.58,3.67-1.38,10.68,1.22,19.26,6.52,27.05,13.46.23.21.44.45.67.65,2.96,2.5,4.32,2.56,6.43-.53,2.41-3.52,5.47-6.4,8.57-9.19,3.32-3,7-5.52,11.32-7.16,8.39-3.18,16.05-1.85,22.76,3.65,7.8,6.39,13.35,14.69,17.77,23.68,1.05,2.13,1.67,4.59,1.61,7.29-2.27-.29-3.28-2.03-4.45-3.33-4.61-5.15-10.34-7.12-17.13-6.73-6.4.37-10.43,5.48-9.15,11.68,1.41,6.81,2.68,13.65,3.95,20.49.2,1.06.03,2.18.13,3.26.16,1.73-1.67,2.62-1.71,4.24-.04,1.73,2.6,1.31,2.52,2.98-.16,3.14.72,6.15,1.08,9.22.78,6.59,1.73,13.17,2.51,19.76.81,6.91,1.91,13.78,3.06,20.64,2.26,13.44,4.53,26.87,9.26,39.74.84,2.27,1.84,4.41,3.8,5.72,2.4,1.6,3.46,3.99,4.23,6.44.64,2.06,1.57,3.23,3.57,4.26,4.71,2.41,8.8,5.79,12.47,9.64,1.47,1.54,1.42,2.79.06,4.44-3.46,4.18-6.82,8.45-9.58,13.15-1.49,2.54-3.02,5.07-4.51,7.61-.94,1.59-.78,3.39-.45,5.01,2.39,11.66,3.91,23.47,6.17,35.15,2.64,13.65,4.52,27.44,6.86,41.16,2,11.73,4.21,23.42,6.23,35.14,1.42,8.22,2.53,16.5,4.02,24.71,2.02,11.12,12.93,16.87,23.38,10.31,2.54-1.6,5.38-3.23,6.79-6.24.19-.39.6-.71.96-.98.53-.39,1.17-.46,1.73-.09.71.47.42,1.1.06,1.61-1.34,1.9-2.62,3.86-4.09,5.65-7.63,9.29-15.97,17.75-27.15,22.88-2.3,1.06-4.7,1.73-7.11,2.08-3.39.49-6.66.2-9.73-2.09-3.09-2.3-6.87-3.66-10.03-5.89-2.14-1.51-3.72-1.05-5.5.13-3.89,2.58-8.02,4.74-12.11,6.98-10.09,5.53-26.26,2.98-34.55-5.63-4.76-4.94-9.62-9.73-12.98-15.78-.41-.75-1.58-1.41-.64-2.36.79-.8,1.72-.1,2.57.25,5.31,2.18,10.65,4.14,16.29,5.45,7.23,1.67,13.2-3.06,11.62-11.31-1.08-5.62-2.09-11.24-3.02-16.88-.2-1.19.02-2.48.22-3.69.13-.78.55-1.66-.23-2.11-2.62-1.53-1.87-4.03-1.95-6.28-.07-1.87-.1-3.74,0-5.6.16-2.91-.37-5.31-2.69-7.53-2.96-2.83-2.86-7.12-3.67-10.85-1.7-7.87-2.23-15.91-2.98-23.91-.4-4.25-1.83-5.72-6.05-5.84-5.58-.16-11.16.4-16.73-.79-2.5-.53-5.35-.68-7.86.29-3.24,1.26-6.09-.52-9.12-.8-2.13-.2-4.22-.98-6.32-1.48-3.02-.73-5.85-1.44-8.58,1.32-1.12,1.13-3.47,1.25-5.3,1.38-2.01.14-2.57,1.11-2.88,2.87-1.12,6.39-2.25,12.78-3.58,19.13-2.79,13.33-5.34,26.72-9.41,39.76-1.2,3.84-1.75,7.83-1.81,11.89-.05,2.94.27,5.87-.46,8.82-1.08,4.36,3.34,9.71,7.89,10.17,4.88.49,9.23-.74,13.23-3.46.63-.43,1.16-1.07,2.25-.74,1.14,2.09-.3,3.68-1.25,5.38-4.34,7.74-11.53,12.41-18.53,17.29-4.19,2.93-8.7,4.83-13.94,3.86-5.74-1.06-11.01-3.23-15.47-7.12-.59-.51-1.09-1.11-1.67-1.63-4.22-3.78-4.2-3.72-8.58-.02-8.54,7.21-18.37,8.87-28.86,5.8-6.84-2-13.53-4.71-19.12-9.39-4.32-3.61-7.01-8.08-7.03-13.92,1.73-.25,2.72.63,3.81,1.16,5.19,2.53,10.68,3.21,16.35,2.71,3.72-.33,6.89-2.06,9.31-4.8,4.71-5.35,8.45-11.8,8.84-18.62.45-7.93,3.91-14.52,6.18-21.66,1.5-4.73,3.31-9.36,4.96-14.05.3-.87.84-1.9.63-2.67-1.86-6.73,1.25-12.82,2.37-19.14.56-3.15,2.13-6.12.93-9.48-.26-.73.34-1.78.58-2.67,3.19-11.5,6.37-23,9.61-34.48.55-1.95,1.4-3.85.49-5.88-.67-1.5.26-2.74.61-4.03,1.44-5.24,2.87-10.47,2.62-15.98-.06-1.24-.05-2.42-.68-3.6-3.44-6.47-7.72-12.36-12.35-18.01-2.39-2.91-2.66-4.54-.17-7.31,3.02-3.35,6-6.92,9.65-9.47,7.06-4.94,12.37-11.36,16.31-18.74,2.19-4.09,2.56-9.14,5.36-13.12.25-13.2,5.97-25.16,8.53-37.85,2.42-11.98,5.93-23.79,7.53-35.86,1.01-7.65,3.55-15.11,3.22-22.95-.15-3.66-.97-7.03-3.15-10.02-3.35-4.58-8.76-5.91-13.97-3.53-2.65,1.21-5.31,2.42-8.51,3.18ZM623.16,494.19c-1.2,1.61-1.25,3.29-1.59,4.94-1.26,6.01-1.76,12.34-6.39,17.1-.68.7-1.05,1.54-1,2.53.13,2.54-.94,4.85-1.4,7.28-.74,3.94-2.63,8.11-1.93,11.78.88,4.62-.82,8.14-1.99,12.08-2.46,8.31-5.13,16.56-7.2,25-1.81,7.36-3.43,14.78-5.55,22.04-.93,3.2.87,4.5,2.05,6.55,1.7,2.95,4.19,2.16,6.56,1.55,1.71-.44,3.35-.45,5.07-.23,4.44.58,8.88,1.17,13.33,1.6,2.31.22,4.66-.14,6.91.77.87.35,1.9.27,2.68-.33,1.78-1.35,3.66-2.31,5.96-2.36,1.13-.03,1.61-.84,1.61-1.89,0-1.24.02-2.5-.15-3.72-1.16-8.41-2.35-16.82-3.55-25.22-.79-5.51-1.63-11-2.1-16.56-.4-4.71-2.47-9.28-.79-14.15.27-.78-.09-1.84-.34-2.72-.65-2.39-1.36-4.77-2.11-7.13-4-12.57-6.7-25.41-8.08-38.9Z"/>
      <path class="cls-2" d="M914.54,416.22c.7-3.42,3.36-5.52,5.38-7.87,5.57-6.47,11.19-12.88,19.17-16.72,6.62-3.18,13.52-3.11,20.53-2.8.59.03,1.22.3,1.74.61,2.97,1.8,5.85,2.69,8.85-.08.58-.54,1.76-.62,2.66-.6,5.58.08,11.19-.52,16.71.88,3.07.78,6,1.69,7.78,4.59.49.8,1.03,1.98,2,1.63,2.15-.77,2.55.58,3.27,2.02.75,1.49,2.16,2.28,3.88,2.03,2.09-.3,3.16.96,4.07,2.47,2.41,3.99,4.82,7.97,7.13,12.01.56.98,1.66,2.12.46,3.37-1.3,1.36-2.24.1-3.19-.59-4.14-3.01-8.88-2.44-13.51-2.15-1.89.12-3.29,1.56-4.73,2.81-5.92,5.16-9.47,11.86-12.37,18.95-6.5,15.85-10.39,32.45-14.05,49.12-2.36,10.72-4.56,21.48-6.83,32.22-.13.6-.49,1.3-.31,1.79,2.35,6.38-.53,12.46-.94,18.68-.32,4.75-.16,9.41,3.42,13.21,3.77,4.02,6.23,8.87,8.52,13.82.94,2.03,1.27,3.37-1.39,4.8-4.03,2.16-6.16,6.46-9,9.92-.89,1.09-1.65,2.34-2.82,3.07-6.59,4.06-10.14,10.45-12.85,17.29-1.81,4.59-3.48,9.3-4.02,14.3-.19,1.76-1,3.29-2.28,4.49-1.48,1.39-1.42,2.59.06,3.9,1.17,1.04,1.34,2.21.84,3.77-.96,3-2.53,5.64-4.15,8.3-1.74,2.86.65,5.95-.35,9.06-2.91,9-5.48,18.1-8.18,27.17-1.01,3.39-2.37,6.71-.96,10.38.35.92.09,2.18-.18,3.21-1.16,4.34-2.41,8.66-3.68,12.97-.47,1.6-1.38,2.77-3.34,2.6-.92-.08-1.86-.01-3.34-.01,1.28,1.38,2.63,1.42,3.75,1.9,3.04,1.3,3.56,2.37,2.07,5.24-1.18,2.28-.98,4.52-.33,6.77.38,1.33.54,2.58-.69,3.34-1.84,1.13-1.67,2.81-1.65,4.51.13,8.56,4.6,16.96,12.37,19.57,2.72.91,5.88.56,8.06,3.15.71.85,2.02-.21,3.02-.59,3.92-1.49,7.84-2.97,11.77-4.41.4-.15.9-.02,1.72-.02-.12,3.75-2.47,6.29-4.49,8.81-7.34,9.14-17.24,13.94-28.53,16.23-2.73.55-5.48,1.08-8.15,1.86-5.54,1.61-10.63-.63-15.89-1.59-2.83-.51-5.56-2.03-8.62-.57-1.7.81-2.98-.82-4.07-1.73-2.42-2.02-4.64-1.95-7.26-.47-2.02,1.14-4.28,1.82-6.4,2.79-1.5.69-2.98.73-4.54.31-3.57-.97-7.03-2.28-10.91-.9-1.24.44-3.03-.36-4.49-.85-9.42-3.15-19.05-5.87-27.26-11.79-1.23-.89-2.48-1.17-3.92-1.12-2,.07-3.63-.83-5-2.16-2.79-2.72-5.53-5.48-8.27-8.25-.52-.53-1.26-1.13-.77-1.99.45-.79,1.35-.72,2.08-.53,3.45.9,6.97,1.62,10.3,2.85,7.64,2.81,17.1-2.1,21.23-9.53,1.96-3.52,2.67-6.92,1.68-11.11-2.55-10.83-5.02-21.74-6.47-32.75-.78-5.97-3.63-11.32-4.24-16.94-.68-6.34-4.46-11.64-4.5-17.98-.01-2.18.11-3.82,3.37-3.45-5.64-4.84-6.34-11.36-8-17.42-.89-3.27-1.27-6.68-1.87-10.02-.05-.3-.17-.66-.07-.92,2.09-5.92-1.1-11.54-.97-17.35.04-1.64-.13-3.19-2.05-3.71-2.54-.69-3.3-2.67-3.52-4.93-.13-1.28-.31-2.43-1.26-3.39-6.84-6.97-12.68-14.93-20.68-20.76-2.93-2.14-3.08-4.03-1.28-7.24,3.95-7.05,8.02-14.01,11.05-21.55,1.36-3.37,1.63-6.91,2.58-10.32.22-.8-.03-1.54-.56-2.16-3.74-4.29-4.62-9.74-5.94-14.98-1.51-5.99-3.02-12.03-3.54-18.19-.67-7.94-2.44-15.68-3.89-23.45-1.21-6.52-3.64-12.81-5.46-19.22-.72-2.53-1.32-5.09-1.83-7.67-.37-1.88-.02-3.71.98-5.4.47-.8,1.2-2.07.48-2.57-4.18-2.87-2.95-8.72-6.89-11.84-2.24-1.78-3.33-4.71-4.16-7.62-1.24-4.33-6.81-7.43-11.32-6.38-4.36,1.01-8.91,1.45-12.83,3.92-.66.41-1.5.71-2.15.06-.76-.76-.04-1.4.39-2,5.77-8.12,12.01-15.79,20.5-21.29,2.1-1.36,4.39-2.46,6.82-2.94,4.22-.85,7.87-2.89,11.39-5.16,2.54-1.63,4.99-2.1,7.94-1.35,6.92,1.76,13.03,4.98,18.17,9.88,1.69,1.61,2.77,1.63,4.72.32,4.89-3.28,9.7-6.69,14.6-9.96,5.53-3.69,10.85-3.73,16.74-1.75,5.51,1.85,10.65,4.5,14.93,8.33,6.6,5.9,12.92,12.14,17.88,19.57,1.03,1.54,2.2,3.07,1.31,5.4-3.4.03-6.42-1.73-9.62-2.53-3.73-.94-7.42-.7-11.12-.66-3.02.03-4.61,2.44-5.93,4.7-2.94,5.04-3.49,10.59-2.45,16.22.36,1.95.72,3.56-.69,5.21-.97,1.14-.59,2.38.44,3.33,3.43,3.15,4.02,7.13,3.64,11.5-.35,3.92.47,7.6,1.89,11.33,4.08,10.75,6.44,21.97,8.39,33.28.65,3.78,1.56,7.52,1.22,11.41-.05.58.26,1.2.45,1.78,2.77,8.41,4.34,17.09,6.08,25.74.35,1.73.65,3.24,0,4.96-1.07,2.81.29,5.54.79,8.23,1.5,8.05,3.32,16.05,5.07,24.06.2.93.69,2.02.16,2.71-2.2,2.86-.65,5.54.09,8.32,2.25,8.38,4.45,16.77,6.67,25.16.12.45.04,1,.27,1.36.7,1.09.27,3.31,2.15,3.14,2-.19,1.15-2.17,1.34-3.43,1.57-10.24,3.46-20.42,5.71-30.54,3.26-14.65,6.88-29.22,9.8-43.93,1.29-6.49,1.49-13.2,3.14-19.67.19-.75.2-1.61.59-2.23,2.97-4.73,2.17-10.39,3.85-15.44.23-.7.33-1.64.05-2.28-1.69-3.99.05-7.3,2.02-10.51.79-1.3,1.37-2.64.87-3.95-1.93-4.99.47-9.18,2.55-13.24,1.17-2.28,1.61-4.29.92-6.62-1.09-3.65-.29-6.82,2.68-9.17,1.35-1.07,1.16-1.91.54-3.14-1.42-2.82-1.36-5.68.02-8.52.48-.98.98-1.97.88-3.11-.43-5.15,1.43-10.13,1-15.3-.24-2.82,0-2.84,2.38-4.97-.97-1.23-2.41-1.88-3.58-2.84-2.95-2.44-5.75-3.39-9.05-.47-1.01.9-2.49,1.99-4.45,1.02Z"/>
      <path class="cls-2" d="M1089.01,1000.86c0,4.3-.45,8.65.1,12.88.86,6.55-3.43,12.83-.59,19.47.48,1.13-.7,2.94-1.04,4.45-.52,2.32-.67,4.63.52,6.82,1.52,2.78,1.34,5.82.74,8.66-.49,2.33-.63,4.6-.64,6.93-.02,5.24-.02,10.48,0,15.72,0,2.48.07,4.91.68,7.39.51,2.06.05,4.34.23,6.5.18,2.12-4,2.91-1.41,5.91,1.39,1.61.36,4.23.49,6.38.14,2.31-.26,4.66.68,6.92.5,1.2-.16,2.41-.36,3.63-1.77,10.84,2.21,19.47,10.51,26.27,1.38,1.13,2.66,2.23,5.23.77,2.17-1.24,5.36-1.08,7.8-2.56,1.07-.65,2.08-.68,2.82.48.71,1.11.37,2.19-.52,2.93-2.61,2.18-5.3,4.27-7.98,6.37-.36.28-.81.47-1.23.66-5.62,2.57-11.4,4.77-17.05,7.28-5.62,2.49-11.64,1.81-17.03-1.38-2.79-1.65-5.21-1.93-8.21-.43-2.43,1.22-5.08,1.96-7.98,2.25-2.62.26-3.11-3.49-4.77-2.32-2.27,1.59-3.32,0-4.95-.63-3.47-1.35-7.01-2.51-10.55-3.67-.87-.28-1.87-.17-2.62-.84-3.24-2.89-6.5-5.77-9.72-8.69-.54-.49-1.31-1.09-.88-1.96.53-1.08,1.58-.74,2.46-.56,1.36.28,2.79.48,4.04,1.04,3.84,1.74,7.62-.4,11.43,0,.35.04.83-.41,1.13-.75,2.35-2.68,4.72-5.35,6.99-8.1.86-1.04.66-2.38.39-3.59-.27-1.21-1.07-2.39-.72-3.62,2.11-7.57-.89-15.1-.09-22.66.26-2.45.08-4.91-.61-7.39-.48-1.73-.28-3.72-.08-5.56,1.21-10.84,1.19-21.66.02-32.49-.1-.94-.2-1.86.15-2.76,1-2.56.68-5.25.5-7.86-.17-2.46-.19-4.86.04-7.32.46-4.85-1.94-8.65-5-12.11-2.57-2.9-5.81-5.18-7.79-8.64-1.8-3.13-1.86-4.42.77-6.94,3.62-3.46,6.82-7.22,9.48-11.46,1.69-2.69,2.54-5.47,2.68-8.75.28-6.87-1.71-13.62-.97-20.44.86-7.9.86-15.8.88-23.72,0-.9.21-1.9.64-2.67,1.01-1.85.65-3.09-.47-4.99-2.2-3.75-1.89-8.28-.33-12.08,1.17-2.86,1.19-5.33.51-8.02-.57-2.25-1.6-4.4-1.31-6.81.27-2.25-.8-3.8-2.36-5.28-5.54-5.26-9.38-5.91-16.38-2.78-1.59.71-3,2.37-5.06,1.53-.48-1.73.86-2.36,1.67-3.18,4.26-4.3,8.24-9.03,13.36-12.28,6.37-4.04,12.7-8.33,20.29-9.99,1.4-.31,2.78-.42,4.17-.3,11.45.99,21.09,6.08,29.82,13.21.36.3.65.84,1.04.91,5.77,1.03,7.64,6.14,10.63,10.07.19.24.33.61.57.7,6.15,2.37,7.13,8.08,8.76,13.4.41,1.32.69,2.88,1.57,3.83,3.07,3.35,4.26,7.58,5.71,11.64,5.52,15.33,10.03,30.98,14.17,46.73.79,2.99,2.04,5.86,3.18,8.74.95,2.42,2.56,4.65,1.68,7.49-.11.36.19.89.38,1.31,4.92,10.94,7.75,22.58,11.29,33.98.41,1.31.86,2.62,1.35,4.09,1.49-3.42,1.86-6.8,1.62-10.24-.16-2.38.69-4.6.86-6.9.17-2.45.44-4.96-.4-7.41-.3-.86-.71-2.06-.35-2.7,2-3.57-.07-7.37.79-10.97.14-.59.17-1.26.04-1.86-.94-4.64.4-9.5-1.32-14.05-.38-1.02-.19-1.79.43-2.58.39-.5.78-1.1.41-1.7-2.93-4.78-.88-10-1.3-14.99-.43-5.11-.19-10.25,1.28-15.23.42-1.41.33-2.66.08-4.08-.9-5.09-.99-10.19-.8-15.42.22-6.01.83-12.23-1.37-18.23-1.26-3.44-3.47-5.86-6.19-7.95-1.8-1.39-3.92-1.63-6.2-.85-3.85,1.32-7.45,3.13-10.88,5.29-.81.51-1.69,1.12-2.51.32-1.05-1.02-.36-2.07.45-2.82,6.42-5.99,11.5-13.68,20.51-16.45,2.89-3.36,7.6-2.59,11.16-4.98,2.55-1.72,6.67-.91,9.75,1.14,2.19,1.46,4.33,4.02,6.55,4.09,2.22.07,4.51-2.37,6.77-3.69.4-.23.85-.58,1.27-.56,5.26.22,10.62-1.33,15.76.84,1.72.72,3.3,1.78,5.03,2.46,7.72,3.04,12.69,9.18,17.57,15.43.19.25.43.48.54.76.47,1.22,2.01,2.54.64,3.75-1.45,1.29-2.44-.44-3.5-1.23-4.34-3.23-9.38-4.06-14.56-3.75-3.6.21-6.13,2.62-7.11,5.93-1.56,5.29-2.61,10.64-2.43,16.31.15,4.82,1.62,9.93-1.32,14.55-.34.53,0,1.23.44,1.7,1.31,1.38.72,2.47-.41,3.59-.63.62-1.66,1.63-.62,2.31,3.03,1.97,1.77,5.12,1.91,7.53.45,7.6.16,15.25.17,22.88,0,2.19-.91,4.2-1.04,6.41-.25,4.36-1.45,8.75,1.65,12.65-.56,4.32,2.68,6.11,5.09,8.88,2.61,3.01,6.07,4.92,8.49,8.03,2.23,2.85,2.46,3.81-.17,6.32-4.76,4.54-8.47,9.89-12.26,15.19-1.36,1.91-2.36,4.01-2.96,6.3-.2.74-.6,1.4-.22,2.22,1.44,3.13,1.17,6.37.61,9.63-.55,3.21.78,6.3.53,9.55-.42,5.56.38,11.16-.29,16.72-.2,1.62,1.16,3.13.48,4.54-1.78,3.71-.12,7.34-.25,10.91-.15,3.9,1.21,7.95-.48,11.83-.49,1.12.25,2.43.36,3.64.39,4.26,1.51,8.6-.75,12.72-.21.39-.46.94-.34,1.3,2.02,6.54.45,13.84,4.55,20.01,1.71,2.57,3.28,3.93,6.56,4.14,5.83.38,10.76-.58,14.26-5.68.42-.61,1.15-1.03,1.79-1.46.21-.14.58-.02,1.1-.02.53,2.28-.51,4.27-1.54,6.03-4.88,8.34-10.99,15.39-20.48,18.75-2.49.88-5.01,1.74-7.35,2.92-6.44,3.25-13.08,3.2-19.98,1.95-3.79-.68-7.77.15-11.55-1.12-.43-.15-1,.02-1.37-.19-6.96-3.87-14.58-6.83-18.59-14.56-4.46-8.59-8.01-17.5-10.39-26.88-.29-1.13-1.2-2.28-.12-3.51,1.05-1.19.42-1.97-.74-2.52-2.76-1.3-2.87-3.63-2.84-6.29.04-2.9.06-5.9-1.73-8.5-.61-.88-1.08-1.91-1.05-3.05.03-1.48-.25-2.81-1.67-3.59-1.1-.61-1.48-1.8-1.49-2.77-.03-3.26-1.45-6.05-2.51-8.99-.86-2.37-1.39-4.77-.33-7.26.57-1.33.22-2.55-1.05-3.2-2.97-1.53-4.01-4.15-4.43-7.22-.58-4.2-2.47-7.87-4.22-11.68-2.64-5.76-4.69-11.84-6.54-17.92-2.21-7.26-3.47-14.83-6.05-21.93-1.75-4.83-3.92-9.6-6.33-14.35Z"/>
      <path class="cls-2" d="M1769.48,1138.73c1.73.42,3.46.87,5.2,1.27,2.36.54,2.8,1.09,1.66,3.04-1.64,2.8-3.35,5.63-5.98,7.66-7.9,6.09-16.43,11.08-25.7,14.8-7.54,3.03-14.75,1.62-20.57-4.09-3.96-3.9-7.43-8.28-11.76-11.83-2.81-2.3-4.98-5.46-6.1-8.68-1.1-3.15-2.21-6.99,0-10.38.89-1.37.53-2.39-.47-3.28-1.58-1.41-1.72-3.19-1.65-5.11.13-3.55-.04-7.08.72-10.65.53-2.49,1.45-5.23-.42-8.01-.86-1.28-.52-3.72-.05-5.46.58-2.16.4-4.32.75-6.43.96-5.83-1.18-11.73.55-17.51-1.55-9.09,1.16-18.52-2.24-27.51-.62-1.65-.17-3.7-.26-5.56-.15-3.2-1.38-5.48-4.65-6.76-4.25-1.67-8.67-2.04-13.08-2.8-5.61-.98-11.16-.57-16.73-.69-3.77-.08-3.79.08-3.86,4-.04,2.02-.08,4.05,0,6.07.66,14.93-1.12,29.8-1.01,44.73.02,3.31.98,6.43,1.02,9.69.03,2.67-.77,5.06-1.47,7.59-.59,2.12,1.09,4.87.44,7.27-1.39,5.13.72,10.11.31,15.17-.05.59.56,1.33.36,1.78-1.76,3.95,1.01,6.53,2.87,9.26,1.38,2.02,2.99,4.05,4.93,5.49,4.32,3.22,10.16,2.66,14.66-.99,1.04-.85,1.75-2.2,3.77-2.39-1.12,4.7-3.24,8.65-6.59,11.54-2.42,2.08-4.26,4.41-5.94,7.02-3.23,5.04-7.55,8.38-13.65,9.53-4.21.79-8.02-.25-11.68-1.74-4.74-1.93-9.44-4.15-12.95-8.09-1.72-1.93-2.96-1.48-4.58.17-2.94,3.01-6.34,5.42-10.18,7.24-4.34,2.05-8.6.99-12.68-.35-5.8-1.91-10.89-5.25-15.25-9.55-4.09-4.03-8.4-7.88-11.72-12.63-.35-.5-.89-.95-.62-1.64.38-.94,1.28-.85,1.99-.69,2.42.54,4.86,1.04,7.2,1.84,2.89.99,5.82.76,8.76.88,1.76.07,2.97-.67,4.03-1.88,2.32-2.64,3.35-5.91,4.47-9.14.27-.77.09-1.58-.46-2.19-.96-1.05-1.09-2.16-.47-3.42.13-.27.19-.61.17-.91-.67-8.17.78-16.38-.04-24.51-1.2-11.89-.63-23.79-.83-35.69-.04-2.31.09-4.45,1.27-6.71,1.44-2.77,1-6.24.38-9.17-.94-4.51-.72-8.98-.7-13.46,0-2.52-.57-4.48-2.5-6.18-4.11-3.59-6.94-8.37-11.06-11.96-1.8-1.57-1.7-3.13.02-4.73,3.9-3.63,6.73-8.1,9.69-12.46,3.71-5.46,5.75-11.21,4.16-17.96-.4-1.68,1.02-3.89.44-5.41-1.51-4.01.41-7.97-.39-11.87-.83-4.02-.21-8.06-.39-12.09-.15-3.4-1.25-6.69-.98-10.16.26-3.39,1.59-6.71.95-10.15-.86-4.62-.01-9.21.1-13.8.09-3.54.93-7.03.95-10.63.02-2.64-.81-4.61-2.82-6.02-5.74-4.04-8.21-5.24-13.43-1.92-2.87,1.82-6.1,3.1-9.18,4.6-.26.13-.6.1-1.18.19-.56-1.9.6-3.15,1.71-4.3,6.15-6.38,12.12-12.95,20.71-16.31,3.55-1.39,6.48-3.89,10.53-4.67,4.09-.79,7.38-.02,10.57,2.05,2.72,1.77,5.42,3.67,7.76,5.91,1.74,1.67,3.13,1.63,4.88.42,5.14-3.54,10.73-6.26,16.28-9.06,2.66-1.34,5.48-2.19,8.26-3.16,1.54-.54,3-.53,4.56-.09,3.21.9,6.44.79,9.67.02.6-.14,1.21-.35,1.82-.36,4.03-.06,8.04-.6,12.04-.84,9.82-.6,19.03,2.19,27.67,6.76,4.53,2.4,8.47,5.73,12.61,8.72,3.19,2.32,5.39,5.64,7.66,8.72,5.35,7.27,9.97,15,12.56,23.78,2.01,6.8,3.09,13.61,1.1,20.59-.44,1.53-.77,2.96.18,4.44,1.18,1.83.97,3.93.77,5.91-1.39,13.74-6.41,26.12-14.31,37.38-.44.63-.96,1.28-1.6,1.68-5.26,3.35-8.15,8.85-12.16,13.32-1.18,1.32-1.02,2.53.67,3.37,2.51,1.25,4.97,2.6,7.52,3.75,4.16,1.87,7.79,4.57,11.21,7.46,4.07,3.45,7.12,7.68,7.18,13.4,0,.29.09.66.28.85,5.11,5.05,2.87,11.26,2.7,17.14-.01.45-.45.95-.34,1.33,1.56,5.6-1.65,11.38.67,16.95.22.54.29,1.32.07,1.84-2.28,5.67-.66,11.85-2.36,17.59-.63,2.13-.45,4.25.09,6.43,1.92,7.83,3.07,15.78,3.26,23.86.07,2.8.74,5.53,1.13,8.27.78,5.39,8.96,9.41,14.09,7.29,1.43-.59,2.74-1.46,4.07-2.26.56-.34,1.12-.66,1.68-.23.54.41.52,1.11.44,1.73-.34,2.7-1.82,4.11-4.59,4.22-2.16.08-4.33.02-6.5.02-.04.19-.07.39-.11.58ZM1706.71,969.35c-2.76-.62-3.66-1.86-3.54-3.87.06-1.08,0-2.18,0-3.26,0-3.89.19-7.78-.05-11.66-.24-3.81,1.73-7.21,1.16-11.21-.99-6.89-1.82-13.8-3.98-20.41-2.13-6.52-6.62-10.65-13.64-11.62-.76-.11-1.5-.37-2.26-.48-5.82-.87-11.6-1.26-17.41.4-1.85.53-2.61,1.58-2.9,3.15-.23,1.21-.13,2.48-.13,3.72-.01,10.73.13,21.45-.07,32.18-.13,6.95.96,13.97-.82,20.87-.15.57-.1,1.3.13,1.84,1.08,2.54.71,5.2.73,7.83.03,4.2-.07,8.4.03,12.59.1,4.13,1.06,4.85,4.95,5.91,3.7,1.01,7.39.77,11.1.79,12.4.06,21.38-8.33,22.25-20.76.19-2.67,1.04-4.81,4.48-5.98Z"/>
      <path class="cls-2" d="M1022.14,414.26c-.85-1.62,0-2.7.76-3.92,5.23-8.33,12.44-14.57,20.59-19.89,4.85-3.17,10.11-5.5,15.44-7.61,10.83-4.28,21.22-4.19,30.53,3.94,1.16,1.02,2.51,1.83,3.69,2.83,2.95,2.49,3.06,2.52,5.73,0,1.36-1.28,2.59-2.7,3.99-3.93,2.51-2.22,5.35-3.47,8.85-3.54,9.22-.19,18.3.41,27.02,3.72,12.45,4.73,21.94,12.72,27.66,24.9.51,1.08,1.61,2.27.71,3.45-.89,1.17-2.23.52-3.45.18-2.98-.85-6.1-1.31-8.96-2.46-5.76-2.32-11.19-1.1-16.64.86-4.76,1.71-7.26,4.77-6.9,9.79.96,13.66.87,27.32.86,40.99,0,2.47.07,4.92-.68,7.39-.48,1.57-.47,3.46-.12,5.09,1.18,5.41,1.23,10.75-.06,16.13-.18.74-.17,1.57-.05,2.33,1.89,11.76.7,23.59.8,35.38.04,4.52,1.37,7.92,4.29,11.28,5.59,6.42,10.81,13.17,16.15,19.8,1.58,1.96,1.7,4.06.08,6.44-2.9,4.24-6,8.37-10.76,10.73-1.23.61-2.26.85-1.58,2.58.49,1.24-.71,1.92-1.4,2.72-6.54,7.5-9.23,16.01-6.85,25.88.21.89.16,1.86.17,2.79.02,10.74.03,21.49.02,32.23,0,1.53.25,3.11-1.1,4.36-1.03.95-.82,2.31-.77,3.53.21,4.48-.68,9.03.79,13.44.19.56.26,1.32.05,1.84-1.97,4.84.05,9.46.7,14.16.15,1.07.35,2.16.31,3.23-.34,8.21.67,16.44-.77,24.66-.54,3.11-.7,6.51.53,9.69.27.7.47,1.66.2,2.29-1.97,4.6.97,7.13,3.87,9.8,2.52,2.32,4.98,4.72,7.26,7.27,3.24,3.62,7.15,4.04,11.49,2.81,3.29-.94,6.55-1.97,9.29-4.16.48-.39,1.03-.7,1.54-1.05.8-.56,1.65-1,2.52-.23.65.58.56,1.44.37,2.19-1.07,4.16-2.97,7.92-6.37,10.61-6.29,4.99-13.64,7.98-21.13,10.65-.43.15-1.03.37-1.35.2-3.85-2.12-5.99,1.11-8.57,2.75-1.16.74-2.23,1.65-3.4,2.43-9.48,6.33-21.87,2.43-28.91-3.62-2.04-1.75-3.27-2.5-5.85-.69-3.2,2.25-7.34,2.21-11.13,2.96-7.19,1.41-14.09-.06-20.99-1.89-9.51-2.52-18.65-5.79-26.78-11.55-4.9-3.47-8.68-7.94-12.33-12.58-.51-.65-.85-1.42-.4-2.15.63-1.02,1.6-.73,2.47-.3,3.77,1.86,7.58,3.65,11.27,5.65,2.38,1.28,4.44,1.37,7.04.28,4.64-1.94,9.08-4.04,12.54-7.8,3.14-3.41,4.46-7.16,3.33-11.95-.88-3.68-1.61-7.66,1.63-10.95,1.1-1.12.66-2.59.13-3.96-1.4-3.64-2.11-7.32-1.37-11.29.81-4.34-.9-8.61-.89-12.95.02-7.01-.22-14.02.06-21.02.37-9.43.52-18.88,1.72-28.27.35-2.75.16-5.54.9-8.3.58-2.17-.79-4.21-1.47-6.26-.78-2.36-1.01-4.58-.57-7.21.71-4.23.72-8.66-.19-12.98-.22-1.06-.58-2.19-.4-3.2.83-4.54-1.76-7.61-4.3-10.77-4.85-6.04-9.6-12.15-14.46-18.19-1.07-1.33-.42-2.13.39-3.21,4.17-5.59,8.4-11.12,12.41-16.84,5.45-7.78,8.57-16.14,7.74-25.71-.25-2.87.8-5.51,1-8.29.39-5.37-.69-10.51-2.1-15.6-.98-3.54-.9-7-.18-10.57.64-3.17,1.05-6.42,1.27-9.65.35-5.25,1.02-10.45,1.76-15.66.43-3.02.75-6.19-1.62-8.86-1.28-1.44-1.36-3.53-1.6-5.3-.94-7.03-2.39-14.08-.51-21.22.62-2.37-.1-4.6-1.61-6.57-4.68-6.08-11.41-8.65-18.52-9.68-3.46-.5-7.37.79-10.52,3.05-1.36.98-2.68,2.02-4.32,2.58Z"/>
      <path class="cls-2" d="M924.09,874.63c9.81-.15,18.31,3.72,26.86,8.07,7.75,3.95,12.11,10.9,17.4,17.09,1.53,1.79,2.72,3.77,5.42,3.91,1.46.08,1.88,1.46,2.56,2.48,5.84,8.88,10.22,18.46,13.47,28.56.38,1.18.79,2.27,1.35,3.39,3.14,6.22,5.88,12.58,5.49,19.8-.03.57.15,1.26.47,1.74,2.63,3.91,2.15,8.66,3.56,12.87.71,2.13-2.2,3.42-.69,5.65,1.01,1.5,1.36,3.44,2,5.19.05.14.09.34.03.46-2.67,5.16,1.87,8.67,2.95,12.96.07.3.15.73.36.84,4.08,2.18,5.44,7.06,9.37,9.38.95.56,1.72,1.22,2.39,2.15,2.33,3.27,2.36,3.26-.23,6.28-3.63,4.24-7.16,8.57-10.9,12.71-3.49,3.86-2.79,8.52-2.6,12.99.07,1.53.17,2.93-.13,4.49-2.47,12.75-4.35,25.61-7.47,38.23-.29,1.18-.44,2.55-.15,3.71,1.22,4.85-.54,9.22-2.23,13.48-1.89,4.76-4.72,9.08-7.21,13.56-2.38,4.27-2.51,9.5-4.9,13.96-3.83,7.14-9.32,12.92-15.4,17.92-6.69,5.49-13.44,10.99-20.81,15.64-1.85,1.17-3.8,2.12-5.72,3.14-2.57,1.37-5.24,1.78-8.03.78-2.72-.98-5.38-1.07-8.21-.25-3.26.95-6.45-.46-9.59-1.06-8.93-1.7-16.4-6.43-23.4-11.99-5.36-4.26-10.46-8.84-14.17-14.65-4.26-6.67-8.22-13.53-12.35-20.29-.51-.84-.82-1.69-.74-2.64.25-2.91-.58-5.69-1.93-8.06-1.86-3.25-2.24-7.05-4.18-10.15-1.2-1.92,1.83-3.99-.58-5.56-1.86-1.21-2.25-3.23-2.98-5.11-2.43-6.32-2.84-13-3.35-19.6-.32-4.21-.71-8.34-2.04-12.32-1.23-3.67-1.14-7.37-.49-11.04.33-1.88.74-3.61.02-5.46-.27-.69-.52-1.67-.23-2.25,1.67-3.38-.32-5.3-2.29-7.72-3.25-4.01-6.94-7.55-10.49-11.24-3.02-3.13-2.94-3.23-.16-6.43,3.86-4.44,7.76-8.87,11.03-13.79.96-1.45,1.72-2.91,1.76-4.72.19-8.71,2.11-17.17,3.76-25.66.86-4.4,2.18-8.73,2.91-13.15,1.21-7.33,4.89-13.66,7.85-20.27,1.16-2.59,1.84-5.29,2.49-7.98,1.84-7.71,6.68-13.59,11.7-19.27,3.05-3.46,6.03-7.18,10.39-9.26.61-.29.79-.88,1.1-1.43,4.65-8.24,11.08-14.1,20.85-15.46.59-.08,1.18-.37,1.7-.68,5.51-3.3,7.79-3.93,14.41-3.93ZM900.02,1104.19c3.56,2.23,4.31,5.16,4.68,8.05.34,2.67,1.18,5.13,2.05,7.61,3.06,8.75,8.64,12.68,17.84,12.68,1.25,0,2.5-.07,3.74.01,4.01.28,7.17-1.36,10.05-4.02,5.85-5.43,8.2-12.64,10.35-19.96.34-1.15.46-2.63-.32-3.63-1.53-1.95-1.64-3.86-.72-6.08.33-.79.31-1.93,0-2.74-1.04-2.73-.64-5.53-.74-8.31-.21-5.72-.17-11.44-.61-17.18-.32-4.15.16-8.6.44-12.91.19-2.94.38-5.95-.02-8.84-.3-2.17-.33-4.14-.05-6.34.67-5.08.78-10.17-2.97-14.56-3.52-4.12-6.62-8.58-10-12.81-2.17-2.71-2.17-2.73,0-5.42,3.98-4.94,8.27-9.63,11.67-15.04,1.89-3.01.61-6.9,3.08-9.68.17-.19-.39-1.09-.68-1.62-1.63-2.97-2.41-6-1.18-9.37.36-.98.24-2.14.31-3.23.51-7.09-.9-14.17-.01-21.26.08-.61.03-1.26-.13-1.85-1.17-4.44-1.13-8.86-.06-13.33.35-1.46.41-3.2-.02-4.62-1.81-5.94-3.8-11.82-6.59-17.4-.67-1.33-1.55-1.96-3.15-2.29-4.77-.98-9.57-.74-14.37-.91-5.18-.18-9.38,1.96-13.03,5.27-1.92,1.74-4.53,4.02-4.35,6.31.25,3.2-.63,5.91-1.25,8.81-.19.88-.18,1.94.13,2.77,1,2.72.54,5.54.79,8.3.32,3.62-1.05,7.08-.9,10.63.51,12.35-.77,24.67-.54,37.02.06,3.35.8,5.89,2.49,8.52,3.13,4.87,7.04,9.07,11.23,13.01,1.53,1.43,1.97,2.69.17,4.21-2.15,1.82-3.58,4.29-5.47,6.32-6.39,6.82-9.41,14.77-8.89,24.11.16,2.79-.35,5.69.21,8.37.54,2.6.08,5.17.44,7.77.65,4.73-.45,9.67-.43,14.56.02,6.97-.82,13.94.52,20.88.62,3.21.55,6.28-3.71,8.18Z"/>
      <path class="cls-2" d="M1360.62,967.68c-.95-5.08-2.15-9.69-.65-14.56.61-1.99.56-4.45.01-6.48-.69-2.53-.19-4.54,1.06-6.6.69-1.13.94-2.19-.07-3.4-1.82-2.2-2-4.6-1.23-7.43,1.13-4.13.41-7.96-3.15-10.97-8.26-6.97-17.13-12.4-28.48-11.82-4.18.22-8.29,1.07-12.33,2.14-3.26.87-5.55,3.34-8.05,5.42-1,.83-.97,1.93-.88,2.99.57,7.32-.83,14.56-1.18,21.84-.21,4.4-.18,8.98-1.45,13.34-.58,2-.1,3.99.67,5.92,1.31,3.28,1.37,6.65.5,10.06-.63,2.45-.73,4.91.03,7.36.71,2.29.93,4.73.14,6.89-1.24,3.4-.18,6.48.72,9.56.99,3.41,3.66,4.9,6.81,3.31,4.68-2.36,9.3-1.65,14.03-.9,4.43.7,6.77-.32,8.76-4,1.77-3.26,1.72-6.82,1.91-10.42.21-4.07-1.72-6.78-4.49-9.26-.79-.71-1.64-1.42-1.83-2.47.65-1.37,1.56-.89,2.43-.61,5.68,1.77,11.23,3.74,15.2,8.58.8.97,1.66,1.87,2.07,3.07,2.73,7.86,2.75,15.73-.07,23.57-.57,1.59-1.43,3.08-2.53,4.44-1.57,1.95-1.58,4.02.49,5,2.28,1.08,2.6,2.63,2.9,4.68.36,2.44,1.43,4.82,1.51,7.25.22,6.54-2.52,12-6.87,16.77-4.64,5.1-10.63,5.32-16.74,5.5-.41-1.93.72-2.49,1.4-3.25,2.53-2.81,4.25-6.11,5.84-9.49.93-1.99.37-3.24-1.71-3.94-4.62-1.55-9.31-2.64-14.16-1.48-1.77.42-3.19.55-4.84-.49-1.66-1.06-9.19.44-10.55,1.8-1.14,1.14-.98,2.56-.71,3.95,1.27,6.47,1.18,12.93.04,19.4-.05.31-.21.65-.12.92,1.32,4.36.41,8.54-.87,12.72-.16.52-.05,1.38.3,1.76,2.33,2.61,1.57,5.51.86,8.36-.34,1.39-.26,2.78-.39,4.16-.53,5.84-.35,11.68.02,17.52.09,1.39-.14,2.81.42,4.15,1.37,3.26,1.29,6.62.41,9.94-.46,1.75-.64,3.31.41,4.87.25.37.59,1,.45,1.28-2.11,4.09,1.88,6.94,2.11,10.54.07,1,.55,1.95,1.53,2.14,4.55.91,8.78,3.09,13.55,3.14,8.44.09,15.69-3.39,22.69-7.53,2.66-1.57,4.95-3.77,7.63-5.32,5.82-3.38,6.53-8.74,5.65-14.52-.36-2.35-.82-4.53.02-6.84.26-.71.27-1.53.28-2.3.06-3.77-1.14-7.56.84-11.28.69-1.3-.15-3.01-.64-4.51-.51-1.54-1.45-3.11.12-4.75,1-1.04-.14-1.95-.66-2.87-.82-1.46-.92-3.07.04-4.42,1.1-1.54,2.68-.84,4.25-.62,3.08.43,6.18,1.8,9.35-.25,1-.65,2.76-.34,4.13-.18,3.54.41,7.04,1,10.64.98,2.27,0,3.16,1.29,2.33,3.4-1.22,3.1-.79,5.96.06,9.01.79,2.86.73,5.87-.02,8.76-.68,2.63-.64,5.17-.04,7.81,1.05,4.6.06,9.32.5,13.95.59,6.25-1.37,11.42-5.28,16.32-5.64,7.07-12.1,13.23-18.62,19.46-9.99,9.56-22.25,14.18-35.06,17.31-6.03,1.48-12.67,1.68-19.16.52-4.41-.78-8.88-1.14-13.19-2.56-5.95-1.96-11.44-4.6-16.46-8.49-3.6-2.79-3.04-3.15-6.51-.05-4.14,3.7-9.06,4.63-14.74,3.81-11.61-1.68-20.54-8.35-29.63-14.84-1.79-1.28-2.93-3.19-4.13-5.01-.35-.54-.76-1.12-.32-1.66.59-.73,1.45-.55,2.09-.07,2.14,1.61,4.54,2.75,6.97,3.77,6.44,2.7,10.48,1.58,14.74-3.89.47-.61,1.06-1.28,1.16-1.99.73-4.82,1.52-9.65.57-14.53-.12-.6-.61-1.26-.47-1.75,1.45-4.87-.26-9.95,1.05-14.81.17-.63.36-1.39-.12-1.76-2.67-2.02-1.52-4.58-1.39-7.17.17-3.38-.3-6.85-.27-10.18.04-4.27.07-8.64.64-12.93.06-.46.47-1.01.32-1.33-2.77-6,.36-12.15-.53-18.21-.43-2.89.45-5.91-.71-8.78-.31-.76-.21-1.58.33-2.21,1.07-1.24,1.27-2.39.09-3.69-.8-.88-.84-2.04-.47-3.1,1.48-4.19.69-7.37-3.22-10.05-2.4-1.64-3.52-4.65-4.86-7.3-.69-1.36.29-2.32.77-3.46-1.69-.83-3.25-.33-4.73-.51-2.22-.27-2.72-1.29-1.34-3.07,2.67-3.42,5.45-6.75,8.17-10.13,1.07-1.33,1.98-2.81,3.17-4,1.45-1.45,1.88-3.08,1.85-5.06-.06-3.41-.03-6.77.74-10.18.73-3.27-.76-6.71.15-10.09.8-2.99,1.69-5.99-.69-8.84-.46-.55-.33-1.9-.02-2.71.91-2.42.75-4.91.7-7.38-.09-3.98-.8-7.99.87-11.85.17-.4.16-.96.05-1.39-2.14-7.75-.51-15.64-.79-23.45-.14-3.74-1.4-7.33-1.1-11.09.12-1.51-1.15-2.14-2.33-2.56-3.67-1.27-7.37-2.46-11.05-3.69-1.44-.48-2.68-.26-3.94.65-2.5,1.82-5.1,3.5-7.86,5.38-1.57-1.81-1.01-3.68-.34-5.58,1.25-3.53,3.89-6,6.61-8.31,5.86-4.99,12.54-9.1,19.76-11.21,7.78-2.27,16.05-2.25,22.65,4.28,2.96,2.93,3.92,3.02,7.28.89,5.54-3.52,11.52-6.13,17.57-8.6,5.25-2.14,10.84-1.52,16.15-.93,3.53.39,6.77.09,10.01-.69,2.28-.55,4.29-.61,6.27.58,2.01,1.21,4.27.67,6.4.95,4.51.59,8.67,2.22,12.78,4.01,5.27,2.29,10.6,4.47,15.76,6.99,2.82,1.37,5.18,1.04,7.26-.96,3.24-3.12,6.68-6.07,9.13-9.94.69-1.09,1.06-3.12,2.79-2.67,1.75.46,3.41,1.63,4,3.57.31,1.02.41,2.13.42,3.2.04,7.63.34,15.28-.08,22.89-.22,4.01-.21,7.91-.08,11.92.49,15.5.21,31.03.2,46.55,0,1.24.16,2.51-.38,3.69-.85,1.84-2.02,3.12-4.32,2.61-3.23-.71-6.46-.8-9.67.13-.77.22-1.5.13-2.28-.04-4.46-1-8.93-.66-13.69,0Z"/>
      <path class="cls-2" d="M1510.97,1109.98c-4.77-4.13-4.57-8.54-3.56-13.12.63-2.86.26-5.9,1.53-8.67.18-.39.28-.99-.25-1.23-2.99-1.35-1.5-3.52-1.14-5.56.62-3.55-.16-7.18.34-10.7.51-3.62-.17-6.96-.91-10.44-.44-2.05-1.39-2.73-3.12-2.45-3.2.51-5.53-.9-7.19-3.31-2.96-4.29-7.53-6.89-10.87-10.76-.91-1.06-1.97-1.99-2.93-3.01-.53-.56-1.16-1.2-.63-2.01.35-.54,1.14-.68,1.69-.44,2.76,1.21,5.44.62,8.18-.07.88-.22,1.86-.07,2.79-.04,11.51.46,22.95-1.62,34.46-.96,2.09.12,3.89-.97,5.83-1.5,6.09-1.66,12.26-2.97,17.57-6.82,1.88-1.36,4.33-2.35,7.04-1.4.86.3,2.09-.35,3.11-.67,6.07-1.95,11.26-.73,15.69,3.99,2.14,2.29,4.3,4.48,5.48,7.46.55,1.39,1.78,2.66.35,4.24-.52.57.07.97.44,1.5,1.58,2.29,1.07,5.55-.98,7.26-1.3,1.09-2.52,1.12-3.62-.25-.29-.36-.48-.8-.72-1.2-4.5-7.68-17.89-7.22-22.41,1.8-2.2,4.39-3.24,9.03-3.49,13.86-.15,2.79,0,5.6-.04,8.41-.04,3.25-.16,6.45-.71,9.71-.53,3.12-2.43,6.66.56,9.7-.34,2.91-.28,5.94-1.12,8.7-1.27,4.17-.19,8.27-.16,12.35.04,5.48,2.39,10.85.63,16.51-.52,1.68-.34,3.8.16,5.54.69,2.39.84,4.54-.4,6.73-.48.84-.5,1.57.08,2.55,1.58,2.69,1.58,5.58,0,8.27-.57.97-.67,1.77-.09,2.54,1.8,2.39.66,4.81.06,7.15-.83,3.23-2.22,3.83-5.37,2.26-1.83-.91-3.68-.85-5.46-.5-4.55.9-9.05,1.73-13.7.81-1.05-.21-2.28-.3-3.25.05-4.08,1.49-7.93.18-11.84-.69-.75-.17-1.58-.44-2.29-.28-5.24,1.18-10.45-.6-15.68-.08-1.85.18-3.69.04-5.53.63-1.93.62-3.98.55-5.97-.11-.73-.24-1.54-.55-2.26-.44-7.68,1.11-13.96-3.79-21.12-4.89-.56-.09-1.14-.55-1.55-.98-6.86-7.18-14.72-13.42-20.28-21.82-2.14-3.24-4.31-6.46-5.05-10.34-.61-3.19-2.72-5.59-4.28-8.23-4.7-7.97-7.65-16.55-9.76-25.48-1.82-7.68-3.66-15.36-5.48-23.04-.11-.45-.4-.99-.26-1.35,1.99-4.99-1.81-9.43-1.36-14.15.47-4.87-1.71-9.41-1.38-14.06.39-5.43-1.56-10.35-2.09-15.54-.12-1.17-.89-2.11-1.8-2.62-3.05-1.74-4.42-5.16-7.29-7.06-1.39-.92-1.04-4.04-4.02-3.12-.43.13-.65-.97-.24-1.52,1.2-1.62,2.21-3.36,3.68-4.8,1.99-1.95,3.64-4.4,5.66-6.12,4.4-3.76,5.96-8.81,7.99-13.75.18-.43.56-.86.53-1.28-.3-5.49,2.53-10.57,2.1-16.07-.2-2.59.12-4.95,2.38-6.69,1.04-.8,1.3-1.99,1.39-3.32.55-8.25,2-16.49,5.69-23.79,4.59-9.08,7.04-19.24,13.59-27.34,3.31-4.09,6.09-8.76,9.94-12.23,5.38-4.85,10.92-9.55,16.19-14.55,1.15-1.09,2.66-1.55,4.17-1.99,5.36-1.54,10.78-2.95,16.04-4.79,2.23-.78,4.26.1,6.34.06,2.82-.06,5.74-.57,8.65.13,3.05.73,6.06,1.33,8.43,3.58.57.54,1.23,1.19,2.01,1.06,3.71-.62,5.58,2.04,7.88,4.11,1.49,1.34,3.21,2.44,4.93,3.49,1.58.97,2.94,1.81,3.94,3.66,1.65,3.08,5.26,3.31,7.72.88,2.09-2.06,4.51-3.88,5.7-6.71.53-1.27,1.66-1.81,2.77-2.36,2.3-1.14,3.65-3.37,5.61-4.88,1.78-1.37,2.88-.9,3.08,1.29.12,1.23.26,2.54,0,3.73-1.21,5.4.15,10.91-.83,16.3,2.56,5.7-1.52,11.68.73,17.4.05.13.02.32-.04.46-1.62,4.06-1.24,8.32-.46,12.35.62,3.2-.47,6.09-.33,9.15.25,5.49.57,11,.68,16.48.08,3.94-.46,8-.7,12.02-.28,4.7,1.17,9.23,1.01,13.9-.05,1.58-.2,3.08-1,4.49-.68,1.2-1.7,2.06-3.02,1.74-4.94-1.17-9.82.54-14.74.12-3.09-.26-6.23.03-9.34-.08-2.97-.1-3.2-.66-3.73-3.58-1.4-7.74-.04-15.36.74-23,.19-1.82-.47-3.4-.93-4.97-.73-2.54-1.01-4.84.42-7.17.77-1.26.88-2.68.7-4.07-1.13-9.14-2.75-18.2-8.61-25.67-3.44-4.39-7.35-8.44-12.05-11.6-.78-.52-1.55-1.37-2.47-1.14-3.65.94-7.34,0-10.93.34-5.7.55-10.17,3.66-13.06,8.71-2.41,4.21-5.95,8.08-4.43,13.61.22.8-.31,1.49-.82,2.1-.99,1.19-1.17,2.65-.72,3.98,1.2,3.51.58,7.1.75,10.65.04.77.24,1.75-.13,2.3-3.31,4.99-1.65,10.48-1.72,15.79-.04,2.96,0,5.92,0,8.87-.03,6.99.9,13.89,1.94,20.77.38,2.48,1.18,4.88,3.41,6.4,4.2,2.86,6.41,7.48,9.85,11.02,1.47,1.51.25,2.86-.92,3.99-3.25,3.13-6.42,6.34-9.05,10.01-2.23,3.11-4.8,6.13-3.45,10.51.3.95.04,2.2-.3,3.2-.64,1.86-.47,3.59,0,5.47.8,3.2.91,6.64.19,9.72-.94,4.02-.23,8.08-1.1,12.02-.07.3-.28.72-.16.89,2.74,3.76.87,7.71.57,11.61-.11,1.37.02,2.81.3,4.16,1.25,5.95.11,11.95.21,17.9.04,2.73.31,5.49.5,8.18.4,5.37,1.1,10.76,2.68,15.97.61,2.02,1.76,3.43,3.55,4.66,5.42,3.74,11.15,5.29,17.63,3.48.88-.25,1.87-.35,2.77-.24,3.71.47,5.77-1.53,7.32-4.55,1.93-3.77,3.1-7.82,3.89-11.91.48-2.46,1.05-4.37,4.46-5.19Z"/>
      <path class="cls-2" d="M722.62,900.41c.46-4.38,3.54-6.59,5.59-9.33,2.25-3,5.42-5.11,8.54-7.14,5.62-3.66,11.52-6.82,18.03-8.58,6.83-1.85,13.22-.99,18.72,3.89,1.04.92,2.31,1.59,3.31,2.54,1.51,1.44,2.7,1.1,3.93-.32.61-.7,1.33-1.31,1.97-1.99,2.51-2.63,5.72-3.96,9.21-3.84,10.36.36,20.38,2.26,29.02,8.48,5.01,3.61,8.69,8.4,11.11,14.12.29.68.89,1.41.16,2.11-.63.6-1.47.46-2.21.25-2.54-.71-5.02-1.65-7.59-2.18-4.16-.86-8.34-.84-12.37.78-4.01,1.62-5.97,4.71-4.96,8.86.68,2.79.68,5.53.7,8.32.04,5.45.34,10.92-.04,16.34-.66,9.25-.18,18.51-.24,27.74-.06,9.59.08,19.25.25,28.87.04,2.45,1.29,4.15,2.57,5.82,3.02,3.93,6.21,7.73,9.45,11.48,5.9,6.85,6.13,7.73-.47,13.75-3.11,2.84-5.59,6.08-8,9.37-3.05,4.16-5.16,8.78-3.67,14.28.4,1.46.16,3.1.16,4.65.02,7.32.04,14.63,0,21.95-.01,2.27.5,4.64-1.41,6.61-.52.53-.45,1.77-.41,2.68.23,5.2.2,10.44.88,15.58,1.16,8.82,1.21,17.67.81,26.5-.17,3.69-.71,7.32.14,10.97.03.15-.01.31,0,.47.81,6.5,6.13,9.35,10.54,12.88,3.27,2.61,6.51.62,9.65-.58,1.29-.5,2.48-1.28,3.66-2.02.82-.51,1.69-1.17,2.55-.52,1.02.76.77,1.94.36,3-1.28,3.27-3.17,6.09-6.3,7.84-4.21,2.35-8.5,5.27-13.13,5.82-4.59.54-7.99,2.77-11.65,4.79-6.45,3.57-12.54,2.67-18.38-1.19-2.95-1.95-5.57-4.61-9.11-1.16-6.54,1.14-13.03,2.17-19.68.31-8.56-2.4-16.94-4.98-24.25-10.38-3.23-2.39-4.8-6.09-7.8-8.58-.22-.18-.22-.94-.02-1.24.4-.6,1.15-.52,1.7-.26,2.53,1.19,5.17,2.25,7.52,3.74,2.42,1.54,4.63,1.26,7.01.21,4.34-1.91,8.32-4.25,10.65-8.63.95-1.79,1.5-3.44.95-5.71-.67-2.75-1.18-5.84.86-8.51.34-.45.61-1.22.47-1.72-2.11-7.52-1.63-15.21-1.67-22.87-.05-7.78-.19-15.57.07-23.35.17-5.08.87-10.15,1.57-15.2.27-1.96,0-3.69-.68-5.45-1.04-2.68-1.54-5.45-.43-8.18.94-2.3-.91-4.27-.5-6.38,1.25-6.44-2.15-10.84-6.15-15.17-2.52-2.72-4.66-5.79-6.92-8.74-2.23-2.9-2.1-3,.17-5.89,4.71-5.98,9.22-12.1,12.46-19.04.52-1.12,1.26-2.33,1.22-3.47-.2-5.61.67-11.14,1.04-16.7.11-1.74-.32-3.36-.77-5.03-1.46-5.48-1.38-10.96-.44-16.57.95-5.62.99-11.39,2.07-17.02.14-.71.03-1.64-.32-2.26-3.94-7-4.02-14.42-2.57-22.04.35-1.85-.46-3.37-1.5-4.74-3.75-4.94-9.05-6.91-14.99-7.28-3.8-.24-6.57,2.49-10.44,4.24Z"/>
      <path class="cls-2" d="M166.88,1130.78c2.48,1.29,4.7,2.55,7.01,3.61,4.21,1.93,6.04,1.22,7.39-3.11,1.85-5.91,1.19-12.01.57-18-.23-2.19-.58-4.22.05-6.39.38-1.31.35-2.76.37-4.15.04-4.51-.34-9.06.09-13.53.59-6.08-.81-11.15-5.15-15.59-2.33-2.39-2.23-3.57.36-5.88,5.12-4.57,5.36-10.37,4.86-16.49-.11-1.39-.15-2.79-.15-4.19,0-8.4-.01-16.8.02-25.21,0-2.54.17-5.5-2.43-6.56-2.66-1.08-5.8-1.34-8.23,1.21-.43.45-.95.8-1.92.7-.54-2.01,1.4-2.84,2.22-4.05,4.57-6.75,8.63-8.76,17.57-5.31,2.77,1.07,4.77.97,7.38-.25,5.72-2.68,11.95-3.35,18.21-4.11,7.15-.87,13.37,1.22,19.48,4.31,3.14,1.59,5.53,4,7.1,7.15,1.26,2.51,2.84,4.74,4.63,6.93,4.43,5.42,6.56,11.95,7.89,18.68,1.49,7.57,2.61,15.21,3.78,22.84.38,2.45,2.27,3.67,3.81,5.1,1.72,1.59,1.85,3.05.55,4.84-1,1.38-2.04,2.75-2.91,4.21-2.09,3.49-3.31,7.09-3.44,11.37-.26,9.29-1.94,18.44-5.64,27.06-.88,2.05-.69,4.22-1.61,6.27-2.69,6.01-6.43,11.32-10.52,16.4-1.96,2.44-4.67,4.15-7.69,5.06-5.12,1.54-10.22,2.73-15.68,3.28-5.78.58-10.33-1.14-15.04-3.37-3.45-1.64-6.53-2.48-10.56-1.24-8.69,2.66-21.32-4.06-22.37-11.57ZM228.08,1041.09c0-4.69.14-8.12-.03-11.53-.29-5.9-4.18-9.71-10.08-10.08-2.16-.14-4.31.11-6.45-.66-1.59-.57-2.87.38-2.94,2.05-.16,3.96-1.98,7.82-.34,11.93.64,1.61.65,3.71-.44,5.41-.54.84-.55,1.63-.5,2.61.19,3.56.49,7.17.16,10.7-.65,6.89.45,12.92,6.65,17.06.13.08.23.21.33.33,2,2.31,2.07,3-.49,4.75-2.88,1.98-4.25,5.08-5.23,7.93-1.47,4.29-1.1,9.2-.84,13.62.32,5.35-.14,10.73.55,16.07.16,1.21.11,2.53-.21,3.7-1.32,4.79-.65,9.5.19,14.26.31,1.76,1.09,2.41,2.75,2.36,1.09-.03,2.18.05,3.27,0,7.08-.35,10.34-2.84,12.23-9.2,1.41-4.73,2.77-9.57,2.05-14.4-.52-3.48,1.13-6.75.13-10.05-.47-1.56-.3-2.92-.11-4.5.91-7.56.88-14.99-5.63-20.55-1.78-1.52-1.31-2.67.1-4.24,1.96-2.17,3.58-4.66,5.36-6.99.77-1.01,1.1-1.91.86-3.36-1.01-6.11-1.81-12.26-1.33-17.22Z"/>
      <path class="cls-2" d="M264.55,1133.46c1.47-.15,2.7.52,4.01,1.05,3.63,1.46,7.93-.93,8.03-4.89.12-4.79.67-9.62-.48-14.4-.36-1.48-.32-3.08-.33-4.63-.03-9.34-.06-18.68.01-28.02.02-2.28-.1-4.43-2.14-5.82-1.96-1.34-.97-4.65-3.8-5.43-.62-.17-.31-1.09,0-1.64.38-.68.67-1.48,1.22-1.97,4.08-3.61,4.57-8.19,4.91-13.38.41-6.31-.4-12.56.08-18.89.38-4.95-.09-10.2-.28-15.31-.08-2.01-.9-2.99-2.83-3.66-2.86-.99-5.52-2.07-8.14.45-.42.41-1.13.6-1.67.04-.5-.51-.33-1.13-.17-1.74.79-3.04,3.56-4.25,5.73-5.88,3.39-2.54,7.1-4.33,11.63-3.98,2.42.19,4.72.4,6.4,2.23,1.5,1.64,2.93,1.46,4.5.34,1.4-1,2.88-1.79,4.45-2.5,3.34-1.51,6.76-2.07,10.4-1.9,4.71.23,9.43-1.1,14.17.81,3,1.21,6.11,2.22,9.06,3.58,4.99,2.29,6.77,1.89,9.95-2.38.9-1.21,1.54-3.1,3.46-2.39,1.56.57,1.27,2.32,1.27,3.71,0,12.77.04,25.53-.01,38.3-.01,3.57-.55,4.05-4.03,4.16-2.33.07-4.67.04-7.01,0-3.4-.05-5.48-1.63-4.59-4.65,1.56-5.26-.64-10.46.6-15.59.23-.94-.19-1.81-.82-2.57-5.68-6.78-13.32-8.8-21.37-6.01-2.12.74-3.97,2.3-3.83,4.77.31,5.32-1.69,10.5-.94,15.76.6,4.26-.64,8.57.64,12.76.4,1.31-.54,2.39-.65,3.62-.35,3.82,1.47,5.54,5.21,4.65,1.4-.33,2.64-.47,4.08-.14,4.06.92,6.38-1.15,6.59-5.38.13-2.51-.95-4.49-2.27-6.48,4.94-.89,9.46,2.35,9.63,7.2.14,3.95,1.06,8.16-2.03,11.62-.57.64-.39,1.36.08,2.11,3.52,5.62,3.43,8.78-.33,13.74-1.18,1.56-2.77,2.58-4.67,2.82-1.49.19-3,.41-4.72.94,0-2.45,1.87-3.15,2.7-4.49.65-1.04,1.65-2.1,1.13-3.39-.54-1.34-1.94-1.32-3.22-1.37-2.47-.1-4.9.03-7.39-.6-2.82-.71-4.52,1.24-4.11,4.15.18,1.26.23,2.47-.17,3.68-1.1,3.35-.77,6.84-.42,10.18.29,2.79.19,5.42,0,8.19-.46,6.43-.25,12.91.78,19.31.83,5.21,4.13,7.72,9.27,6.95,5.18-.78,9.83-2.91,13.82-6.3,2.21-1.87,3.61-4.07,2.7-7.36-.72-2.61.12-5.4.08-8.13-.03-2.59.54-5.19-.17-7.8-.43-1.59.66-2.84,1.89-2.4,3.32,1.19,6.39-.71,9.63-.27,3.28.44,3.85.65,3.89,3.88.09,6.85.02,13.7.06,20.55.01,1.81-.61,3.37-1.69,4.73-6.05,7.61-12.77,14.25-22.34,17.55-9.63,3.33-18.62,2.17-27.22-2.77-2.38-1.37-4.13-2.26-6.56-.16-1.72,1.49-4.03,1.19-6.26.83-5.45-.89-9.58-4.25-13.93-7.22-.92-.63-1.48-1.59-1.48-2.78h.01Z"/>
      <path class="cls-2" d="M257.79,1174.58c26.63,0,53.26,0,79.89,0,1.09,0,2.18.06,3.27,0,2.18-.14,3.12.81,3.05,3.01-.09,2.8.07,5.61-.05,8.4-.12,2.88-.7,3.34-3.74,3.51-.93.05-1.87.01-2.8.01-53.26,0-106.52,0-159.79,0-.78,0-1.56.02-2.34,0-3.59-.14-4.08-.56-4.18-4.03-.08-2.64.06-5.29-.03-7.94-.08-2.23.94-3.1,3.09-2.97,1.09.07,2.18,0,3.27,0,26.79,0,53.57,0,80.36,0Z"/>
      <path class="cls-2" d="M264.54,1133.47c-.13-.08-.39-.18-.38-.22.08-.33.23-.25.39.21,0,0-.01.01-.01.01Z"/>
      <path class="cls-1" d="M296.54,687.87c.39-3.12,2.64-3.45,3.91-4.6,5.26-4.74,11.21-8.66,16.36-13.55.33-.31.77-.53,1.18-.72.67-.3,1.4-.99,2.09-.31.85.82.36,1.74-.27,2.46-2.75,3.16-5.84,5.97-9.29,8.33-4.29,2.93-8.55,5.93-14,8.4Z"/>
      <path class="cls-1" d="M115.92,775.04c-.25-1.62.3-3.02,2.19-3.85,2.27-1.01,4.5-2.12,6.68-3.32,1.66-.92,2.63-.09,3.53,1.09.92,1.19.03,1.96-.67,2.81-2.01,2.42-4.6,4.18-7.12,5.95-2.51,1.77-4.53.57-4.61-2.68Z"/>
      <path class="cls-1" d="M73.44,423.61c1.58-2.19,3.43-3.89,7.07-3.81-2.12,2.73-4.51,3.43-7.07,3.81Z"/>
      <path class="cls-1" d="M70.46,425.11c.18-.16.37-.45.55-.45.49,0,.7.37.5.8-.08.17-.48.31-.68.26-.17-.05-.25-.4-.38-.61Z"/>
      <path class="cls-1" d="M45.96,886.07c.03.12.12.31.09.34-.11.08-.26.09-.39.13-.03-.12-.12-.31-.09-.34.1-.08.26-.09.39-.13Z"/>
      <path class="cls-1" d="M709.94,1191.32c-.23-.14-.46-.28-.69-.42.25-.12.5-.34.74-.33.24,0,.47.25.7.39-.25.12-.49.24-.74.36Z"/>
      <path class="cls-1" d="M628.19,1181.1c.41.12.81.24,1.22.37-.67.85-.91.06-1.25-.34,0,0,.03-.03.03-.03Z"/>
      <path class="cls-1" d="M1610.63,712.96c.21-.41.85-.89.94-.67.45,1.08-.6.45-.93.68,0,0,0-.01,0-.01Z"/>
      <path class="cls-1" d="M1218.96,510.19c.21-.41.84-.89.94-.67.45,1.07-.59.45-.92.68,0,0-.01-.01-.01-.01Z"/>
      <rect class="cls-2" x="284.75" y="663.78" width="54.1" height="54.1"/>
      <rect class="cls-2" x="107.68" y="741.07" width="28.81" height="70.26"/>
      <rect class="cls-2" x="1056.91" y="425.45" width="77.66" height="303.73"/>
      <polygon class="cls-2" points="156.18 568.85 264.73 896.3 295.82 801.18 200.09 632.26 156.18 568.85"/>
      <polygon class="cls-2" points="151.91 841.42 156.18 568.85 132.4 574.33 132.4 770.08 151.91 841.42"/>
      <polygon class="cls-2" points="59.23 865.81 59.23 629.82 79.96 663.78 79.96 798.74 66.54 868.86 59.23 865.81"/>
      <polygon class="cls-2" points="59.23 357.25 59.23 572.5 108.62 496.89 112.28 384.08 59.23 357.25"/>
      <polygon class="cls-2" points="161.51 321.13 182.16 335.78 196.81 351.77 209.47 377.08 268.75 552.27 302.06 656.18 178.16 488.65 161.51 321.13"/>
      <polygon class="cls-2" points="302.06 373.75 302.06 656.18 351.35 568.85 338.85 457.01 302.06 373.75"/>
      <polygon class="cls-2" points="395.31 357.25 395.31 568.85 370.67 510.3 374.66 413.72 395.31 357.25"/>
      <polygon class="cls-2" points="429.95 594.23 385.99 534.95 370.67 564.59 418.63 603.56 429.95 594.23"/>
      <polygon class="cls-2" points="395.31 647.52 392.65 887.32 351.35 702.14 395.31 647.52"/>
    </g>
  </g>
</svg>