<?xml version="1.0" encoding="UTF-8"?>
<svg id="Layer_2" data-name="Layer 2" xmlns="http://www.w3.org/2000/svg" xmlns:xlink="http://www.w3.org/1999/xlink" viewBox="0 0 484.17 613.07">
  <defs>
    <style>
      .cls-1, .cls-2, .cls-3, .cls-4, .cls-5 {
        fill: none;
      }

      .cls-6 {
        fill: #192549;
      }

      .cls-7 {
        fill: #0b172c;
      }

      .cls-8 {
        fill: url(#Unnamed_Pattern);
      }

      .cls-9 {
        fill: #2f2e40;
      }

      .cls-10 {
        fill: #977971;
      }

      .cls-11 {
        fill: #d2a350;
      }

      .cls-12 {
        fill: #d9d9d9;
      }

      .cls-13 {
        fill: #ede6dd;
      }

      .cls-14 {
        fill: #ebe4d8;
      }

      .cls-15 {
        fill: #74141f;
      }

      .cls-16 {
        fill: #143739;
      }

      .cls-2 {
        stroke-width: .75px;
      }

      .cls-2, .cls-3, .cls-4, .cls-5 {
        stroke-miterlimit: 10;
      }

      .cls-2, .cls-5 {
        stroke: #d9d9d9;
      }

      .cls-17 {
        fill: #895e2d;
      }

      .cls-18 {
        clip-path: url(#clippath-1);
      }

      .cls-19 {
        fill: #234242;
      }

      .cls-20 {
        fill: #cd6794;
      }

      .cls-21 {
        fill: #faeac1;
      }

      .cls-22 {
        fill: #e8d5a5;
      }

      .cls-23 {
        fill: #6b544f;
      }

      .cls-24 {
        fill: #e8e2d8;
      }

      .cls-25 {
        fill: #e9a96c;
      }

      .cls-26 {
        fill: #f7f0e3;
      }

      .cls-27 {
        fill: #96646b;
      }

      .cls-3 {
        stroke-width: 9px;
      }

      .cls-3, .cls-4 {
        stroke: #4f3e3b;
      }

      .cls-28 {
        fill: #f4d47c;
      }

      .cls-4 {
        stroke-width: 6px;
      }

      .cls-29 {
        fill: #e3af63;
      }

      .cls-30 {
        fill: #4f3e3b;
      }

      .cls-31 {
        fill: #801d1d;
      }

      .cls-32 {
        fill: #981e16;
      }

      .cls-33 {
        fill: #991e17;
      }

      .cls-34 {
        fill: #15254c;
      }

      .cls-35 {
        fill: #866c64;
      }

      .cls-36 {
        clip-path: url(#clippath);
      }

      .cls-37 {
        fill: #59423e;
      }

      .cls-38 {
        fill: #6d7c52;
      }
    </style>
    <clipPath id="clippath">
      <rect class="cls-1" width="484.17" height="613.07"/>
    </clipPath>
    <clipPath id="clippath-1">
      <rect class="cls-1" width="46.7" height="28.36"/>
    </clipPath>
    <pattern id="Unnamed_Pattern" data-name="Unnamed Pattern" x="0" y="0" width="46.7" height="28.36" patternTransform="translate(-7101.71 -10066.43) scale(.1 -.1)" patternUnits="userSpaceOnUse" viewBox="0 0 46.7 28.36">
      <g>
        <rect class="cls-1" width="46.7" height="28.36"/>
        <g class="cls-18">
          <path class="cls-4" d="M67.37-8.01c-9.71,19.28-30.79,19.28-41.39,0"/>
          <path class="cls-4" d="M20.67-8.01c-9.71,19.28-30.79,19.28-41.39,0"/>
          <path class="cls-4" d="M44.02,6.17c-9.71,19.28-30.79,19.28-41.39,0"/>
          <path class="cls-4" d="M67.37,20.35c-9.71,19.28-30.79,19.28-41.39,0"/>
          <path class="cls-4" d="M20.67,20.35c-9.71,19.28-30.79,19.28-41.39,0"/>
        </g>
      </g>
    </pattern>
  </defs>
  <g id="Layer_1-2" data-name="Layer 1">
    <g class="cls-36">
      <path class="cls-6" d="M434.85,4.39h-22.67c3.51,8.79-.62,18.83-9.23,22.41-2.02.84-4.18,1.27-6.36,1.27h-99.48c-9.3,0-16.83-7.7-16.83-17.19,0-2.23.42-4.43,1.25-6.49h-21.17c-19.56,0-35.42,16.2-35.42,36.19v458.63c0,19.99,15.86,36.19,35.42,36.19h174.48c19.56,0,35.42-16.2,35.42-36.19V40.58c0-19.98-15.86-36.19-35.42-36.19Z"/>
      <line class="cls-3" x1="235.79" y1="485.21" x2="239.96" y2="485.21"/>
      <rect class="cls-23" x="245.45" y="525.26" width="5.54" height="5.49"/>
      <polygon class="cls-35" points="235.79 482.98 253.84 472.15 291.77 471.87 306.38 482.98 235.79 482.98"/>
      <polygon class="cls-8" points="235.79 482.98 253.84 472.15 291.77 471.87 307.1 483.3 235.79 482.98"/>
      <rect class="cls-35" x="235.79" y="482.98" width="70.6" height="47.77"/>
      <rect class="cls-10" x="245.45" y="524.32" width="5.54" height="6.43"/>
      <polygon class="cls-15" points="378.49 530.82 459.77 530.82 459.77 471.25 451.97 462.17 386.03 462.17 378.49 470.95 378.49 530.82"/>
      <polygon class="cls-15" points="391.87 469.54 400.03 469.54 400.03 462.17 395.95 458.93 391.87 462.17 391.87 469.54"/>
      <path class="cls-15" d="M400.28,469.79h-8.67v-7.74l4.33-3.44,4.33,3.44v7.74ZM392.12,469.29h7.66v-7l-3.83-3.04-3.83,3.04v7Z"/>
      <path class="cls-16" d="M397.54,467.85h-3.19v-3.6c0-.88.71-1.59,1.59-1.59s1.59.71,1.59,1.59v3.6Z"/>
      <path class="cls-16" d="M399.9,481.79h-4.89v-5.52c0-1.35,1.1-2.45,2.45-2.45s2.45,1.1,2.45,2.45v5.52Z"/>
      <path class="cls-16" d="M411.34,481.79h-4.89v-5.52c0-1.35,1.1-2.45,2.45-2.45s2.45,1.1,2.45,2.45v5.52Z"/>
      <path class="cls-25" d="M388.5,481.79h-4.89v-5.52c0-1.35,1.1-2.45,2.45-2.45s2.45,1.1,2.45,2.45v5.52Z"/>
      <rect class="cls-23" x="383.61" y="476.37" width="4.89" height="1.01"/>
      <polygon class="cls-15" points="404.73 469.54 412.89 469.54 412.89 462.17 408.81 458.93 404.73 462.17 404.73 469.54"/>
      <path class="cls-15" d="M413.15,469.79h-8.67v-7.74l4.33-3.44,4.33,3.44v7.74ZM404.98,469.29h7.66v-7l-3.83-3.04-3.83,3.04v7Z"/>
      <path class="cls-16" d="M410.41,467.85h-3.19v-3.6c0-.88.71-1.59,1.59-1.59s1.59.71,1.59,1.59v3.6Z"/>
      <polygon class="cls-15" points="426.83 469.54 434.99 469.54 434.99 462.17 430.91 458.93 426.83 462.17 426.83 469.54"/>
      <path class="cls-15" d="M435.24,469.79h-8.67v-7.74l4.33-3.44,4.33,3.44v7.74ZM427.08,469.29h7.66v-7l-3.83-3.04-3.83,3.04v7Z"/>
      <path class="cls-25" d="M432.5,467.85h-3.19v-3.6c0-.88.71-1.59,1.59-1.59s1.59.71,1.59,1.59v3.6Z"/>
      <polygon class="cls-15" points="439.69 469.54 447.85 469.54 447.85 462.17 443.77 458.93 439.69 462.17 439.69 469.54"/>
      <path class="cls-15" d="M448.11,469.79h-8.67v-7.74l4.33-3.44,4.33,3.44v7.74ZM439.94,469.29h7.66v-7l-3.83-3.04-3.83,3.04v7Z"/>
      <path class="cls-25" d="M445.37,467.85h-3.19v-3.6c0-.88.71-1.59,1.59-1.59s1.59.71,1.59,1.59v3.6Z"/>
      <path class="cls-16" d="M422.24,481.79h-4.89v-5.52c0-1.35,1.1-2.45,2.45-2.45s2.45,1.1,2.45,2.45v5.52Z"/>
      <path class="cls-16" d="M433.48,481.79h-4.89v-5.52c0-1.35,1.1-2.45,2.45-2.45s2.45,1.1,2.45,2.45v5.52Z"/>
      <path class="cls-25" d="M444.87,481.79h-4.89v-5.52c0-1.35,1.1-2.45,2.45-2.45s2.45,1.1,2.45,2.45v5.52Z"/>
      <rect class="cls-23" x="439.98" y="476.37" width="4.89" height="1.01"/>
      <path class="cls-25" d="M455.6,481.79h-4.89v-5.52c0-1.35,1.1-2.45,2.45-2.45s2.45,1.1,2.45,2.45v5.52Z"/>
      <rect class="cls-23" x="450.71" y="476.37" width="4.89" height="1.01"/>
      <path class="cls-16" d="M433.48,495.03h-4.89v-5.52c0-1.35,1.1-2.45,2.45-2.45s2.45,1.1,2.45,2.45v5.52Z"/>
      <path class="cls-16" d="M444.87,495.03h-4.89v-5.52c0-1.35,1.1-2.45,2.45-2.45s2.45,1.1,2.45,2.45v5.52Z"/>
      <path class="cls-16" d="M455.6,495.03h-4.89v-5.52c0-1.35,1.1-2.45,2.45-2.45s2.45,1.1,2.45,2.45v5.52Z"/>
      <path class="cls-25" d="M411.34,495.03h-4.89v-5.52c0-1.35,1.1-2.45,2.45-2.45s2.45,1.1,2.45,2.45v5.52Z"/>
      <rect class="cls-23" x="406.45" y="489.61" width="4.89" height="1.01"/>
      <path class="cls-25" d="M422.24,495.03h-4.89v-5.52c0-1.35,1.1-2.45,2.45-2.45s2.45,1.1,2.45,2.45v5.52Z"/>
      <rect class="cls-23" x="417.35" y="489.61" width="4.89" height="1.01"/>
      <path class="cls-25" d="M388.5,508.79h-4.89v-5.52c0-1.35,1.1-2.45,2.45-2.45s2.45,1.1,2.45,2.45v5.52Z"/>
      <rect class="cls-23" x="383.61" y="503.37" width="4.89" height="1.01"/>
      <path class="cls-25" d="M399.9,508.73h-4.89v-5.52c0-1.35,1.1-2.45,2.45-2.45s2.45,1.1,2.45,2.45v5.52Z"/>
      <rect class="cls-23" x="395.01" y="503.31" width="4.89" height="1.01"/>
      <path class="cls-25" d="M411.34,508.73h-4.89v-5.52c0-1.35,1.1-2.45,2.45-2.45s2.45,1.1,2.45,2.45v5.52Z"/>
      <rect class="cls-23" x="406.45" y="503.31" width="4.89" height="1.01"/>
      <path class="cls-25" d="M422.24,508.73h-4.89v-5.52c0-1.35,1.1-2.45,2.45-2.45s2.45,1.1,2.45,2.45v5.52Z"/>
      <rect class="cls-23" x="417.35" y="503.31" width="4.89" height="1.01"/>
      <path class="cls-16" d="M433.48,508.73h-4.89v-5.52c0-1.35,1.1-2.45,2.45-2.45s2.45,1.1,2.45,2.45v5.52Z"/>
      <path class="cls-16" d="M444.87,508.73h-4.89v-5.52c0-1.35,1.1-2.45,2.45-2.45s2.45,1.1,2.45,2.45v5.52Z"/>
      <path class="cls-16" d="M455.6,508.73h-4.89v-5.52c0-1.35,1.1-2.45,2.45-2.45s2.45,1.1,2.45,2.45v5.52Z"/>
      <path class="cls-16" d="M388.5,521.5h-4.89v-5.52c0-1.35,1.1-2.45,2.45-2.45s2.45,1.1,2.45,2.45v5.52Z"/>
      <path class="cls-16" d="M411.34,521.5h-4.89v-5.52c0-1.35,1.1-2.45,2.45-2.45s2.45,1.1,2.45,2.45v5.52Z"/>
      <path class="cls-16" d="M422.24,521.5h-4.89v-5.52c0-1.35,1.1-2.45,2.45-2.45s2.45,1.1,2.45,2.45v5.52Z"/>
      <path class="cls-16" d="M433.48,521.5h-4.89v-5.52c0-1.35,1.1-2.45,2.45-2.45s2.45,1.1,2.45,2.45v5.52Z"/>
      <path class="cls-25" d="M399.99,521.5h-4.89v-5.52c0-1.35,1.1-2.45,2.45-2.45s2.45,1.1,2.45,2.45v5.52Z"/>
      <rect class="cls-23" x="395.1" y="516.08" width="4.89" height="1.01"/>
      <path class="cls-25" d="M444.87,521.5h-4.89v-5.52c0-1.35,1.1-2.45,2.45-2.45s2.45,1.1,2.45,2.45v5.52Z"/>
      <rect class="cls-23" x="439.98" y="516.08" width="4.89" height="1.01"/>
      <path class="cls-25" d="M455.6,521.5h-4.89v-5.52c0-1.35,1.1-2.45,2.45-2.45s2.45,1.1,2.45,2.45v5.52Z"/>
      <rect class="cls-23" x="450.71" y="516.08" width="4.89" height="1.01"/>
      <rect class="cls-30" x="378.49" y="470.45" width="81.28" height="1.01"/>
      <rect class="cls-30" x="378.49" y="494.53" width="81.28" height="1.01"/>
      <rect class="cls-30" x="378.49" y="497.91" width="81.28" height="1.01"/>
      <path class="cls-16" d="M388.34,494.6h-4.89v-5.52c0-1.35,1.1-2.45,2.45-2.45s2.45,1.1,2.45,2.45v5.52Z"/>
      <path class="cls-16" d="M399.78,494.6h-4.89v-5.52c0-1.35,1.1-2.45,2.45-2.45s2.45,1.1,2.45,2.45v5.52Z"/>
      <path class="cls-16" d="M256.81,499.04h-4.88v-5.53c0-1.35,1.09-2.44,2.44-2.44s2.44,1.09,2.44,2.44v5.53Z"/>
      <path class="cls-16" d="M268.21,499.04h-4.88v-5.53c0-1.35,1.09-2.44,2.44-2.44s2.44,1.09,2.44,2.44v5.53Z"/>
      <path class="cls-16" d="M245.45,499.04h-4.88v-5.53c0-1.35,1.09-2.44,2.44-2.44s2.44,1.09,2.44,2.44v5.53Z"/>
      <rect class="cls-16" x="240.57" y="493.62" width="4.88" height="1.01"/>
      <path class="cls-16" d="M279.08,499.04h-4.88v-5.53c0-1.35,1.09-2.44,2.44-2.44s2.44,1.09,2.44,2.44v5.53Z"/>
      <path class="cls-25" d="M290.28,499.04h-4.88v-5.53c0-1.35,1.09-2.44,2.44-2.44s2.44,1.09,2.44,2.44v5.53Z"/>
      <path class="cls-25" d="M301.63,499.04h-4.88v-5.53c0-1.35,1.09-2.44,2.44-2.44s2.44,1.09,2.44,2.44v5.53Z"/>
      <rect class="cls-23" x="296.75" y="493.62" width="4.88" height="1.01"/>
      <path class="cls-25" d="M256.46,511.85h-4.88v-5.53c0-1.35,1.09-2.44,2.44-2.44s2.44,1.09,2.44,2.44v5.53Z"/>
      <path class="cls-16" d="M267.86,511.85h-4.88v-5.53c0-1.35,1.09-2.44,2.44-2.44s2.44,1.09,2.44,2.44v5.53Z"/>
      <path class="cls-25" d="M245.09,511.85h-4.88v-5.53c0-1.35,1.09-2.44,2.44-2.44s2.44,1.09,2.44,2.44v5.53Z"/>
      <rect class="cls-23" x="240.22" y="506.42" width="4.88" height="1.01"/>
      <path class="cls-16" d="M278.72,511.85h-4.88v-5.53c0-1.35,1.09-2.44,2.44-2.44s2.44,1.09,2.44,2.44v5.53Z"/>
      <path class="cls-16" d="M289.93,511.85h-4.88v-5.53c0-1.35,1.09-2.44,2.44-2.44s2.44,1.09,2.44,2.44v5.53Z"/>
      <path class="cls-25" d="M301.27,511.85h-4.88v-5.53c0-1.35,1.09-2.44,2.44-2.44s2.44,1.09,2.44,2.44v5.53Z"/>
      <rect class="cls-23" x="296.4" y="506.42" width="4.88" height="1.01"/>
      <rect class="cls-30" x="235.79" y="482.98" width="70.6" height="1.01"/>
      <rect class="cls-23" x="285.48" y="493.63" width="4.88" height="1.01"/>
      <rect class="cls-23" x="251.58" y="506.42" width="4.88" height="1.01"/>
      <rect class="cls-23" x="239.71" y="517.89" width="5.73" height="12.87"/>
      <rect class="cls-23" x="250.99" y="517.89" width="5.73" height="12.87"/>
      <rect class="cls-23" x="265.89" y="517.89" width="10.4" height="12.87"/>
      <rect class="cls-23" x="284.48" y="517.89" width="5.73" height="12.87"/>
      <rect class="cls-23" x="295.76" y="517.89" width="5.73" height="12.87"/>
      <rect class="cls-10" x="256.72" y="524.32" width="5.86" height="6.43"/>
      <rect class="cls-10" x="235.67" y="524.32" width="4.04" height="6.43"/>
      <rect class="cls-37" x="267.15" y="520.91" width="3.39" height="6.97"/>
      <rect class="cls-37" x="271.88" y="520.91" width="3.39" height="6.97"/>
      <rect class="cls-37" x="267.15" y="528.41" width="3.39" height="1.47"/>
      <rect class="cls-37" x="271.88" y="528.41" width="3.39" height="1.47"/>
      <rect class="cls-37" x="267.17" y="518.82" width="3.39" height="1.47"/>
      <rect class="cls-37" x="271.91" y="518.82" width="3.39" height="1.47"/>
      <rect class="cls-37" x="251.62" y="520.89" width="1.85" height="6.97"/>
      <rect class="cls-37" x="254.21" y="520.89" width="1.85" height="6.97"/>
      <rect class="cls-37" x="251.62" y="528.38" width="1.85" height="1.47"/>
      <rect class="cls-37" x="254.21" y="528.38" width="1.85" height="1.47"/>
      <rect class="cls-37" x="251.64" y="518.79" width="1.85" height="1.47"/>
      <rect class="cls-37" x="254.23" y="518.79" width="1.85" height="1.47"/>
      <rect class="cls-37" x="240.35" y="520.7" width="1.85" height="6.97"/>
      <rect class="cls-37" x="242.94" y="520.7" width="1.85" height="6.97"/>
      <rect class="cls-37" x="240.35" y="528.2" width="1.85" height="1.47"/>
      <rect class="cls-37" x="242.94" y="528.2" width="1.85" height="1.47"/>
      <rect class="cls-37" x="240.36" y="518.61" width="1.85" height="1.47"/>
      <rect class="cls-37" x="242.96" y="518.61" width="1.85" height="1.47"/>
      <rect class="cls-37" x="296.3" y="520.98" width="1.85" height="6.97"/>
      <rect class="cls-37" x="298.89" y="520.98" width="1.85" height="6.97"/>
      <rect class="cls-37" x="296.3" y="528.47" width="1.85" height="1.47"/>
      <rect class="cls-37" x="298.89" y="528.47" width="1.85" height="1.47"/>
      <rect class="cls-37" x="296.32" y="518.88" width="1.85" height="1.47"/>
      <rect class="cls-37" x="298.9" y="518.88" width="1.85" height="1.47"/>
      <rect class="cls-37" x="285.03" y="520.79" width="1.85" height="6.97"/>
      <rect class="cls-37" x="287.62" y="520.79" width="1.85" height="6.97"/>
      <rect class="cls-37" x="285.03" y="528.29" width="1.85" height="1.47"/>
      <rect class="cls-37" x="287.62" y="528.29" width="1.85" height="1.47"/>
      <rect class="cls-37" x="285.04" y="518.7" width="1.85" height="1.47"/>
      <rect class="cls-37" x="287.63" y="518.7" width="1.85" height="1.47"/>
      <rect class="cls-15" x="259.15" y="514.96" width=".99" height="15.8"/>
      <rect class="cls-15" x="235.79" y="514.96" width=".99" height="15.8"/>
      <rect class="cls-15" x="235.79" y="514.54" width="70.6" height=".98"/>
      <rect class="cls-15" x="247.72" y="514.95" width=".99" height="15.8"/>
      <rect class="cls-15" x="281.46" y="514.97" width=".99" height="15.8"/>
      <rect class="cls-15" x="292.89" y="514.97" width=".99" height="15.8"/>
      <rect class="cls-15" x="305.39" y="515.04" width=".99" height="15.8"/>
      <polyline class="cls-15" points="260.15 526.77 234.45 526.77 234.45 525.79 260.15 525.79"/>
      <polyline class="cls-15" points="281.46 525.79 306.38 525.79 306.38 526.77 281.46 526.77"/>
      <rect class="cls-15" x="236.83" y="526.77" width=".65" height="3.99"/>
      <rect class="cls-15" x="238.41" y="526.77" width=".65" height="3.99"/>
      <rect class="cls-15" x="239.98" y="526.77" width=".65" height="3.99"/>
      <rect class="cls-15" x="241.55" y="526.77" width=".65" height="3.99"/>
      <rect class="cls-15" x="243" y="526.77" width=".65" height="3.99"/>
      <rect class="cls-15" x="244.57" y="526.77" width=".65" height="3.99"/>
      <rect class="cls-15" x="246.15" y="526.77" width=".65" height="3.99"/>
      <rect class="cls-15" x="247.72" y="526.77" width=".65" height="3.99"/>
      <rect class="cls-15" x="249.79" y="526.77" width=".65" height="3.99"/>
      <rect class="cls-15" x="251.36" y="526.77" width=".65" height="3.99"/>
      <rect class="cls-15" x="252.93" y="526.77" width=".65" height="3.99"/>
      <rect class="cls-15" x="254.51" y="526.77" width=".65" height="3.99"/>
      <rect class="cls-15" x="255.96" y="526.77" width=".65" height="3.99"/>
      <rect class="cls-15" x="257.53" y="526.77" width=".65" height="3.99"/>
      <rect class="cls-15" x="283.45" y="526.77" width=".65" height="3.99"/>
      <rect class="cls-15" x="285.02" y="526.77" width=".65" height="3.99"/>
      <rect class="cls-15" x="286.6" y="526.77" width=".65" height="3.99"/>
      <rect class="cls-15" x="288.17" y="526.77" width=".65" height="3.99"/>
      <rect class="cls-15" x="289.62" y="526.77" width=".65" height="3.99"/>
      <rect class="cls-15" x="291.19" y="526.77" width=".65" height="3.99"/>
      <rect class="cls-15" x="294.71" y="526.77" width=".65" height="3.99"/>
      <rect class="cls-15" x="296.28" y="526.77" width=".65" height="3.99"/>
      <rect class="cls-15" x="297.85" y="526.77" width=".65" height="3.99"/>
      <rect class="cls-15" x="299.42" y="526.77" width=".65" height="3.99"/>
      <rect class="cls-15" x="300.88" y="526.77" width=".65" height="3.99"/>
      <rect class="cls-15" x="302.45" y="526.77" width=".65" height="3.99"/>
      <rect class="cls-14" x="359.85" y="443.29" width="18.39" height="85.61"/>
      <rect class="cls-14" x="306.49" y="443.6" width="18.39" height="86.16"/>
      <rect class="cls-14" x="306.49" y="459.82" width="71.99" height="71.35"/>
      <rect class="cls-31" x="306.49" y="526.51" width="71.99" height="4.66"/>
      <path class="cls-32" d="M369.05,433.85c-5.21,0-9.44,4.23-9.44,9.44h18.88c0-5.21-4.23-9.44-9.44-9.44"/>
      <path class="cls-32" d="M315.69,434.38c-5.21,0-9.44,4.23-9.44,9.44h18.88c0-5.21-4.23-9.44-9.44-9.44"/>
      <rect class="cls-26" x="356.83" y="456" width="3.3" height="68.89"/>
      <rect class="cls-15" x="356.5" y="524.69" width="3.97" height="4.21"/>
      <rect class="cls-32" x="356.68" y="523.35" width="3.59" height="1.35"/>
      <rect class="cls-26" x="324.89" y="456" width="3.3" height="69.25"/>
      <rect class="cls-15" x="324.55" y="525.06" width="3.97" height="3.99"/>
      <rect class="cls-32" x="324.74" y="523.79" width="3.59" height="1.27"/>
      <rect class="cls-24" x="366.77" y="429.29" width="4.05" height="5.31"/>
      <polygon class="cls-26" points="365.64 427.92 366.77 429.29 370.82 429.29 371.84 427.92 365.64 427.92"/>
      <polygon class="cls-32" points="366.77 427.92 368.8 423.82 370.82 427.92 366.77 427.92"/>
      <rect class="cls-24" x="313.32" y="429.25" width="4.05" height="5.31"/>
      <polygon class="cls-26" points="312.19 427.88 313.32 429.25 317.37 429.25 318.39 427.88 312.19 427.88"/>
      <polygon class="cls-32" points="313.32 427.88 315.35 423.78 317.37 427.88 313.32 427.88"/>
      <rect class="cls-26" x="374.89" y="515.73" width="2.1" height="10.9"/>
      <rect class="cls-15" x="374.67" y="526.51" width="2.52" height="2.53"/>
      <rect class="cls-32" x="374.79" y="525.71" width="2.28" height=".81"/>
      <rect class="cls-26" x="362.25" y="515.73" width="2.1" height="10.9"/>
      <rect class="cls-15" x="362.03" y="526.51" width="2.52" height="2.53"/>
      <rect class="cls-32" x="362.15" y="525.71" width="2.28" height=".81"/>
      <rect class="cls-24" x="362.25" y="512.3" width="14.74" height="3.43"/>
      <rect class="cls-13" x="361.83" y="511.31" width="15.45" height=".99"/>
      <polygon class="cls-26" points="361.59 511.31 361.59 510.77 369.45 506.28 377.28 510.77 377.28 511.31 361.59 511.31"/>
      <polygon class="cls-24" points="364.34 510.46 369.43 507.72 374.89 510.46 364.34 510.46"/>
      <path class="cls-15" d="M369.55,516.37h0c-2.52,0-4.55,2.04-4.55,4.55v8.03h9.11v-8.03c0-2.51-2.04-4.55-4.55-4.55"/>
      <rect class="cls-26" x="321.68" y="515.73" width="2.1" height="10.9"/>
      <rect class="cls-15" x="321.47" y="526.51" width="2.52" height="2.53"/>
      <rect class="cls-32" x="321.59" y="525.71" width="2.28" height=".81"/>
      <rect class="cls-26" x="309.04" y="515.73" width="2.1" height="10.9"/>
      <rect class="cls-15" x="308.83" y="526.51" width="2.52" height="2.53"/>
      <rect class="cls-32" x="308.95" y="525.71" width="2.28" height=".81"/>
      <rect class="cls-24" x="309.04" y="512.3" width="14.74" height="3.43"/>
      <rect class="cls-13" x="308.62" y="511.31" width="15.45" height=".99"/>
      <polygon class="cls-26" points="308.38 511.31 308.38 510.77 316.24 506.28 324.08 510.77 324.08 511.31 308.38 511.31"/>
      <polygon class="cls-24" points="311.14 510.46 316.23 507.72 321.68 510.46 311.14 510.46"/>
      <path class="cls-15" d="M316.35,516.37h0c-2.52,0-4.55,2.04-4.55,4.55v8.03h9.11v-8.03c0-2.51-2.04-4.55-4.55-4.55"/>
      <path class="cls-16" d="M315.69,488.56h0c-2.52,0-4.55,2.04-4.55,4.55v10.85h9.11v-10.85c0-2.51-2.04-4.55-4.55-4.55"/>
      <path class="cls-16" d="M374.28,472.21c0-2.68-2.17-4.85-4.85-4.85s-4.85,2.17-4.85,4.85,2.17,4.85,4.85,4.85,4.85-2.17,4.85-4.85"/>
      <path class="cls-16" d="M320.54,472.67c0-2.68-2.17-4.85-4.85-4.85s-4.85,2.17-4.85,4.85,2.17,4.85,4.85,4.85,4.85-2.17,4.85-4.85"/>
      <path class="cls-16" d="M342.6,485.64h0c-1.16,0-2.09.94-2.09,2.09v7.73h4.19v-7.73c0-1.16-.94-2.09-2.09-2.09"/>
      <rect class="cls-26" x="351.1" y="508.08" width="3.3" height="17.17"/>
      <rect class="cls-15" x="350.76" y="525.06" width="3.97" height="3.99"/>
      <rect class="cls-32" x="350.95" y="523.79" width="3.59" height="1.27"/>
      <rect class="cls-26" x="331.2" y="508.08" width="3.3" height="17.17"/>
      <rect class="cls-15" x="330.86" y="525.06" width="3.97" height="3.99"/>
      <rect class="cls-32" x="331.05" y="523.79" width="3.59" height="1.27"/>
      <rect class="cls-24" x="331.2" y="502.68" width="23.2" height="5.4"/>
      <rect class="cls-13" x="330.53" y="501.12" width="24.33" height="1.56"/>
      <polygon class="cls-26" points="330.16 501.12 330.16 500.27 342.53 493.2 354.86 500.27 354.86 501.12 330.16 501.12"/>
      <polygon class="cls-24" points="334.5 499.78 342.51 495.46 351.1 499.78 334.5 499.78"/>
      <path class="cls-15" d="M342.7,509.08h0c-3.96,0-7.17,3.21-7.17,7.17v12.65h14.34v-12.65c0-3.96-3.21-7.17-7.17-7.17"/>
      <rect class="cls-12" x="305.51" y="459.82" width="73.56" height="1.58"/>
      <rect class="cls-12" x="305.51" y="480.56" width="73.56" height="1.58"/>
      <rect class="cls-12" x="309.16" y="485.99" width="13.43" height=".99"/>
      <rect class="cls-26" x="309.84" y="486.98" width=".97" height="17.61"/>
      <rect class="cls-26" x="320.84" y="486.98" width=".97" height="17.61"/>
      <path class="cls-5" d="M309.61,486.48c3.73-4.62,8.91-4.52,12.53,0"/>
      <path class="cls-16" d="M369.25,487.93h0c-2.52,0-4.55,2.04-4.55,4.55v10.85h9.11v-10.85c0-2.51-2.04-4.55-4.55-4.55"/>
      <rect class="cls-12" x="362.72" y="485.36" width="13.43" height=".99"/>
      <rect class="cls-26" x="363.39" y="486.35" width=".97" height="17.61"/>
      <rect class="cls-26" x="374.39" y="486.35" width=".97" height="17.61"/>
      <path class="cls-2" d="M363.17,485.86c3.73-4.62,8.91-4.52,12.53,0"/>
      <path class="cls-12" d="M346.44,469.79c0-2.18-1.77-3.95-3.95-3.95s-3.95,1.77-3.95,3.95,1.77,3.95,3.95,3.95,3.95-1.77,3.95-3.95"/>
      <path class="cls-26" d="M369.05,448.6h0c2.03,0,3.67,1.64,3.67,3.67v7.55h-7.34v-7.55c0-2.03,1.64-3.67,3.67-3.67"/>
      <path class="cls-16" d="M369.05,450.05h0c1.39,0,2.51,1.13,2.51,2.51v7.26h-5.03v-7.26c0-1.39,1.12-2.51,2.51-2.51"/>
      <path class="cls-26" d="M315.68,448.6h0c2.03,0,3.67,1.64,3.67,3.67v7.55h-7.34v-7.55c0-2.03,1.64-3.67,3.67-3.67"/>
      <path class="cls-16" d="M315.68,450.05h0c1.39,0,2.51,1.13,2.51,2.51v7.26h-5.03v-7.26c0-1.39,1.12-2.51,2.51-2.51"/>
      <rect class="cls-13" x="328.08" y="457.84" width="28.75" height="1.97"/>
      <polygon class="cls-26" points="327.64 457.84 327.64 456.77 342.26 447.84 356.83 456.77 356.83 457.84 327.64 457.84"/>
      <polygon class="cls-24" points="332.76 456.15 342.23 450.69 352.38 456.15 332.76 456.15"/>
      <rect class="cls-24" x="356.46" y="455.15" width="4" height=".85"/>
      <rect class="cls-26" x="357.65" y="452.84" width="1.65" height="2.31"/>
      <path class="cls-24" d="M359.57,452.52c0-.6-.49-1.09-1.09-1.09s-1.09.49-1.09,1.09.49,1.09,1.09,1.09,1.09-.49,1.09-1.09"/>
      <rect class="cls-24" x="324.54" y="455.32" width="4" height=".85"/>
      <rect class="cls-26" x="325.73" y="453.01" width="1.65" height="2.31"/>
      <path class="cls-24" d="M327.65,452.69c0-.6-.49-1.09-1.09-1.09s-1.09.49-1.09,1.09.49,1.09,1.09,1.09,1.09-.49,1.09-1.09"/>
      <rect class="cls-26" x="335.13" y="461.4" width="2.25" height="36.21"/>
      <rect class="cls-26" x="347.62" y="461.4" width="2.25" height="36.21"/>
      <rect class="cls-26" x="341.9" y="440.94" width=".86" height="7.31"/>
      <rect class="cls-26" x="340.28" y="442.68" width="4.11" height=".87"/>
      <path class="cls-38" d="M300.91,531.04c-.65-7.87,3.5-11.85,4.59-7.16,1.72-4.28,5.08-4.05,3.96,1.51,1.14-.69,1.9-.32,1.76,2.64v3.01h-10.31Z"/>
      <path class="cls-19" d="M305.69,530.99l-.86-5.73c0-.06-.12-.09-.25-.07-.13.02-.22.08-.21.14l.85,5.68c.16-.02.31-.03.47-.02"/>
      <path class="cls-19" d="M305.12,528.53c-.15.02-.28-.07-.3-.2-.01-.06,0-.13.05-.18l3.03-3.7c.09-.11.26-.14.38-.06.12.08.14.23.05.34l-3.03,3.7c-.04.05-.11.09-.18.1"/>
      <path class="cls-38" d="M244.37,530.76c-.3-2.44,1.61-3.67,2.12-2.22.79-1.33,2.34-1.25,1.82.47.52-.21.88-.1.81.82v.93h-4.75Z"/>
      <path class="cls-38" d="M275.3,530.76c-.3-2.44,1.61-3.67,2.12-2.22.79-1.33,2.34-1.25,1.82.47.52-.21.88-.1.81.82v.93h-4.75Z"/>
      <path class="cls-38" d="M261.66,530.76c-.3-2.44,1.61-3.67,2.12-2.22.79-1.33,2.34-1.25,1.82.47.52-.21.88-.1.81.82v.93h-4.75Z"/>
      <path class="cls-38" d="M238.34,518.36c-.18-1.03.96-1.55,1.26-.93.47-.56,1.39-.53,1.09.2.31-.09.52-.04.48.34v.39h-2.82Z"/>
      <path class="cls-20" d="M239.05,517.31h0c-.12,0-.21.1-.21.21s.1.21.21.21.21-.1.21-.21-.1-.21-.21-.21"/>
      <path class="cls-21" d="M239.74,520.19h0c-.67,0-1.22-.54-1.22-1.22v-.52c0-.05.04-.1.1-.1h2.24c.05,0,.1.04.1.1v.52c0,.67-.54,1.22-1.22,1.22"/>
      <path class="cls-20" d="M238.47,518.18h0c-.12,0-.21.1-.21.21s.1.21.21.21.21-.1.21-.21-.1-.21-.21-.21"/>
      <path class="cls-20" d="M239.74,518.1h0c-.12,0-.21.1-.21.21s.1.21.21.21.21-.1.21-.21-.1-.21-.21-.21"/>
      <path class="cls-20" d="M240.62,517.37h0c-.12,0-.21.1-.21.21s.1.21.21.21.21-.1.21-.21-.1-.21-.21-.21"/>
      <path class="cls-20" d="M240.96,518.14h0c-.12,0-.21.1-.21.21s.1.21.21.21.21-.1.21-.21-.1-.21-.21-.21"/>
      <path class="cls-38" d="M244.07,523.11c-.18-1.03.96-1.55,1.26-.93.47-.56,1.39-.53,1.09.2.31-.09.52-.04.48.34v.39h-2.82Z"/>
      <path class="cls-20" d="M244.78,522.07h0c-.12,0-.21.1-.21.21s.1.21.21.21.21-.1.21-.21-.1-.21-.21-.21"/>
      <path class="cls-21" d="M245.47,524.94h0c-.67,0-1.22-.54-1.22-1.22v-.52c0-.05.04-.1.1-.1h2.24c.05,0,.1.04.1.1v.52c0,.67-.54,1.22-1.22,1.22"/>
      <path class="cls-20" d="M244.2,522.93h0c-.12,0-.21.1-.21.21s.1.21.21.21.21-.1.21-.21-.1-.21-.21-.21"/>
      <path class="cls-20" d="M245.47,522.85h0c-.12,0-.21.1-.21.21s.1.21.21.21.21-.1.21-.21-.1-.21-.21-.21"/>
      <path class="cls-20" d="M246.35,522.12h0c-.12,0-.21.1-.21.21s.1.21.21.21.21-.1.21-.21-.1-.21-.21-.21"/>
      <path class="cls-20" d="M246.69,522.9h0c-.12,0-.21.1-.21.21s.1.21.21.21.21-.1.21-.21-.1-.21-.21-.21"/>
      <path class="cls-38" d="M261.96,520.27c-.18-1.03.96-1.55,1.26-.93.47-.56,1.39-.53,1.08.2.31-.09.52-.04.48.34v.39h-2.83Z"/>
      <path class="cls-20" d="M262.67,519.22h0c-.12,0-.21.1-.21.21s.1.21.21.21.21-.1.21-.21-.1-.21-.21-.21"/>
      <path class="cls-21" d="M263.36,522.1h0c-.67,0-1.22-.54-1.22-1.22v-.52c0-.05.04-.1.1-.1h2.24c.05,0,.1.04.1.1v.52c0,.67-.55,1.22-1.22,1.22"/>
      <path class="cls-20" d="M262.09,520.09h0c-.12,0-.21.1-.21.21s.1.21.21.21.21-.1.21-.21-.1-.21-.21-.21"/>
      <path class="cls-20" d="M263.36,520.01h0c-.12,0-.21.1-.21.21s.1.21.21.21.21-.1.21-.21-.1-.21-.21-.21"/>
      <path class="cls-20" d="M264.24,519.28h0c-.12,0-.21.1-.21.21s.1.21.21.21.21-.1.21-.21-.1-.21-.21-.21"/>
      <path class="cls-20" d="M264.58,520.05h0c-.12,0-.21.1-.21.21s.1.21.21.21.21-.1.21-.21-.1-.21-.21-.21"/>
      <path class="cls-38" d="M277.49,520.27c-.18-1.03.96-1.55,1.26-.93.47-.56,1.39-.53,1.08.2.31-.09.52-.04.48.34v.39h-2.83Z"/>
      <path class="cls-20" d="M278.2,519.22h0c-.12,0-.21.1-.21.21s.1.21.21.21.21-.1.21-.21-.1-.21-.21-.21"/>
      <path class="cls-21" d="M278.9,522.1h0c-.67,0-1.22-.54-1.22-1.22v-.52c0-.05.04-.1.1-.1h2.24c.05,0,.1.04.1.1v.52c0,.67-.55,1.22-1.22,1.22"/>
      <path class="cls-20" d="M277.63,520.09h0c-.12,0-.21.1-.21.21s.1.21.21.21.21-.1.21-.21-.1-.21-.21-.21"/>
      <path class="cls-20" d="M278.9,520.01h0c-.12,0-.21.1-.21.21s.1.21.21.21.21-.1.21-.21-.1-.21-.21-.21"/>
      <path class="cls-20" d="M279.77,519.28h0c-.12,0-.21.1-.21.21s.1.21.21.21.21-.1.21-.21-.1-.21-.21-.21"/>
      <path class="cls-20" d="M280.12,520.05h0c-.12,0-.21.1-.21.21s.1.21.21.21.21-.1.21-.21-.1-.21-.21-.21"/>
      <path class="cls-38" d="M283.11,523.77c-.18-1.03.96-1.55,1.26-.93.47-.56,1.39-.53,1.08.2.31-.09.52-.04.48.34v.39h-2.83Z"/>
      <path class="cls-20" d="M283.82,522.73h0c-.12,0-.21.1-.21.21s.1.21.21.21.21-.1.21-.21-.1-.21-.21-.21"/>
      <path class="cls-21" d="M284.51,525.6h0c-.67,0-1.22-.54-1.22-1.22v-.52c0-.05.04-.1.1-.1h2.24c.05,0,.1.04.1.1v.52c0,.67-.55,1.22-1.22,1.22"/>
      <path class="cls-20" d="M283.24,523.6h0c-.12,0-.21.1-.21.21s.1.21.21.21.21-.1.21-.21-.1-.21-.21-.21"/>
      <path class="cls-20" d="M284.51,523.51h0c-.12,0-.21.1-.21.21s.1.21.21.21.21-.1.21-.21-.1-.21-.21-.21"/>
      <path class="cls-20" d="M285.38,522.78h0c-.12,0-.21.1-.21.21s.1.21.21.21.21-.1.21-.21-.1-.21-.21-.21"/>
      <path class="cls-20" d="M285.73,523.56h0c-.12,0-.21.1-.21.21s.1.21.21.21.21-.1.21-.21-.1-.21-.21-.21"/>
      <path class="cls-38" d="M288.84,517.93c-.18-1.03.96-1.55,1.26-.93.47-.56,1.39-.53,1.08.2.31-.09.52-.04.48.34v.39h-2.83Z"/>
      <path class="cls-20" d="M289.55,516.88h0c-.12,0-.21.1-.21.21s.1.21.21.21.21-.1.21-.21-.1-.21-.21-.21"/>
      <path class="cls-21" d="M290.24,519.76h0c-.67,0-1.22-.54-1.22-1.22v-.52c0-.05.04-.1.1-.1h2.24c.05,0,.1.04.1.1v.52c0,.67-.55,1.22-1.22,1.22"/>
      <path class="cls-20" d="M288.97,517.75h0c-.12,0-.21.1-.21.21s.1.21.21.21.21-.1.21-.21-.1-.21-.21-.21"/>
      <path class="cls-20" d="M290.24,517.67h0c-.12,0-.21.1-.21.21s.1.21.21.21.21-.1.21-.21-.1-.21-.21-.21"/>
      <path class="cls-20" d="M291.12,516.94h0c-.12,0-.21.1-.21.21s.1.21.21.21.21-.1.21-.21-.1-.21-.21-.21"/>
      <path class="cls-20" d="M291.46,517.71h0c-.12,0-.21.1-.21.21s.1.21.21.21.21-.1.21-.21-.1-.21-.21-.21"/>
      <path class="cls-38" d="M244.3,498.42c-.18-1.03.96-1.55,1.26-.93.47-.56,1.39-.53,1.09.2.31-.09.52-.04.48.34v.39h-2.82Z"/>
      <path class="cls-20" d="M245.01,497.37h0c-.12,0-.21.1-.21.21s.1.21.21.21.21-.1.21-.21-.1-.21-.21-.21"/>
      <path class="cls-21" d="M245.71,500.25h0c-.67,0-1.22-.54-1.22-1.22v-.52c0-.05.04-.1.1-.1h2.24c.05,0,.1.04.1.1v.52c0,.67-.54,1.22-1.22,1.22"/>
      <path class="cls-20" d="M244.43,498.24h0c-.12,0-.21.1-.21.21s.1.21.21.21.21-.1.21-.21-.1-.21-.21-.21"/>
      <path class="cls-20" d="M245.71,498.16h0c-.12,0-.21.1-.21.21s.1.21.21.21.21-.1.21-.21-.1-.21-.21-.21"/>
      <path class="cls-20" d="M246.58,497.43h0c-.12,0-.21.1-.21.21s.1.21.21.21.21-.1.21-.21-.1-.21-.21-.21"/>
      <path class="cls-20" d="M246.92,498.2h0c-.12,0-.21.1-.21.21s.1.21.21.21.21-.1.21-.21-.1-.21-.21-.21"/>
      <path class="cls-38" d="M238.84,498.42c-.18-1.03.96-1.55,1.26-.93.47-.56,1.39-.53,1.09.2.31-.09.52-.04.48.34v.39h-2.82Z"/>
      <path class="cls-20" d="M239.55,497.37h0c-.12,0-.21.1-.21.21s.1.21.21.21.21-.1.21-.21-.1-.21-.21-.21"/>
      <path class="cls-21" d="M240.24,500.25h0c-.67,0-1.22-.54-1.22-1.22v-.52c0-.05.04-.1.1-.1h2.24c.05,0,.1.04.1.1v.52c0,.67-.54,1.22-1.22,1.22"/>
      <path class="cls-20" d="M238.97,498.24h0c-.12,0-.21.1-.21.21s.1.21.21.21.21-.1.21-.21-.1-.21-.21-.21"/>
      <path class="cls-20" d="M240.24,498.16h0c-.12,0-.21.1-.21.21s.1.21.21.21.21-.1.21-.21-.1-.21-.21-.21"/>
      <path class="cls-20" d="M241.12,497.43h0c-.12,0-.21.1-.21.21s.1.21.21.21.21-.1.21-.21-.1-.21-.21-.21"/>
      <path class="cls-20" d="M241.46,498.2h0c-.12,0-.21.1-.21.21s.1.21.21.21.21-.1.21-.21-.1-.21-.21-.21"/>
      <path class="cls-38" d="M261.27,498.42c-.18-1.03.96-1.55,1.26-.93.47-.56,1.39-.53,1.08.2.31-.09.52-.04.48.34v.39h-2.83Z"/>
      <path class="cls-20" d="M261.98,497.37h0c-.12,0-.21.1-.21.21s.1.21.21.21.21-.1.21-.21-.1-.21-.21-.21"/>
      <path class="cls-21" d="M262.68,500.25h0c-.67,0-1.22-.54-1.22-1.22v-.52c0-.05.04-.1.1-.1h2.24c.05,0,.1.04.1.1v.52c0,.67-.55,1.22-1.22,1.22"/>
      <path class="cls-20" d="M261.4,498.24h0c-.12,0-.21.1-.21.21s.1.21.21.21.21-.1.21-.21-.1-.21-.21-.21"/>
      <path class="cls-20" d="M262.68,498.16h0c-.12,0-.21.1-.21.21s.1.21.21.21.21-.1.21-.21-.1-.21-.21-.21"/>
      <path class="cls-20" d="M263.55,497.43h0c-.12,0-.21.1-.21.21s.1.21.21.21.21-.1.21-.21-.1-.21-.21-.21"/>
      <path class="cls-20" d="M263.89,498.2h0c-.12,0-.21.1-.21.21s.1.21.21.21.21-.1.21-.21-.1-.21-.21-.21"/>
      <path class="cls-38" d="M267.04,498.42c-.18-1.03.96-1.55,1.26-.93.47-.56,1.39-.53,1.08.2.31-.09.52-.04.48.34v.39h-2.83Z"/>
      <path class="cls-20" d="M267.75,497.37h0c-.12,0-.21.1-.21.21s.1.21.21.21.21-.1.21-.21-.1-.21-.21-.21"/>
      <path class="cls-21" d="M268.45,500.25h0c-.67,0-1.22-.54-1.22-1.22v-.52c0-.05.04-.1.1-.1h2.24c.05,0,.1.04.1.1v.52c0,.67-.55,1.22-1.22,1.22"/>
      <path class="cls-20" d="M267.17,498.24h0c-.12,0-.21.1-.21.21s.1.21.21.21.21-.1.21-.21-.1-.21-.21-.21"/>
      <path class="cls-20" d="M268.45,498.16h0c-.12,0-.21.1-.21.21s.1.21.21.21.21-.1.21-.21-.1-.21-.21-.21"/>
      <path class="cls-20" d="M269.32,497.43h0c-.12,0-.21.1-.21.21s.1.21.21.21.21-.1.21-.21-.1-.21-.21-.21"/>
      <path class="cls-20" d="M269.66,498.2h0c-.12,0-.21.1-.21.21s.1.21.21.21.21-.1.21-.21-.1-.21-.21-.21"/>
      <path class="cls-38" d="M289.27,498.42c-.18-1.03.96-1.55,1.26-.93.47-.56,1.39-.53,1.08.2.31-.09.52-.04.48.34v.39h-2.83Z"/>
      <path class="cls-20" d="M289.98,497.37h0c-.12,0-.21.1-.21.21s.1.21.21.21.21-.1.21-.21-.1-.21-.21-.21"/>
      <path class="cls-21" d="M290.68,500.25h0c-.67,0-1.22-.54-1.22-1.22v-.52c0-.05.04-.1.1-.1h2.24c.05,0,.1.04.1.1v.52c0,.67-.55,1.22-1.22,1.22"/>
      <path class="cls-20" d="M289.4,498.24h0c-.12,0-.21.1-.21.21s.1.21.21.21.21-.1.21-.21-.1-.21-.21-.21"/>
      <path class="cls-20" d="M290.68,498.16h0c-.12,0-.21.1-.21.21s.1.21.21.21.21-.1.21-.21-.1-.21-.21-.21"/>
      <path class="cls-20" d="M291.55,497.43h0c-.12,0-.21.1-.21.21s.1.21.21.21.21-.1.21-.21-.1-.21-.21-.21"/>
      <path class="cls-20" d="M291.89,498.2h0c-.12,0-.21.1-.21.21s.1.21.21.21.21-.1.21-.21-.1-.21-.21-.21"/>
      <path class="cls-38" d="M283.81,498.42c-.18-1.03.96-1.55,1.26-.93.47-.56,1.39-.53,1.08.2.31-.09.52-.04.48.34v.39h-2.83Z"/>
      <path class="cls-20" d="M284.52,497.37h0c-.12,0-.21.1-.21.21s.1.21.21.21.21-.1.21-.21-.1-.21-.21-.21"/>
      <path class="cls-21" d="M285.21,500.25h0c-.67,0-1.22-.54-1.22-1.22v-.52c0-.05.04-.1.1-.1h2.24c.05,0,.1.04.1.1v.52c0,.67-.55,1.22-1.22,1.22"/>
      <path class="cls-20" d="M283.94,498.24h0c-.12,0-.21.1-.21.21s.1.21.21.21.21-.1.21-.21-.1-.21-.21-.21"/>
      <path class="cls-20" d="M285.21,498.16h0c-.12,0-.21.1-.21.21s.1.21.21.21.21-.1.21-.21-.1-.21-.21-.21"/>
      <path class="cls-20" d="M286.08,497.43h0c-.12,0-.21.1-.21.21s.1.21.21.21.21-.1.21-.21-.1-.21-.21-.21"/>
      <path class="cls-20" d="M286.43,498.2h0c-.12,0-.21.1-.21.21s.1.21.21.21.21-.1.21-.21-.1-.21-.21-.21"/>
      <rect class="cls-6" x="273.27" y="4.39" width="156" height="22"/>
      <path class="cls-7" d="M481.19,128.78V47.21C481.19,21.14,460.06,0,433.98,0h-172.82C235.09,0,213.95,21.14,213.95,47.21v447.5c0,26.07,21.14,47.21,47.21,47.21h172.82c26.07,0,47.21-21.14,47.21-47.21V186.84h2.98v-58.06h-2.98ZM469.14,494.38c0,19.47-15.78,35.26-35.26,35.26h-173.65c-19.47,0-35.26-15.78-35.26-35.26V47.54c0-19.47,15.79-35.26,35.26-35.26h21.07c-.82,2.01-1.24,4.16-1.24,6.32,0,9.25,7.5,16.75,16.75,16.75h99.01c2.17,0,4.32-.42,6.33-1.24,8.57-3.49,12.68-13.27,9.18-21.84h22.56c19.47,0,35.26,15.78,35.26,35.26v446.84Z"/>
      <path class="cls-26" d="M341.78,596.4c0,8.37-76.61,9.26-170.89,15.15-94.2,5.89-170.89-6.78-170.89-15.15s77.05-25.21,170.89-15.15c94.28,10.1,170.89,6.78,170.89,15.15"/>
      <path class="cls-27" d="M139.61,431.39c4.89-3.35,6.14-10.04,2.79-14.93-.36-.52-.76-1.01-1.21-1.46l4.17-93.02-21.21,2.38,1.23,90.99c-3.97,4.45-3.57,11.28.88,15.25,3.73,3.32,9.25,3.65,13.35.8h0Z"/>
      <polygon class="cls-27" points="178.31 588.85 190.39 590.97 202.32 545.41 186.5 542.28 178.31 588.85"/>
      <path class="cls-9" d="M211.71,606.28l-37.95-6.67,2.58-14.66,23.29,4.09c8.1,1.42,13.51,9.14,12.09,17.24h0Z"/>
      <polygon class="cls-27" points="145.17 594.89 157.43 594.89 163.26 547.61 145.17 547.61 145.17 594.89"/>
      <path class="cls-9" d="M181.07,606.28h-38.53s0-14.89,0-14.89h23.64c8.22,0,14.89,6.66,14.89,14.89Z"/>
      <path class="cls-34" d="M196.32,577.94c-.19,0-.38-.01-.57-.03l-14.43-1.19c-2.68-.31-4.59-2.74-4.28-5.42,0-.08.02-.16.04-.24l14.32-70.68-9-47.47c-.17-.88-1.02-1.46-1.9-1.29-.71.13-1.25.73-1.32,1.45l-13.26,120.63c-.26,2.64-2.56,4.6-5.21,4.44l-13.6-.51c-2.46-.17-4.41-2.16-4.54-4.63l1.09-145.77,70.48-8.81,4.92,76.04-.02.08-17.99,79.67c-.53,2.19-2.49,3.72-4.74,3.73"/>
      <path class="cls-27" d="M166.91,212.58c13.57,0,24.56,11,24.56,24.56s-11,24.56-24.56,24.56-24.56-11-24.56-24.56,11-24.56,24.56-24.56"/>
      <path class="cls-33" d="M190.05,438.32c-3.84.02-7.61-1.05-10.86-3.11-11.9-7.44-25.41-4.48-32.41-2.06-1.41.49-2.96.31-4.22-.48-1.24-.78-2.06-2.09-2.22-3.55l-12.72-113.62c-2.13-19.04,9.34-36.94,27.27-42.56.67-.21,1.36-.41,2.06-.6,11.3-3.06,23.37-.97,32.97,5.72,9.78,6.76,16.07,17.51,17.17,29.35l10.71,114.39c.15,1.5-.42,2.99-1.53,4.01-3.76,3.47-14.65,12.51-26.22,12.51"/>
      <path class="cls-33" d="M151.31,339.87l-28.7-3.16c-3.14-.35-5.4-3.17-5.06-6.31.03-.28.08-.56.15-.83l7.31-27.85c.9-8.72,8.7-15.07,17.42-14.17,8.72.9,15.07,8.7,14.17,17.42,0,.1-.02.2-.03.31l1.08,28.67c.12,3.16-2.34,5.81-5.5,5.93-.28.01-.56,0-.84-.03h0Z"/>
      <path class="cls-27" d="M217.68,427.41c4.45-3.92,4.89-10.71.97-15.16-.42-.47-.88-.91-1.37-1.31l-7.07-92.84-20.79,4.68,12.2,90.41c-3.4,4.9-2.19,11.63,2.71,15.03,4.1,2.85,9.63,2.51,13.35-.82h0Z"/>
      <path class="cls-33" d="M181.44,334.03c-1.22-1.13-1.88-2.74-1.82-4.4l1.08-28.68c-.98-8.71,5.28-16.58,14-17.56,8.71-.98,16.58,5.28,17.56,14l7.31,27.85c.8,3.05-1.02,6.18-4.08,6.98-.27.07-.55.12-.83.15l-28.7,3.16c-1.65.18-3.3-.37-4.52-1.5h0Z"/>
      <path class="cls-9" d="M165.45,262.63c-.44,0-.87-.05-1.3-.15l-.12-.03c-21.59-3.3-26.37-15.81-27.41-21.04-1.08-5.41.15-10.63,2.94-12.66-1.52-4.8-1.28-9.06.73-12.66,3.5-6.28,11.08-8.4,12.1-8.66,6.06-4.47,13.31-1.49,14.62-.88,11.72-4.33,16.2-.73,17.01.08,5.24.94,8.43,2.96,9.49,6.02,1.99,5.73-4.31,12.86-4.57,13.16l-.14.16-9.38.45c-3.51.17-6.21,3.15-6.05,6.65.01.22.03.44.07.66.25,1.14.57,2.26.96,3.35,1.6,5.01,2.8,9.28,1.25,10.91-.72.64-1.74.82-2.62.46-1.47-.39-2.46-.31-2.96.24-.77.86-.54,3.04.66,6.12.76,1.99.36,4.24-1.05,5.85-1.05,1.24-2.6,1.96-4.23,1.97h0Z"/>
      <path class="cls-26" d="M417.41,304c2.19.01,4.4,0,6.59,0v6.59c-2.19,0-4.4-.01-6.59,0,0-2.19.01-4.4,0-6.59"/>
      <path class="cls-26" d="M318.91,185.39v13.18h6.26v-6.59h13.51v6.92h-6.59v12.85h26.03v-13.18h6.59v-6.26h-13.18v-6.92h39.54l.33,13.51h-6.92v-6.59h-12.85v6.26h6.59v6.59h6.59v6.59h6.59v6.42s-.46.49-.49.49h-13.01v-13.18h-6.26v6.59h-13.18v6.26h6.59v13.51h-6.59v12.85h6.26v-6.59h6.59v-13.18h6.92v13.01s-.46.49-.49.49h-6.1v6.26h13.18v6.59h6.26v-13.18h6.92v6.59h6.26v-6.59h6.43s.49.46.49.49v6.1h6.26v-6.59h6.59v6.59h6.59v-6.59h6.59v6.59h6.59v6.92h-32.62v6.26h19.44v6.59h6.59v6.59h6.59v6.92h-13.18v6.26h13.18v19.77h-13.18v-6.59h-6.59v-12.85h-6.59v6.26h-6.59v-6.26h-6.59v-6.59h-6.59v-6.92h6.59v-6.59h6.59v-6.26h-6.59v-6.59h-6.26v12.68s-.46.49-.49.49h-6.1v19.44h6.59v6.59h-13.18v6.59h32.62c0,2.19-.01,4.4,0,6.59-4.28-.02-8.57.02-12.85,0v6.59c4.28-.02,8.57.02,12.85,0,.03,8.67-.02,17.36,0,26.03h6.59v6.59h13.18v6.59h6.59v6.92h-6.59v13.18h-6.59v6.59h-6.59v-6.59h-19.77v-6.59h-12.85v6.59h-6.59v6.59h-6.92v-6.92h6.59v-6.26h-13.18v-13.18h-6.26v6.59h-6.59v6.26h6.1s.49.46.49.49v6.1h6.1s.49.46.49.49v6.42h-6.92v-6.59h-6.59v-6.59h-6.26v6.59h-6.92v-6.92h6.59v-6.59h6.59v-6.26h-13.18v-6.59h-6.26v6.59h-6.92v-13.01s.46-.49.49-.49h6.1v-6.26h-6.59v-6.59h-12.85v12.85h6.1s.49.46.49.49v6.42h-6.92v-6.59h-13.18v-13.18h13.18v-6.59h-19.44v6.59h-6.92v-6.59h6.59v-6.59h-6.59v-6.59h6.59v-6.59h-19.44v6.59h-6.59v6.59h-6.92v-13.18h-6.26v26.36h-6.92v-26.36h6.59v-6.59h-6.59v-32.45s.46-.49.49-.49h12.68v-6.26h-12.68s-.49-.46-.49-.49v-12.52s.46-.49.49-.49h32.78v6.59h6.26v-6.59h33.28v6.92h-6.59v12.85h6.26v-6.59h13.51v6.92h-6.59v12.85h26.36v6.59h19.44v-6.59h6.59v-6.26h-6.59v-6.92h6.59v-6.26h-13.18v-6.59h-6.26v6.1s-.46.49-.49.49h-13.01v-6.59h-6.59v-6.59h-6.26v6.59h-6.92v-20.1h6.59v-6.26h-6.59v-6.59h-6.26v19.77h-6.92v-19.77h-13.18v-6.92h6.59v-6.26h-6.59v-6.92h6.59v-6.59h6.92ZM371.29,198.9h-6.26v6.26h6.26v-6.26ZM325.17,205.49h-6.26v6.26h6.26v-6.26ZM344.93,225.26h-6.26v6.26h6.26v-6.26ZM358.11,225.26h-6.26v6.26h6.26v-6.26ZM351.52,231.85h-6.26v6.26h6.26v-6.26ZM272.45,245.03h-6.26v6.26h6.26v-6.26ZM285.63,245.03h-6.26v6.59h-6.59v6.59h-6.59v6.26h6.59v6.59h6.59v19.77h19.77v6.59h12.85v-26.03h-6.26v6.1s-.46.49-.49.49h-6.1v6.1s-.46.49-.49.49h-5.93s-.49-.46-.49-.49v-6.42h6.59v-6.26h-12.68s-.49-.46-.49-.49v-6.1h-6.1s-.49-.46-.49-.49v-6.42h13.18v-6.26h-6.1s-.49-.46-.49-.49v-6.1ZM311.99,245.03h-19.44v6.26h13.18v6.92h-13.18v6.26h6.59v6.59h6.26v-6.59h6.59v-19.44ZM410.83,245.03h-6.26v6.26h6.26v-6.26ZM391.06,258.21h-6.26v6.26h6.26v-6.26ZM265.86,264.79h-6.26v12.85h12.85v-6.26h-6.1s-.49-.46-.49-.49v-6.1ZM325.17,264.79h-6.26v6.26h6.26v-6.26ZM430.59,264.79h-19.44v6.26h6.26v6.59h13.18v-12.85ZM331.76,271.38h-6.26v6.1s-.46.49-.49.49h-6.1v12.85h6.59v13.18h13.18v6.59h-6.59v13.18h19.44v-6.59h-6.59v-6.59h6.59v-6.59h6.59v-6.59h-13.18v-6.59h-6.26v6.59h-6.92v-13.18h6.59v-6.26h-6.1s-.49-.46-.49-.49v-6.1ZM384.47,277.97h-6.26v6.26h6.26v-6.26ZM272.45,284.56h-12.85v6.26h6.59v6.59h12.85v-6.59h-6.59v-6.26ZM371.29,284.56h-26.03v6.26h26.03v-6.26ZM377.88,290.82h-6.26v6.59h6.26v-6.59ZM318.58,297.41h-6.26v6.59h-6.59v6.59h19.44v-6.59h-6.59v-6.59ZM371.29,297.41h-6.26v19.77h6.59v6.59h-6.59v6.26h12.85v-6.26h6.59v-6.59h19.77v-6.59h-13.18v-6.59h-19.77v-6.59ZM364.7,317.18h-6.26v6.59h6.26v-6.59ZM358.11,323.77h-6.26v6.26h6.26v-6.26ZM410.83,323.77h-19.44v19.44h19.44v-19.44ZM364.7,330.36h-6.26v6.26h6.26v-6.26ZM351.52,336.95h-6.26v6.26h6.26v-6.26ZM377.88,336.95h-12.85v6.26h6.1s.49.46.49.49v6.1h12.85v-6.26h-6.59v-6.59ZM404.24,350.12h-19.44v6.26h19.44v-6.26ZM417.42,350.12h-6.26v6.26h6.26v-6.26ZM430.59,350.12h-6.59v6.26h6.59v-6.26ZM424,356.71h-6.59v6.26h6.59v-6.26ZM430.59,363.3h-6.59v6.26h6.59v-6.26Z"/>
      <path class="cls-26" d="M299.14,185.39v46.45h-45.96l-.16-46.45h46.12ZM292.22,192.31h-32.62v32.62h32.62v-32.62Z"/>
      <path class="cls-26" d="M397.65,185.39h46.12v46.45h-46.13s0-46.45,0-46.45ZM437.18,192.31h-32.62v32.62h32.62v-32.62Z"/>
      <path class="cls-26" d="M443.77,310.59v13.18h-6.59c-.01,2.19,0,4.4,0,6.59h-6.59c-.02-2.19.02-4.4,0-6.59-2.19-.01-4.4,0-6.59,0v-6.59h6.59c.02,2.19-.02,4.4,0,6.59,2.19.01,4.4,0,6.59,0,.02-4.39-.02-8.79,0-13.18h6.59Z"/>
      <path class="cls-26" d="M299.14,376.48h-45.96s-.49-.46-.49-.49v-45.46s.46-.49.49-.49h45.47s.49.46.49.49v45.96ZM292.22,336.95h-32.62v32.62h32.62v-32.62Z"/>
      <path class="cls-26" d="M312.32,343.21v13.18h6.59v6.92h-6.59v13.18h-6.92v-32.78s.46-.49.49-.49h6.42Z"/>
      <polygon class="cls-26" points="338.67 356.39 338.67 363.3 332.08 363.3 332.08 376.48 318.58 376.48 318.58 369.56 325.17 369.56 325.17 356.39 338.67 356.39"/>
      <path class="cls-26" d="M365.03,257.88v6.59h6.59v6.43s-.46.49-.49.49h-6.42v-6.59h-6.59v-6.92h6.92Z"/>
      <rect class="cls-26" x="305.4" y="218.34" width="6.92" height="13.51"/>
      <path class="cls-26" d="M351.85,257.88v6.42s-.46.49-.49.49h-6.43v-6.92h6.92Z"/>
      <rect class="cls-26" x="265.86" y="317.18" width="6.92" height="6.59"/>
      <path class="cls-26" d="M391.39,224.93v6.42s-.46.49-.49.49h-6.43v-6.92h6.92Z"/>
      <rect class="cls-26" x="344.93" y="198.57" width="6.92" height="6.92"/>
      <path class="cls-26" d="M404.57,336.95h-6.92v-6.92h6.43s.49.46.49.49v6.42Z"/>
      <path class="cls-26" d="M285.96,198.57v20.1h-19.6s-.49-.46-.49-.49v-19.11s.46-.49.49-.49h19.6Z"/>
      <rect class="cls-26" x="410.82" y="198.57" width="19.77" height="20.1"/>
      <path class="cls-26" d="M285.96,343.21v20.1h-20.1v-19.6s.46-.49.49-.49h19.6Z"/>
      <path class="cls-29" d="M352.16,135.87c.1,1.37-.35,2.68-.45,4.03-.42,3.1-.83,6.21-1.28,9.31-.04.28.07.82-.38.83-.53.01-.43-.51-.48-.88-.36-2.56-.54-5.15-.9-7.69-.35-2.46-.63-4.93-1.08-7.39-.65-3.58-.94-7.22-1.42-10.83-.67-5.08-1.62-10.12-1.95-15.24-.06-.94-.37-1.19-1.29-.88-1.89.62-3.82,1.16-5.73,1.74-.33.1-.69.23-.98,0-.35-.28-.03-.63.05-.93.62-2.29,1.25-4.58,1.91-6.86.18-.61.1-.88-.59-1.08-3.9-1.16-7.79-2.36-11.66-3.61-1.3-.42-2.69-.65-4.07-1.48,4.69-1.66,9.27-3,13.85-4.34,2.9-.85,2.9-.77,2.03-3.65-.59-1.96-1.11-3.94-1.69-6.06,2.77.53,5.21,1.41,7.69,2.11.94.27,1.25,0,1.5-.86,1.01-3.46,2.07-6.9,3.15-10.34.49-1.56,1.04-3.1,1.58-4.67.52.25.54.66.66,1,1.59,4.61,2.62,9.4,4.28,13.99.32.89.57,1.06,1.51.86,2.25-.47,4.38-1.34,6.62-1.83.88-.2,1.38-.1,1.01,1.04-.69,2.14-1.24,4.33-1.95,6.46-.32.96-.02,1.27.85,1.51,1.59.44,3.14,1.02,4.73,1.47,1.83.52,3.58,1.33,5.51,1.49,1.21.75,2.59,1.01,3.92,1.41.27.08.79.03.78.49-.02.42-.46.4-.78.49-4.44,1.35-8.86,2.73-13.3,4.08-.52.16-.92.56-1.53.57-.52.01-.32.48-.22.79.54,1.83,1.08,3.66,1.62,5.49.17.61.28,1.23.52,1.81.37.91.06,1.04-.76.79-2.1-.65-4.21-1.24-6.3-1.91-.91-.29-1.16.08-1.19.89-.14,4.45-1.15,8.8-1.63,13.21-.37,3.43-.91,6.87-1.37,10.3-.14,1.02-.68,2.04-.28,3.12,0,0-.01,0-.01,0-.16.02-.23.12-.22.28-.07.17-.15.34-.22.51-.38-.19-.38-.55-.34-.89.38-2.97.76-5.94,1.15-8.9.37-2.72.75-5.43,1.14-8.14.26-1.8.32-3.63.62-5.4.37-2.15.72-4.29.68-6.47.9,1.08,2.29,1.07,3.47,1.47,1.2.41,2.43.86,3.63.94-3.91-4.02-7.82-8.04-11.73-12.06l.02.02c-.06-.07-.13-.14-.2-.21-.2-.05-.38-.32-.59-.04-.21.08-.41.16-.62.24-.39.01-.59.31-.83.54-3.43,3.43-6.87,6.84-10.27,10.3-.4.41-1.14.57-1.24,1.51,2.54-.81,5.03-1.28,7.35-2.33.01.42-.02.86.04,1.27.39,2.68.91,5.34,1.18,8.03.43,4.21,1.23,8.37,1.64,12.59.49,4.96,1.24,9.9,2.03,14.83.18,1.13-.21,2.42.7,3.41.37-.58.45-1.24.53-1.91.32-2.55.68-5.09,1-7.63.05-.37.1-.67.55-.69M351.12,94.17c.54.11.99-.16,1.46-.37,2.01-.91,3.97-1.98,6.05-2.7,1.88-.65,2.93-1.7,3.31-3.68.34-1.8,1-3.55,1.52-5.32-4.33,3.9-8.45,7.86-12.37,12.05-.04.05-.07.09-.11.14.04-.04.09-.08.13-.11M350.07,93.89c.36-.12.48-.45.64-.75,1.33-2.59,2.16-5.41,3.63-7.94.34-.59.38-1.39.2-2.21-.49-2.27-1.6-4.34-2.06-6.6-.35-1.73-1.14-3.33-1.49-5.07-.08-.4-.21-1.12-.91-1.23-.02-.17.01-.38-.08-.49-.18-.22-.3.01-.35.14-.13.36-.22.73-.33,1.09-1.21,3.89-2.42,7.78-3.65,11.66-.29.9-.27,1.73.12,2.59.89,1.97,1.66,4,2.65,5.92.5.97.44,2.3,1.64,2.88M339.11,89.91c-.13.34-.43.34-.72.43-4.12,1.27-8.23,2.54-12.34,3.84-.55.17-1.18.22-1.58.75.06.57.59.52.93.63,2.67.85,5.46,1.4,8,2.53,3.93,1.76,7.53,1.64,11.14-.7,1.49-.96,3.3-1.34,4.76-2.4-.25-.28-.51-.56-.76-.84.12-.67-.39-.99-.77-1.37-3.32-3.35-6.65-6.7-9.98-10.03-.22-.22-.37-.59-.9-.53.75,2.58,1.48,5.13,2.22,7.69M351.11,94.99c-.04.1-.07.2-.11.3,3.02,1.33,6.05,2.64,9.06,3.99.78.35,1.48.38,2.32.12,3.85-1.22,7.72-2.36,11.57-3.57.58-.18,1.29-.18,1.8-.84h-24.65Z"/>
      <path class="cls-11" d="M352.16,135.87c-.45.02-.51.32-.55.69-.33,2.54-.69,5.09-1.01,7.63-.08.67-.16,1.33-.53,1.91,0-16.8,0-33.6,0-50.39.21-.28.4,0,.59.03.07.07.13.14.2.21l-.02-.02c.24,1.13.94,2.05,1.42,3.07,1.03,2.22,2.34,4.3,3.22,6.59.04,2.19-.31,4.32-.68,6.47-.3,1.78-.36,3.61-.62,5.4-.39,2.71-.78,5.43-1.14,8.14-.4,2.97-.78,5.93-1.16,8.9-.04.33-.04.69.34.89-.02.16-.04.31-.06.47"/>
      <path class="cls-22" d="M352.44,134.89c-.01-.16.06-.25.22-.28-.07.09-.15.18-.22.28"/>
      <path class="cls-28" d="M350.07,95.7c0,16.8,0,33.6,0,50.4-.91-.99-.52-2.28-.7-3.41-.78-4.93-1.53-9.87-2.03-14.83-.42-4.22-1.22-8.37-1.64-12.59-.27-2.69-.79-5.35-1.18-8.03-.06-.42-.03-.85-.04-1.27,1.66-3.34,3.32-6.69,4.99-10.03.21-.08.41-.16.62-.24"/>
      <path class="cls-17" d="M349.3,95c-1.46,1.05-3.27,1.43-4.76,2.4-3.61,2.34-7.21,2.46-11.14.7-2.54-1.13-5.33-1.68-8-2.53-.33-.11-.87-.06-.93-.63,1.02.01,2.04.03,3.05.04,7.26.01,14.51.02,21.77.03"/>
      <path class="cls-17" d="M351.11,94.99h24.65c-.51.66-1.22.66-1.8.84-3.85,1.21-7.73,2.34-11.57,3.57-.83.27-1.54.23-2.32-.12-3.01-1.35-6.04-2.66-9.06-3.99.04-.1.07-.2.11-.3"/>
      <path class="cls-28" d="M349.3,95c-7.26-.01-14.51-.02-21.77-.03-1.02,0-2.04-.02-3.05-.04.39-.52,1.03-.57,1.58-.75,4.11-1.3,8.22-2.57,12.34-3.84.29-.09.59-.09.72-.43,3.14,1.41,6.28,2.83,9.43,4.24.25.28.51.56.76.84"/>
      <path class="cls-28" d="M350.07,93.9c-1.2-.58-1.14-1.91-1.64-2.88-.99-1.92-1.75-3.95-2.64-5.92-.39-.86-.41-1.69-.12-2.59,1.23-3.88,2.43-7.77,3.65-11.66.11-.36.2-.74.33-1.09.05-.13.18-.36.35-.14.09.11.06.32.08.49,0,7.93,0,15.87,0,23.8"/>
      <path class="cls-11" d="M350.07,93.9c0-7.93,0-15.87,0-23.8.7.11.83.83.91,1.23.36,1.73,1.14,3.33,1.49,5.07.46,2.26,1.57,4.33,2.06,6.6.18.82.14,1.62-.2,2.21-1.47,2.54-2.3,5.35-3.63,7.94-.15.3-.28.63-.64.75"/>
      <path class="cls-17" d="M351.09,94.14c3.91-4.18,8.04-8.15,12.37-12.04-.52,1.77-1.18,3.52-1.52,5.32-.38,1.98-1.43,3.03-3.31,3.68-2.08.72-4.04,1.79-6.05,2.7-.46.21-.91.48-1.46.37l-.02-.03Z"/>
      <path class="cls-17" d="M348.54,94.15c-3.14-1.41-6.29-2.83-9.43-4.24-.74-2.55-1.48-5.11-2.22-7.69.53-.06.68.31.9.53,3.33,3.34,6.66,6.68,9.98,10.03.38.38.89.7.77,1.37"/>
      <path class="cls-17" d="M349.45,95.94c-1.66,3.34-3.32,6.68-4.99,10.03-2.32,1.04-4.81,1.52-7.35,2.33.1-.94.84-1.1,1.24-1.51,3.39-3.46,6.84-6.88,10.26-10.3.24-.24.44-.53.83-.54"/>
      <path class="cls-17" d="M355.47,105.59c-.88-2.29-2.19-4.37-3.22-6.59-.48-1.02-1.17-1.94-1.42-3.07,3.91,4.02,7.82,8.04,11.73,12.06-1.2-.07-2.43-.53-3.63-.94-1.18-.4-2.57-.39-3.47-1.47"/>
      <path class="cls-17" d="M351.12,94.17s-.09.08-.13.11c.04-.05.07-.09.11-.14l.02.03"/>
      <path class="cls-17" d="M350.86,95.95c-.07-.07-.13-.14-.2-.21.07.07.13.14.2.21"/>
    </g>
  </g>
</svg>